<svg width="201" height="201" viewBox="0 0 201 201" fill="none" xmlns="http://www.w3.org/2000/svg">
    <g clip-path="url(#clip0_2169_2858)">
        <path d="M13.5685 90.8243L17.2821 104.963C18.44 109.372 30.0742 111.459 28.4238 117.969C27.2559 122.575 26.64 125.862 26.3096 130.734C25.6356 140.669 29.6283 150.087 35.6493 157.693C41.6093 165.221 50.7296 155.035 54.3282 149.337C58.8377 142.196 65.8471 144.089 73.2712 143.363C82.6049 142.451 83.6995 151.56 91.0413 157.693C96.4609 162.219 106.397 159.395 108.25 166.448C110.301 174.257 111.9 182.39 121.291 182.041C125.826 181.872 130.284 180.498 134.839 180.298C140.071 180.068 144.742 180.148 149.812 178.816C160.648 175.97 171.595 169.812 179.102 161.319C182.884 157.04 174.65 149.874 173.556 145.71C171.588 138.217 182.638 135.547 186.108 130.884C189.942 125.732 193.096 117.928 191.413 111.517C190.341 107.436 189.278 104.583 185.76 102.38C178.726 97.9764 182.178 86.1608 183.854 79.6418C185.933 71.5551 187.567 64.4722 190.927 56.8596C193.64 50.7129 194.064 47.2977 192.408 40.9932C190.744 34.6586 186.04 31.3759 181.356 26.7841C178.967 24.4415 176.153 22.7768 173.184 25.2541C169.837 28.0454 166.115 29.2319 161.925 30.2084C159.123 30.8612 156.425 29.5655 154.074 28.1853C150.193 25.907 145.998 24.4281 142.018 22.3648C136.156 19.3257 129.597 14.141 123.192 12.7849C115.841 11.2285 106.065 11.2208 98.6466 11.8787C96.8584 12.0372 94.9396 12.293 93.1757 11.8631C86.7977 10.309 78.528 13.2261 73.135 16.5821C68.6575 19.3683 64.6133 22.3968 61.4456 26.7784C58.036 31.4946 55.4969 32.8343 49.7856 34.3343C43.5943 35.9605 35.7154 37.4647 31.9502 43.1492C29.3918 47.0118 25.2936 50.3053 26.2248 55.4101C27.1214 60.3255 28.5354 66.3122 28.7315 71.3188C28.857 74.5224 19.0636 78.113 16.7544 80.592C13.3035 84.2967 12.2404 85.7679 13.5685 90.8243Z" fill="#F4F7FA"/>
        <path d="M116.76 27.2699C114.478 25.3142 109.549 26.3238 107.4 27.5033C106.069 28.1976 105.191 28.2868 104.1 28.0729C103.695 27.9911 103.276 28.0129 102.882 28.1359C102.487 28.259 102.13 28.4795 101.844 28.777C101.653 28.9907 101.426 29.172 101.176 29.3136C100.642 29.6411 99.9403 29.7793 99.3878 29.4847C98.0604 28.2453 95.958 28.2416 94.2859 28.6877C92.0748 29.8489 90.0789 31.4184 87.9533 32.736C87.0977 33.3471 86.1552 33.8043 85.1016 33.8862C85.5245 35.1085 85.632 36.3772 85.6443 37.6594C88.9555 37.8623 90.6411 34.2712 93.241 32.736C95.4411 31.3915 98.0079 32.4915 100.453 33.2249C102.53 33.7138 103.997 32.1248 105.708 31.2692C106.93 30.5359 108.642 31.8804 110.108 31.2692C111.697 30.5359 112.797 29.0691 114.264 27.969C114.715 27.6305 116.928 28.3431 117.414 28.2135C117.201 27.5657 117.266 28.4298 116.76 27.2699Z" fill="#1B5EC9"/>
        <path d="M83.0467 36.2159C83.5356 37.7022 85.517 38.2156 86.9911 37.6826C88.4652 37.1497 89.5493 35.9274 90.6115 34.7736C91.6737 33.6197 92.8654 32.4512 94.4006 32.1346C97.5456 31.4868 101.206 34.5731 103.717 32.571C104.431 32.0026 104.959 31.0529 105.868 30.9698C106.333 30.9282 106.779 31.1372 107.232 31.2534C109.54 31.8449 111.702 30.0311 113.443 28.4078C114.256 27.6476 115.473 26.8616 116.376 27.5131C116.799 27.8175 116.98 28.3479 117.138 28.8442C123.676 49.475 130.215 70.1053 136.756 90.7352C136.785 90.8269 132.652 91.5774 132.275 91.6263C130.725 91.8189 129.164 91.9213 127.602 91.9331C124.462 91.9636 121.328 91.6788 118.216 91.2816C115.038 90.877 111.881 90.3514 108.712 89.8943C105.575 89.4408 102.422 89.0485 99.2531 88.9164C96.1607 88.7942 93.0475 88.9164 90.0004 89.4885C89.3305 89.6107 88.4297 90.0214 87.7574 89.9774C87.0473 89.9334 87.0998 88.6622 86.9972 88.1134C86.6623 86.3166 86.3478 84.5165 86.0536 82.7133C85.4628 79.0904 84.9556 75.4544 84.5318 71.8055C84.1089 68.1753 83.7696 64.5369 83.5136 60.8904C83.2562 57.2235 83.0822 53.5566 82.9917 49.8897C82.9021 46.2366 82.8964 42.5825 82.9746 38.9269C82.9926 38.024 83.0166 37.1204 83.0467 36.2159Z" fill="white"/>
        <path d="M127.137 92.4244C124.528 92.4244 121.656 92.2129 118.153 91.7668C116.108 91.5052 114.039 91.1911 112.042 90.8867C110.928 90.7168 109.778 90.542 108.646 90.3783C105.851 89.9737 102.546 89.5422 99.235 89.4004C95.8419 89.2599 92.8534 89.4444 90.0922 89.9639C89.8783 90.0042 89.6253 90.0861 89.3589 90.1619C88.8149 90.3257 88.2514 90.4956 87.732 90.4638C86.7541 90.4039 86.6319 89.2574 86.5659 88.5729C86.5512 88.4287 86.5378 88.2942 86.5207 88.2062C86.1858 86.4131 85.868 84.5931 85.5746 82.7963C84.9855 79.182 84.4745 75.5041 84.0492 71.8653C83.6287 68.2473 83.2853 64.567 83.0298 60.9282C82.7743 57.2895 82.5971 53.5627 82.5067 49.9031C82.4162 46.2436 82.4113 42.5608 82.4895 38.9196C82.5079 38.0163 82.5335 37.102 82.5629 36.1999C82.5669 36.0855 82.611 35.976 82.6875 35.8908C82.7639 35.8055 82.868 35.7499 82.9813 35.7334C83.0946 35.7169 83.2102 35.7408 83.3077 35.8009C83.4053 35.8609 83.4786 35.9533 83.515 36.0618C83.5988 36.2941 83.7286 36.507 83.8965 36.6878C84.0646 36.8687 84.2674 37.0136 84.4929 37.1142C85.2282 37.4549 86.0672 37.4961 86.8324 37.2291C88.1231 36.7671 89.1315 35.667 90.1057 34.6036L90.2536 34.4423C91.3231 33.2762 92.6077 32.0038 94.3018 31.6554C95.7686 31.3535 97.2818 31.7777 98.7412 32.1981C100.585 32.7213 102.177 33.176 103.412 32.1884C103.619 32.0146 103.813 31.8272 103.994 31.6273C104.473 31.1262 105.016 30.5566 105.828 30.4833C106.267 30.4441 106.664 30.5688 107.017 30.6788C107.139 30.7167 107.248 30.7509 107.358 30.7803C109.414 31.3059 111.406 29.6472 113.113 28.0509C114.475 26.7773 115.737 26.446 116.666 27.1158C117.237 27.5277 117.451 28.2037 117.607 28.6975L137.221 90.5873C137.243 90.6561 137.249 90.7288 137.241 90.8004C137.231 90.8719 137.207 90.9406 137.167 91.0016C137.031 91.2168 137.009 91.2461 134.723 91.6849C133.745 91.8719 132.559 92.0821 132.339 92.1103C130.77 92.3063 129.191 92.4104 127.609 92.4219L127.137 92.4244ZM97.096 88.3822C97.8049 88.3822 98.531 88.3978 99.2741 88.4287C102.627 88.5668 105.962 89.002 108.782 89.4065C109.918 89.5703 111.07 89.7463 112.185 89.9162C114.181 90.2194 116.244 90.5274 118.278 90.7926C121.945 91.2608 124.909 91.4661 127.597 91.4404C129.141 91.4287 130.682 91.3275 132.213 91.1373C132.572 91.0909 135.105 90.6276 136.138 90.4039L116.666 28.9921C116.515 28.5215 116.369 28.1144 116.084 27.9091C115.351 27.3811 114.128 28.431 113.771 28.7647C112.572 29.8868 110.471 31.8535 108.12 31.8547C107.777 31.8548 107.436 31.8118 107.105 31.7263C106.971 31.6921 106.841 31.6518 106.715 31.6127C106.424 31.521 106.15 31.4354 105.907 31.4574C105.465 31.4978 105.109 31.8706 104.697 32.302C104.486 32.5342 104.258 32.7518 104.017 32.9535C102.389 34.2528 100.396 33.6869 98.4699 33.1381C97.1253 32.7555 95.7282 32.3595 94.4937 32.6125C93.0856 32.9022 91.9355 34.0511 90.9686 35.1035L90.8219 35.2637C89.7671 36.4151 88.6756 37.6068 87.155 38.1495C86.1414 38.5018 85.0303 38.4453 84.0577 37.9918C83.8579 37.8958 83.6686 37.779 83.493 37.6435C83.482 38.0762 83.471 38.5101 83.4625 38.9403C83.3855 42.5669 83.3904 46.2472 83.4796 49.8799C83.5688 53.5126 83.7436 57.2137 84.0003 60.8598C84.257 64.5059 84.5968 68.1483 85.016 71.7517C85.4377 75.3758 85.9486 79.039 86.5353 82.6387C86.8275 84.4281 87.1465 86.2408 87.4777 88.0278C87.5022 88.1598 87.5181 88.315 87.534 88.4788C87.5975 89.09 87.6782 89.4371 87.7784 89.4909C88.1341 89.5129 88.612 89.3686 89.0753 89.2305C89.3498 89.1417 89.6289 89.0673 89.9113 89.0081C92.2815 88.5759 94.6868 88.3664 97.096 88.3822Z" fill="black"/>
        <path d="M92.3435 36.6608C91.9548 37.4137 92.3545 38.724 93.1551 39.0003C93.9557 39.2765 95.0961 38.7949 95.4775 38.0371C95.8588 37.2793 95.5618 36.1254 94.8296 35.7147C93.7357 35.1158 92.9339 35.5253 92.3435 36.6608ZM107.86 33.1919C107.127 33.9253 107.386 35.3737 108.331 35.804C109.276 36.2342 110.54 35.4788 110.609 34.4423C110.679 33.4058 109.528 32.4866 108.531 32.7898L107.86 33.1919Z" fill="#1B5EC9"/>
        <path d="M93.4835 36.772C93.3729 36.7721 93.2656 36.7346 93.1789 36.6658C93.0924 36.597 93.0318 36.5009 93.0068 36.3931C92.4373 33.9253 92.3004 31.8058 92.5888 29.9149C92.9555 27.5302 94.025 25.4645 95.6067 24.0956C96.6798 23.1691 98.0366 22.5066 99.6403 22.1118C100.69 21.8563 101.532 21.8135 102.291 21.9749C104.403 22.4271 105.685 24.4085 106.467 25.8593C107.74 28.2239 108.676 30.755 109.247 33.3789C109.261 33.4416 109.262 33.5065 109.251 33.5697C109.24 33.633 109.217 33.6934 109.181 33.7474C109.147 33.8016 109.102 33.8483 109.049 33.885C108.997 33.9216 108.937 33.9477 108.874 33.9613C108.811 33.975 108.746 33.9763 108.684 33.965C108.62 33.9536 108.559 33.9299 108.505 33.8952C108.452 33.8606 108.405 33.8156 108.368 33.7628C108.332 33.7102 108.305 33.6506 108.291 33.5879C107.739 31.0525 106.833 28.6071 105.602 26.3226C104.502 24.2875 103.389 23.2106 102.083 22.9319C101.472 22.8012 100.769 22.8427 99.8664 23.0615C98.4155 23.4135 97.1957 24.0112 96.2423 24.8351C94.8354 26.0512 93.8796 27.9079 93.5532 30.0616C93.2843 31.8303 93.4163 33.8287 93.9578 36.1731C93.9743 36.2448 93.9745 36.3193 93.9583 36.391C93.942 36.4628 93.9098 36.53 93.8639 36.5876C93.8181 36.6451 93.7599 36.6916 93.6936 36.7236C93.6273 36.7555 93.5547 36.772 93.4811 36.772H93.4835Z" fill="black"/>
        <path d="M95.5373 29.8159C95.4302 29.8161 95.3262 29.7811 95.2409 29.7164C95.1557 29.6518 95.0941 29.5608 95.0655 29.4578C94.5643 27.6574 94.4446 26.1075 94.6988 24.719C94.9985 23.0021 95.9557 21.4696 97.3671 20.447C98.2997 19.7784 99.4792 19.2968 100.87 19.0169C101.777 18.8336 102.505 18.803 103.159 18.9192C105.005 19.2443 106.135 20.6866 106.815 21.7488C107.91 23.423 108.732 25.2618 109.245 27.1953C109.272 27.3189 109.25 27.4481 109.184 27.5558C109.118 27.6635 109.013 27.7413 108.891 27.773C108.767 27.8045 108.638 27.7875 108.528 27.7254C108.417 27.6633 108.336 27.5609 108.299 27.4398C107.812 25.6066 107.035 23.8631 105.996 22.2756C105.064 20.8394 104.108 20.0754 102.99 19.8811C102.459 19.787 101.848 19.8163 101.064 19.974C99.8104 20.227 98.758 20.6524 97.9379 21.2403C96.7327 22.1161 95.9163 23.4271 95.662 24.895C95.4334 26.1344 95.5471 27.54 96.0079 29.1938C96.0282 29.2664 96.0315 29.3428 96.0174 29.417C96.0033 29.491 95.9723 29.561 95.9267 29.6211C95.8811 29.6812 95.8223 29.73 95.7547 29.7636C95.6871 29.7972 95.6127 29.8147 95.5373 29.8147V29.8159ZM93.6829 62.2068C93.5314 62.2068 93.3798 62.2068 93.2295 62.1909C91.1076 62.0479 89.1384 60.8232 88.2107 59.0728C87.2977 57.3482 87.3148 55.126 88.2584 52.9748C89.6432 49.8164 91.4498 48.1137 93.6267 47.9133C96.4881 47.6505 100.254 48.6271 101.455 52.2451C102.344 54.9256 101.255 58.2209 98.8056 60.2609C97.3034 61.5077 95.4602 62.2068 93.6829 62.2068ZM89.0749 58.6157C89.8474 60.0739 91.5036 61.0945 93.2955 61.2155C94.9615 61.3292 96.7411 60.7071 98.1847 59.5043C100.332 57.7161 101.298 54.8596 100.531 52.5482C99.5121 49.4741 96.2278 48.6515 93.7221 48.8813C91.9253 49.0463 90.3901 50.5534 89.158 53.3623C88.3354 55.2373 88.3024 57.1514 89.0798 58.6096L89.0749 58.6157Z" fill="black"/>
        <path d="M101.763 52.7743C101.726 52.7738 101.691 52.7696 101.654 52.7621C101.528 52.733 101.418 52.655 101.35 52.5452C101.281 52.4353 101.259 52.3028 101.287 52.1766C101.41 51.6404 101.691 51.1533 102.093 50.7785C102.496 50.4038 103.001 50.1587 103.545 50.0752C104.089 49.9916 104.645 50.0734 105.141 50.31C105.637 50.5465 106.052 50.9269 106.329 51.4016C106.368 51.4571 106.394 51.52 106.407 51.5862C106.42 51.6523 106.419 51.7205 106.404 51.7863C106.389 51.8521 106.361 51.914 106.321 51.9684C106.282 52.0228 106.23 52.0683 106.173 52.1021C106.114 52.1359 106.049 52.1573 105.982 52.165C105.915 52.1726 105.848 52.1662 105.783 52.1464C105.718 52.1265 105.659 52.0935 105.608 52.0495C105.557 52.0055 105.515 51.9513 105.486 51.8906C105.307 51.5854 105.041 51.3409 104.721 51.189C104.402 51.0369 104.044 50.9845 103.694 51.0381C103.344 51.0919 103.019 51.2495 102.76 51.4904C102.501 51.7312 102.32 52.0445 102.241 52.3893C102.217 52.4984 102.156 52.5961 102.07 52.6661C101.983 52.7362 101.875 52.7743 101.763 52.7743Z" fill="black"/>
        <path d="M111.045 56.2419H110.929C108.818 56.2028 106.815 55.005 105.943 53.262C104.865 51.1046 105.526 48.6429 106.272 46.9561C106.87 45.603 107.633 44.5115 108.538 43.7268C110.168 42.3053 112.021 41.7247 113.897 42.0474C114.969 42.2469 115.967 42.7277 116.792 43.4407C117.616 44.1535 118.236 45.0728 118.588 46.1042C119.444 48.7187 118.515 51.8954 116.288 54.01C114.787 55.4315 112.882 56.2419 111.045 56.2419ZM112.879 42.936C111.588 42.936 110.35 43.4469 109.186 44.4626C108.388 45.1581 107.711 46.1299 107.172 47.3497C106.63 48.572 105.866 50.9115 106.822 52.8232C107.536 54.2496 109.196 55.2311 110.952 55.2678H111.05C112.639 55.2678 114.299 54.5552 115.619 53.3023C117.575 51.4432 118.401 48.6735 117.664 46.4085C117.368 45.5454 116.849 44.7763 116.157 44.1802C115.466 43.5842 114.629 43.1827 113.732 43.0167C113.449 42.9652 113.162 42.9382 112.874 42.936H112.879Z" fill="black"/>
        <path d="M90.2876 54.4671C89.7425 56.1136 90.1556 58.1658 91.5979 59.129C92.6063 59.8037 93.9374 59.8477 95.0998 59.503C96.9565 58.9518 98.5296 57.3616 98.8254 55.4474C98.9273 54.754 98.8702 54.0466 98.6585 53.3785C98.4467 52.7103 98.0859 52.0992 97.6031 51.5911C96.6876 50.6426 94.6916 49.6354 93.4583 50.535C92.1211 51.508 90.8144 52.8757 90.2876 54.4671Z" fill="#FACBDF"/>
        <path d="M92.5036 57.0218C92.418 57.0213 92.3342 56.9984 92.2602 56.9552C92.1863 56.9121 92.125 56.8503 92.0824 56.7762C92.0398 56.7018 92.0175 56.6177 92.0176 56.5322C92.0178 56.4466 92.0403 56.3625 92.0831 56.2885L94.3737 52.415C94.4397 52.3033 94.5474 52.2224 94.6729 52.1901C94.7985 52.1578 94.9319 52.1766 95.0435 52.2427C95.1552 52.3087 95.2361 52.4162 95.2684 52.5419C95.3008 52.6675 95.2818 52.8008 95.2158 52.9125L92.924 56.7859C92.8804 56.8583 92.8187 56.9179 92.745 56.9594C92.6713 57.0007 92.5881 57.0222 92.5036 57.0218ZM95.0571 56.5916C94.9947 56.5916 94.933 56.58 94.8749 56.5574C94.7547 56.509 94.6586 56.415 94.6078 56.2957C94.5569 56.1765 94.5553 56.042 94.6036 55.9218C94.9196 55.135 95.3997 54.4246 96.0117 53.8378C96.0579 53.7924 96.1126 53.7567 96.1728 53.7326C96.2328 53.7086 96.2971 53.6967 96.3619 53.6978C96.4266 53.6988 96.4905 53.7126 96.5499 53.7385C96.6091 53.7644 96.6628 53.8018 96.7075 53.8486C96.7523 53.8954 96.7872 53.9506 96.8106 54.0111C96.8338 54.0715 96.8448 54.1359 96.843 54.2007C96.8411 54.2653 96.8265 54.329 96.7997 54.388C96.773 54.4469 96.7349 54.5001 96.6876 54.5442C96.1764 55.0345 95.7752 55.6278 95.5105 56.2848C95.4742 56.3754 95.4117 56.453 95.3307 56.5076C95.2499 56.5623 95.1546 56.5916 95.0571 56.5916Z" fill="black"/>
        <path d="M74.9479 90.4419C68.8072 70.7594 63.9747 50.6923 60.482 30.3721C60.4245 30.0359 60.3683 29.6815 60.4918 29.3637C60.6336 28.997 60.9807 28.7525 61.3193 28.5533C64.1978 26.8066 67.5224 25.9669 70.7896 25.1516L82.9772 22.1057C83.4416 21.9908 83.9293 21.8747 84.3913 21.9981C85.4266 22.2756 85.786 23.5321 85.9693 24.5869C89.8636 47.0907 92.5869 69.812 97.7095 92.0737C90.4955 91.8821 83.2811 91.9902 76.0663 92.3976L73.3369 84.4367L74.9479 90.4419Z" fill="white"/>
        <path d="M76.0667 92.8865C75.9649 92.8864 75.8656 92.8546 75.7829 92.7954C75.7 92.7363 75.6377 92.6526 75.6046 92.5565L75.0424 90.9186C74.9235 90.9431 74.7996 90.9226 74.695 90.8609C74.5904 90.7993 74.5125 90.7009 74.4765 90.5849C68.3359 70.8813 63.5002 50.7946 60.0008 30.4552C59.9421 30.1117 59.8602 29.6411 60.0362 29.1864C60.2257 28.6975 60.6474 28.3919 61.0654 28.1353C64.0332 26.3348 67.4079 25.4914 70.6715 24.6774L82.859 21.6265C83.3332 21.5043 83.9236 21.3613 84.5189 21.5214C85.8499 21.8783 86.2594 23.3915 86.4513 24.4989C87.7298 31.8938 88.9008 39.4244 90.0339 46.7081C92.3562 61.6201 94.7483 77.0272 98.1854 91.9636C98.2021 92.0364 98.202 92.1119 98.1851 92.1846C98.1681 92.2572 98.1348 92.3251 98.0876 92.3829C98.0404 92.4407 97.9806 92.4869 97.9128 92.5181C97.8451 92.5492 97.771 92.5644 97.6964 92.5626C90.5265 92.3743 83.2599 92.4843 76.0985 92.8865H76.0667ZM73.4864 83.971C73.5588 83.9943 73.6248 84.0341 73.6792 84.0874C73.7334 84.1407 73.7746 84.2058 73.7993 84.2778L76.4089 91.8891C83.2672 91.5126 90.2209 91.4002 97.0877 91.5676C93.7166 76.7888 91.3515 61.5761 89.0621 46.8572C87.9303 39.5772 86.7593 32.0478 85.482 24.67C85.251 23.3255 84.8623 22.6312 84.2597 22.4699C83.9089 22.3758 83.4738 22.4846 83.09 22.5811L70.9086 25.6259C67.7159 26.4228 64.4145 27.2479 61.5727 28.9713C61.3172 29.1265 61.0361 29.3111 60.9481 29.5397C60.876 29.7267 60.9114 29.9785 60.964 30.2889C64.0834 48.4135 68.2665 66.3389 73.4913 83.9723L73.4864 83.971Z" fill="black"/>
        <path d="M71.055 35.5803C70.5428 36.7293 70.566 38.0359 70.6052 39.2949C70.7494 44.2391 70.8973 49.2236 72.0915 54.0174C73.2857 58.8113 75.6288 63.4731 79.4705 66.5851C80.089 67.085 80.815 67.5629 81.6071 67.5116C82.8294 67.4309 83.5908 66.1744 84.0431 65.0377C85.9425 60.2499 86.1088 54.8865 85.1016 49.836C84.0944 44.7854 81.9627 40.016 79.3984 35.5497C78.6735 34.2883 77.9316 33.8385 76.5785 33.1736C75.333 32.5624 73.6071 32.8631 72.6305 33.6381C71.9567 34.1492 71.4162 34.8155 71.055 35.5803Z" fill="#FF8D55"/>
        <path d="M75.0014 53.4722C74.8872 53.4721 74.7767 53.4321 74.6889 53.3591C74.6012 53.2862 74.5418 53.1847 74.521 53.0725C73.8597 49.5095 73.3708 45.8732 73.0677 42.2625C72.9125 40.4107 72.8086 38.6091 73.2449 36.9137C73.3217 36.5965 73.4807 36.3053 73.7061 36.0691C73.9314 35.8331 74.2151 35.6606 74.5283 35.5692C74.9612 35.4445 75.4179 35.4278 75.8587 35.5202C76.2994 35.6127 76.711 35.8116 77.0573 36.0997C78.0156 36.9211 78.3737 38.1703 78.6621 39.1738L81.7252 49.8481C81.7753 50.0204 81.8915 50.4238 81.6531 50.7709C81.5204 50.9481 81.3352 51.0789 81.1239 51.1449L75.1774 53.4343C75.1215 53.4578 75.0619 53.4706 75.0014 53.4722ZM75.2703 36.4419C75.1187 36.4406 74.9679 36.4625 74.8229 36.5067C74.6688 36.5479 74.5287 36.63 74.4176 36.7446C74.3065 36.8591 74.2286 37.0016 74.1922 37.157C73.7937 38.7044 73.894 40.4168 74.0419 42.1806C74.3267 45.5627 74.7752 48.9692 75.3766 52.3147L80.7718 50.2368L80.8109 50.2221C80.8109 50.1977 80.7975 50.1647 80.7853 50.1219L77.7222 39.4488C77.4704 38.5699 77.1563 37.4772 76.4205 36.8477C76.095 36.5843 75.6889 36.4411 75.2703 36.4419Z" fill="white"/>
        <path d="M76.8745 57.2198C76.7619 57.2193 76.6531 57.18 76.5661 57.1085C76.4792 57.0371 76.4197 56.9379 76.3974 56.8275C76.3751 56.7173 76.3916 56.6027 76.444 56.5031C76.4964 56.4035 76.5815 56.3252 76.685 56.281C78.9151 55.3442 81.2257 54.6122 83.5886 54.0944C83.6519 54.0786 83.7178 54.0758 83.7823 54.0859C83.8468 54.0961 83.9087 54.1189 83.9642 54.1534C84.0197 54.1879 84.0677 54.2331 84.1055 54.2864C84.1431 54.3397 84.1699 54.3999 84.1838 54.4637C84.1979 54.5275 84.1991 54.5934 84.1872 54.6576C84.1754 54.7219 84.1507 54.783 84.1149 54.8376C84.0789 54.8921 84.0325 54.939 83.9782 54.9753C83.924 55.0116 83.863 55.0366 83.7988 55.049C81.4938 55.5556 79.2393 56.2694 77.0627 57.1819C77.0031 57.2068 76.9391 57.2196 76.8745 57.2198Z" fill="black"/>
        <path d="M108.406 41.1833C108.351 40.3277 108.305 39.4305 108.672 38.6629C109.33 37.2793 111.015 36.8588 112.49 36.6144C130.277 33.6738 148.428 33.7014 166.206 36.6963C166.678 36.7757 167.184 36.8808 167.501 37.2549C167.868 37.6998 167.822 38.3549 167.754 38.938C165.792 55.6761 163.592 72.3809 161.153 89.0522C161.086 89.513 161.007 90.0007 160.717 90.3576C160.33 90.8318 159.679 90.9504 159.084 91.031C147.376 92.62 135.494 91.6043 123.744 90.3857C120.557 90.0557 116.642 89.8014 113.945 87.7993C113.137 87.2004 112.801 86.3668 112.621 85.3828C112.295 83.6019 112.15 81.7709 111.939 79.9729C111.45 75.8383 110.998 71.6996 110.582 67.5568C110.167 63.4141 109.784 59.2676 109.434 55.1175C109.086 50.9511 108.773 46.7811 108.494 42.6073C108.469 42.1346 108.439 41.66 108.406 41.1833Z" fill="white"/>
        <path d="M146.135 92.3425C138.724 92.3425 131.263 91.6605 123.698 90.8758L122.982 90.8036C119.833 90.4871 116.259 90.1302 113.658 88.1965C112.617 87.4228 112.302 86.3361 112.144 85.4744C111.899 84.1653 111.76 82.8208 111.622 81.5203C111.568 81.0228 111.516 80.5266 111.457 80.0328C110.968 75.9124 110.516 71.7321 110.1 67.6093C109.685 63.4865 109.298 59.2916 108.954 55.1615C108.607 51.013 108.29 46.8009 108.012 42.6439C107.981 42.1688 107.95 41.693 107.92 41.2163C107.866 40.39 107.797 39.3596 108.231 38.4539C108.973 36.8967 110.76 36.4065 112.412 36.1315C130.251 33.1695 148.46 33.1971 166.289 36.2134C166.869 36.3112 167.467 36.4481 167.878 36.9468C168.367 37.5347 168.321 38.3145 168.245 38.999C166.289 55.6614 164.072 72.5279 161.644 89.1291C161.578 89.5801 161.489 90.1998 161.104 90.6716C160.615 91.2828 159.84 91.4282 159.157 91.5211C154.84 92.0884 150.49 92.3628 146.135 92.3425ZM108.895 41.1539C108.927 41.6282 108.957 42.1033 108.988 42.5791C109.265 46.7349 109.581 50.936 109.928 55.0808C110.273 59.2048 110.661 63.3863 111.073 67.5103C111.485 71.6344 111.943 75.8024 112.429 79.9191C112.487 80.4166 112.54 80.9153 112.594 81.4164C112.731 82.6986 112.872 84.026 113.106 85.2984C113.295 86.3288 113.634 86.9607 114.241 87.4105C116.63 89.1841 120.057 89.5276 123.08 89.8307L123.8 89.9028C135.748 91.1422 147.432 92.1249 159.023 90.5494C159.542 90.4797 160.073 90.3832 160.343 90.0519C160.541 89.8075 160.607 89.4408 160.674 88.9849C163.098 72.3922 165.319 55.5355 167.274 38.8829C167.331 38.394 167.371 37.8586 167.13 37.5677C166.933 37.3318 166.546 37.2499 166.131 37.1802C148.408 34.1817 130.308 34.1541 112.575 37.0983C111.109 37.3428 109.666 37.7266 109.119 38.8743C108.819 39.5014 108.841 40.2458 108.9 41.1539H108.895Z" fill="black"/>
        <path d="M128.483 56.9973C124.797 60.5872 128.232 69.6139 133.435 66.8442C133.759 66.6778 134.115 66.582 134.479 66.5629C134.843 66.544 135.206 66.6024 135.546 66.7342C137.084 67.3074 138.498 66.7818 139.58 66.1132C141.318 65.0388 143.189 62.0796 143.193 59.3209C143.193 55.1468 139.688 54.3009 137.213 55.335C136.123 55.8313 135.685 56.6331 134.97 56.7113C134.255 56.7895 134.019 56.0158 132.885 55.8068C131.371 55.6064 129.652 55.9633 128.483 56.9973Z" fill="black"/>
        <path d="M134.69 57.8664C134.633 57.8663 134.575 57.8559 134.522 57.8359C134.401 57.7913 134.302 57.7002 134.247 57.5826C134.192 57.465 134.187 57.3306 134.231 57.2088C135.227 54.4831 137.676 50.8627 140.697 49.3593C140.754 49.3307 140.817 49.3135 140.881 49.309C140.945 49.3046 141.01 49.3128 141.071 49.3331C141.131 49.3535 141.188 49.3857 141.236 49.4278C141.285 49.4699 141.324 49.5212 141.353 49.5787C141.381 49.6361 141.398 49.6987 141.403 49.7627C141.407 49.8268 141.4 49.8911 141.379 49.9519C141.358 50.0128 141.326 50.0692 141.285 50.1176C141.242 50.1661 141.191 50.2058 141.133 50.2344C138.476 51.5569 136.111 54.9134 135.144 57.545C135.11 57.6382 135.048 57.719 134.968 57.7764C134.886 57.8338 134.789 57.8652 134.69 57.8664Z" fill="black"/>
        <path d="M136.177 50.1843C135.688 49.006 134.419 48.3851 133.255 47.868L131.287 46.9941C131.145 46.9136 130.982 46.8775 130.82 46.8902C130.433 46.9623 130.367 47.4818 130.403 47.868C130.542 49.4423 130.839 51.057 131.722 52.3673C132.361 53.3158 133.366 54.0785 134.501 54.3022C134.95 54.3914 135.34 54.4085 135.593 53.9856C135.868 53.5248 136.06 52.9234 136.204 52.4113C136.41 51.6877 136.473 50.8993 136.177 50.1843Z" fill="#1B5EC9"/>
        <path d="M135.822 55.0209C135.741 55.0209 135.662 55.0007 135.59 54.9623C135.519 54.9239 135.459 54.8684 135.414 54.8008C134.741 53.7802 133.547 51.8673 133.107 50.5619C133.086 50.501 133.079 50.4366 133.083 50.3726C133.087 50.3085 133.105 50.246 133.133 50.1885C133.162 50.1309 133.201 50.0797 133.25 50.0376C133.299 49.9954 133.355 49.9632 133.416 49.9428C133.476 49.9224 133.541 49.9142 133.606 49.9187C133.669 49.9231 133.732 49.9403 133.789 49.969C133.847 49.9976 133.898 50.0373 133.941 50.0857C133.982 50.1342 134.014 50.1906 134.035 50.2515C134.438 51.4554 135.583 53.2815 136.235 54.2618C136.284 54.3355 136.312 54.4211 136.316 54.5094C136.32 54.5978 136.3 54.6856 136.258 54.7636C136.217 54.8414 136.154 54.9065 136.078 54.9518C136.003 54.9971 135.915 55.021 135.827 55.0209H135.822ZM158.365 39.3865H158.313L149.037 38.4245C148.908 38.4111 148.789 38.3466 148.707 38.2454C148.624 38.1442 148.586 38.0145 148.6 37.8849C148.613 37.7552 148.677 37.6361 148.778 37.554C148.88 37.4718 149.009 37.4332 149.139 37.4467L158.418 38.4062C158.548 38.4126 158.67 38.4703 158.757 38.5667C158.845 38.663 158.89 38.7899 158.883 38.9195C158.877 39.0492 158.819 39.171 158.723 39.2581C158.626 39.3451 158.499 39.3905 158.369 39.384L158.365 39.3865ZM143.644 38.4147H141.724C141.595 38.4147 141.47 38.3633 141.378 38.2715C141.287 38.1798 141.235 38.0555 141.235 37.9258C141.235 37.7961 141.287 37.6718 141.378 37.5801C141.47 37.4883 141.595 37.4369 141.724 37.4369H143.644C143.774 37.4369 143.899 37.4883 143.99 37.5801C144.082 37.6718 144.133 37.7961 144.133 37.9258C144.133 38.0555 144.082 38.1798 143.99 38.2715C143.899 38.3633 143.774 38.4147 143.644 38.4147ZM130.825 66.3882C130.72 66.3882 130.616 66.3539 130.532 66.2904C129.355 65.4067 128.576 63.984 128.399 62.3901C128.222 60.7962 128.663 59.2366 129.614 58.112C129.655 58.0608 129.705 58.0183 129.763 57.987C129.82 57.9557 129.884 57.9363 129.949 57.9299C130.013 57.9236 130.079 57.9303 130.142 57.9498C130.205 57.9693 130.263 58.0012 130.313 58.0435C130.363 58.0859 130.403 58.1378 130.433 58.1963C130.462 58.2547 130.48 58.3185 130.484 58.3838C130.489 58.4492 130.48 58.5147 130.458 58.5765C130.438 58.6384 130.403 58.6953 130.359 58.744C129.582 59.6619 129.221 60.9502 129.37 62.2789C129.52 63.6075 130.156 64.7846 131.118 65.5069C131.2 65.5686 131.261 65.6544 131.292 65.7523C131.323 65.8503 131.321 65.9553 131.289 66.0527C131.256 66.15 131.194 66.2347 131.111 66.2947C131.028 66.3547 130.928 66.387 130.825 66.387V66.3882ZM68.2719 89.7573C68.1673 89.7572 68.0654 89.7235 67.9815 89.6613C67.8974 89.599 67.8355 89.5114 67.805 89.4114L56.9828 54.2948C56.665 53.2644 56.2237 52.1778 55.362 51.9419C54.9525 51.8294 54.4844 51.9199 53.96 52.0409C52.1547 52.4577 50.3518 52.9637 48.5917 53.548C48.6401 53.5897 48.6968 53.621 48.7579 53.6397C48.8191 53.659 48.876 53.6903 48.9251 53.7316C48.9743 53.7728 49.0148 53.8234 49.0444 53.8803C49.0741 53.9374 49.0922 53.9996 49.0977 54.0636C49.1033 54.1276 49.0962 54.192 49.0769 54.2533C49.0576 54.3145 49.0263 54.3713 48.985 54.4205C48.9437 54.4697 48.8931 54.5102 48.8361 54.5399C48.7792 54.5695 48.717 54.5876 48.6529 54.5932C48.589 54.5987 48.5246 54.5916 48.4633 54.5723C48.1895 54.4832 47.9467 54.3183 47.7627 54.0968C47.5789 53.8752 47.4615 53.6062 47.4244 53.3206C47.4111 53.2097 47.4361 53.0973 47.4955 53.0026C47.5549 52.9079 47.645 52.8364 47.7507 52.7999C49.7163 52.1267 51.7154 51.5555 53.74 51.0887C54.3719 50.942 54.9916 50.8259 55.6211 50.9983C56.9387 51.365 57.5206 52.7229 57.9166 54.0076L68.74 89.1242C68.7626 89.1974 68.7676 89.2749 68.7548 89.3504C68.742 89.426 68.7115 89.4975 68.666 89.5591C68.6204 89.6207 68.561 89.6708 68.4925 89.7051C68.4241 89.7396 68.3485 89.7575 68.2719 89.7573ZM78.3643 59.3466C78.2529 59.3466 78.1449 59.3086 78.058 59.2388C77.9712 59.169 77.9108 59.0716 77.8868 58.9628C77.8629 58.854 77.8768 58.7403 77.9263 58.6404C77.9757 58.5407 78.0578 58.4608 78.1589 58.414C79.6253 57.7371 81.1621 57.2245 82.7413 56.8861C82.8046 56.8712 82.8703 56.869 82.9343 56.8797C82.9985 56.8905 83.0599 56.9139 83.1149 56.9488C83.1697 56.9835 83.2173 57.0288 83.2544 57.0821C83.2916 57.1354 83.3179 57.1957 83.3316 57.2593C83.3451 57.3228 83.346 57.3885 83.334 57.4524C83.3219 57.5163 83.2973 57.5772 83.2614 57.6314C83.2256 57.6857 83.1794 57.7323 83.1252 57.7683C83.0712 57.8045 83.0105 57.8296 82.9467 57.8419C81.438 58.1657 79.9696 58.6552 78.5684 59.3013C78.5045 59.3309 78.4348 59.3464 78.3643 59.3466ZM80.09 61.5027C79.9897 61.5026 79.8918 61.4715 79.8096 61.4138C79.7275 61.3563 79.665 61.2746 79.6308 61.1803C79.5967 61.0859 79.5924 60.9832 79.6186 60.8863C79.6448 60.7894 79.7001 60.7029 79.7771 60.6385C80.6931 59.8757 81.7984 59.3748 82.9759 59.1889C83.1041 59.1688 83.235 59.2005 83.3399 59.2769C83.4448 59.3533 83.515 59.4683 83.5351 59.5965C83.5552 59.7247 83.5236 59.8557 83.4471 59.9605C83.3707 60.0654 83.2557 60.1357 83.1274 60.1557C82.1245 60.3137 81.183 60.7404 80.4029 61.3903C80.3151 61.4631 80.2043 61.5029 80.09 61.5027Z" fill="black"/>
        <path d="M175.485 65.8957C175.315 62.0247 174.753 58.1809 173.806 54.4232C173.692 53.9661 173.569 53.5105 173.44 53.0567C172.403 49.3421 170.786 45.4919 167.77 43.2013L166.921 49.9398C167.333 51.7115 167.999 53.4143 168.899 54.9952C168.169 54.1852 167.394 53.4171 166.577 52.6949L166.561 52.8171L166.577 52.6949C163.161 49.6782 158.958 47.5026 154.476 47.7067C153.21 47.7629 151.621 48.3496 151.821 49.7528C151.863 50.0075 151.955 50.2514 152.094 50.4698C152.23 50.6881 152.411 50.8766 152.623 51.024C156.29 53.658 160.779 55.4683 163.924 58.6242C163.993 58.6954 164.034 58.789 164.038 58.8878C164.043 58.9864 164.012 59.0836 163.951 59.1611C163.889 59.2386 163.802 59.2911 163.704 59.3091C163.608 59.3271 163.507 59.3091 163.422 59.2586C158.976 56.5696 154.031 54.5039 148.934 55.0735C147.698 55.2116 146.145 55.9107 146.527 57.2602C146.658 57.6888 146.949 58.0506 147.339 58.2698C152.182 61.0811 158.31 61.7729 162.73 65.012C162.809 65.0704 162.864 65.1553 162.886 65.2513C162.907 65.3472 162.894 65.4476 162.847 65.5341C162.801 65.6207 162.724 65.6874 162.632 65.7221C162.541 65.7568 162.439 65.7573 162.346 65.7233C158.552 64.3574 154.616 63.4254 150.612 62.9451C148.925 62.7434 147.031 62.6786 145.793 63.9168C145.576 64.1263 145.425 64.3949 145.359 64.6893C145.163 65.6427 146.027 66.2367 146.808 66.6107C151.71 68.9588 157.632 69.0553 162.284 71.6698C162.368 71.7179 162.433 71.7944 162.467 71.8857C162.5 71.977 162.5 72.0771 162.466 72.1683C162.432 72.2593 162.367 72.3355 162.283 72.383C162.197 72.4306 162.098 72.4463 162.003 72.4276C156.524 71.3031 150.858 69.9684 145.541 71.242C143.38 71.759 143.666 73.5216 145.071 74.1841C147.301 75.234 149.941 75.6508 152.415 76.0518C156.194 76.6727 160.391 77.7776 162.305 81.095C163.126 82.5189 163.438 84.2411 164.627 85.4414C165.7 86.5293 167.272 87.061 168.783 86.973C170.868 86.8507 172.974 86.0355 173.811 83.9967C174.667 81.9188 174.581 79.4571 174.874 77.2569C175.378 73.4788 175.655 69.7117 175.485 65.8957Z" fill="#FBD2B5"/>
        <path d="M156.754 51.6314C156.657 51.6315 156.562 51.6027 156.481 51.5486C156.401 51.4946 156.338 51.4178 156.302 51.328C156.265 51.2382 156.255 51.1395 156.275 51.0444C156.294 50.9493 156.342 50.8622 156.411 50.7941C156.637 50.5717 156.64 50.2209 156.568 49.9678C156.496 49.7148 156.309 49.419 156.001 49.3481C155.939 49.3337 155.88 49.3072 155.827 49.27C155.775 49.2327 155.73 49.1856 155.697 49.1312C155.662 49.0768 155.639 49.0162 155.628 48.9528C155.617 48.8894 155.62 48.8246 155.634 48.762C155.648 48.6995 155.675 48.6403 155.713 48.588C155.749 48.5355 155.797 48.4911 155.851 48.457C155.906 48.4229 155.966 48.3999 156.029 48.3891C156.093 48.3785 156.157 48.3803 156.22 48.3947C156.831 48.5341 157.32 49.0352 157.509 49.7014C157.699 50.3675 157.54 51.0532 157.097 51.4896C157.006 51.5802 156.882 51.6311 156.754 51.6314ZM151.436 58.475C151.332 58.4748 151.23 58.4414 151.147 58.3798C151.063 58.3181 151.002 58.2314 150.97 58.1322C150.94 58.033 150.941 57.9266 150.975 57.8282C151.008 57.7298 151.071 57.6447 151.157 57.5852C151.217 57.5302 151.263 57.4633 151.295 57.389C151.327 57.3147 151.342 57.2345 151.34 57.1538C151.339 57.0731 151.321 56.9936 151.287 56.9205C151.252 56.8474 151.202 56.7824 151.141 56.7296C151.039 56.657 150.968 56.5476 150.943 56.424C150.92 56.3006 150.944 56.1725 151.012 56.0665C151.08 55.9605 151.185 55.8849 151.307 55.8552C151.43 55.8255 151.559 55.844 151.668 55.907C151.866 56.0466 152.027 56.2305 152.141 56.4443C152.255 56.658 152.316 56.8953 152.319 57.1371C152.324 57.3789 152.272 57.6183 152.167 57.8361C152.062 58.0539 151.906 58.2439 151.714 58.3907C151.633 58.4464 151.535 58.4759 151.436 58.475ZM150.825 66.607C150.734 66.607 150.645 66.5816 150.568 66.5336C150.491 66.4857 150.427 66.4173 150.387 66.3359C150.347 66.2545 150.33 66.1634 150.338 66.0729C150.347 65.9824 150.38 65.8961 150.435 65.8235C150.605 65.5916 150.705 65.3172 150.727 65.0311C150.749 64.7449 150.69 64.4585 150.557 64.2039C150.507 64.0917 150.501 63.9647 150.541 63.8482C150.58 63.7318 150.662 63.6345 150.77 63.5756C150.877 63.5166 151.003 63.5006 151.123 63.5306C151.241 63.5604 151.345 63.6342 151.413 63.737C151.636 64.1563 151.735 64.6302 151.7 65.1037C151.664 65.5772 151.496 66.031 151.213 66.4126C151.168 66.4728 151.109 66.5217 151.042 66.5554C150.975 66.5891 150.9 66.6067 150.825 66.607ZM148.027 73.8356C147.941 73.8355 147.857 73.8129 147.782 73.77C147.709 73.727 147.647 73.6653 147.604 73.5909C147.561 73.5166 147.539 73.4324 147.539 73.3466C147.539 73.2608 147.561 73.1766 147.604 73.1023C147.764 72.8198 147.814 72.4878 147.743 72.1709C147.715 72.0442 147.737 71.9115 147.807 71.8016C147.876 71.6919 147.986 71.6141 148.112 71.5854C148.239 71.5567 148.371 71.5795 148.481 71.6487C148.591 71.7179 148.67 71.8279 148.698 71.9545C148.821 72.5108 148.734 73.0928 148.453 73.5887C148.411 73.664 148.348 73.7265 148.274 73.7699C148.199 73.8133 148.114 73.836 148.027 73.8356ZM167.388 74.6497C167.302 74.6498 167.218 74.6273 167.143 74.5844C167.069 74.5416 167.008 74.4799 166.964 74.4056C166.921 74.3312 166.899 74.2468 166.899 74.1609C166.899 74.0751 166.921 73.9907 166.964 73.9163L167.2 73.5081C167.297 73.2962 167.365 73.0721 167.4 72.8419C167.409 72.7768 167.43 72.7138 167.461 72.6569C167.494 72.6 167.538 72.5503 167.591 72.5105C167.643 72.4709 167.703 72.4422 167.767 72.4262C167.83 72.4102 167.896 72.4071 167.961 72.4172C168.026 72.4273 168.088 72.4504 168.143 72.485C168.2 72.5196 168.247 72.5652 168.285 72.6188C168.323 72.6725 168.35 72.7331 168.363 72.7973C168.378 72.8615 168.378 72.9278 168.366 72.9923C168.356 73.0619 168.343 73.1304 168.328 73.2C168.347 73.2637 168.352 73.3306 168.345 73.3966C168.338 73.4626 168.316 73.5263 168.283 73.5838L168.066 73.9615C167.987 74.1274 167.895 74.2868 167.79 74.4382C167.746 74.5034 167.685 74.5567 167.615 74.5935C167.546 74.6304 167.467 74.6496 167.388 74.6497ZM168.717 68.4966C168.587 68.4966 168.462 68.4452 168.371 68.3534C168.279 68.2617 168.228 68.1374 168.228 68.0077V66.7292C168.228 66.5995 168.279 66.4752 168.371 66.3835C168.462 66.2917 168.587 66.2403 168.717 66.2403C168.846 66.2403 168.971 66.2917 169.063 66.3835C169.154 66.4752 169.206 66.5995 169.206 66.7292V68.009C169.206 68.1384 169.154 68.2625 169.063 68.3539C168.971 68.4453 168.846 68.4966 168.717 68.4966ZM169.572 63.3764C169.443 63.3764 169.318 63.325 169.226 63.2332C169.135 63.1415 169.083 63.0172 169.083 62.8875V61.6078C169.083 61.4781 169.135 61.3538 169.226 61.2621C169.318 61.1703 169.443 61.1189 169.572 61.1189C169.702 61.1189 169.826 61.1703 169.918 61.2621C170.01 61.3538 170.061 61.4781 170.061 61.6078V62.8875C170.061 63.0172 170.01 63.1415 169.918 63.2332C169.826 63.325 169.702 63.3764 169.572 63.3764Z" fill="black"/>
        <path d="M69.2108 174.126H69.157C64.527 174.071 60.3712 173.356 55.262 171.733C54.3037 171.429 53.3209 171.053 52.3712 170.689C50.7651 170.078 49.1052 169.44 47.4918 169.12C46.8306 168.989 46.1326 168.875 45.4579 168.768C43.4423 168.444 41.3571 168.108 39.5689 167.196L27.9901 161.296C26.3815 160.476 24.3782 159.455 23.316 157.735C22.2807 156.057 22.2501 153.765 23.2365 151.605C24.1007 149.711 25.5357 148.144 26.923 146.628L34.1101 138.782C34.4035 138.462 34.687 138.131 34.9877 137.78C35.8238 136.802 36.6879 135.799 37.7574 135.038C38.7084 134.361 39.7131 134.168 40.9293 134.427C43.1588 134.909 45.4127 135.475 47.592 136.016C48.5882 136.261 49.6186 136.526 50.6307 136.772C54.2291 137.648 57.8667 138.578 61.4431 139.534C65.0196 140.49 68.6645 141.509 72.2287 142.549L73.5524 142.937C74.2308 143.137 75.0754 143.385 75.6511 143.998C76.2879 144.676 76.3979 145.567 76.4566 146.42C77.0162 154.598 76.1113 162.809 73.7847 170.668C73.4958 171.661 72.8948 172.532 72.0707 173.156C71.2468 173.778 70.2438 174.119 69.2108 174.126ZM39.9441 135.3C39.3597 135.299 38.7909 135.487 38.3234 135.838C37.3455 136.528 36.5278 137.489 35.7309 138.419C35.4375 138.76 35.1344 139.114 34.8313 139.445L27.6441 147.291C26.3082 148.757 24.9258 150.26 24.1252 152.014C23.2757 153.876 23.2842 155.824 24.1484 157.223C25.0663 158.711 26.934 159.668 28.435 160.428L40.0089 166.326C41.6602 167.167 43.6685 167.49 45.6095 167.802C46.294 167.912 47.0004 168.026 47.6788 168.16C49.3729 168.496 51.0731 169.147 52.7171 169.776C53.6534 170.134 54.6227 170.509 55.5541 170.802C60.5655 172.391 64.637 173.095 69.1644 173.148H69.2071C70.0278 173.142 70.8247 172.872 71.4795 172.377C72.1344 171.882 72.6122 171.19 72.8423 170.402C75.1365 162.654 76.029 154.559 75.4775 146.497C75.4299 145.791 75.3553 145.121 74.9348 144.677C74.54 144.258 73.8348 144.052 73.2725 143.884L71.9512 143.498C68.3931 142.46 64.7714 141.448 61.1864 140.489C57.6014 139.529 53.9859 138.606 50.396 137.731C49.3803 137.487 48.3486 137.225 47.35 136.975C45.178 136.429 42.9326 135.865 40.7191 135.386C40.4646 135.329 40.2047 135.301 39.9441 135.3Z" fill="#1B5EC9"/>
        <path d="M70.0288 169.13H70.0153C68.9226 169.099 67.8897 168.763 66.8911 168.433L63.168 167.211C62.9517 167.14 62.3772 166.951 62.2256 166.366C62.1726 166.109 62.1877 165.844 62.2696 165.595C63.575 160.637 65.1237 155.528 67.5915 151.739C67.7443 151.505 67.8971 151.257 68.0609 150.993C69.1511 149.233 70.5055 147.04 72.4611 148.008C72.5187 148.036 72.57 148.077 72.6122 148.124C72.6545 148.173 72.6868 148.229 72.7073 148.291C72.7277 148.352 72.736 148.415 72.7316 148.48C72.7272 148.544 72.7104 148.607 72.6818 148.665C72.6532 148.722 72.6135 148.773 72.5651 148.815C72.5167 148.858 72.4604 148.89 72.3995 148.91C72.3387 148.931 72.2744 148.94 72.2102 148.935C72.1461 148.93 72.0836 148.913 72.026 148.885C70.954 148.353 70.0508 149.636 68.892 151.509C68.7258 151.777 68.5693 152.03 68.4104 152.273C66.0184 155.946 64.4991 160.966 63.2144 165.84C63.1852 165.93 63.1708 166.024 63.1717 166.118C63.1717 166.139 63.2169 166.195 63.4724 166.278L67.1955 167.5C68.1281 167.806 69.0925 168.121 70.0434 168.149C70.1731 168.152 70.2967 168.204 70.387 168.297C70.4773 168.391 70.527 168.516 70.525 168.645C70.5231 168.775 70.4696 168.898 70.3766 168.989C70.2835 169.079 70.1584 169.13 70.0288 169.127V169.13ZM42.5833 163.671C41.9195 163.674 41.2703 163.476 40.7217 163.102C38.3395 161.486 39.6217 157.345 40.3966 154.871L40.4333 154.749C42.2836 148.826 45.4354 143.392 49.658 138.845C49.7017 138.798 49.7544 138.76 49.8129 138.733C49.8714 138.707 49.9346 138.692 49.9987 138.689C50.063 138.687 50.1271 138.698 50.1873 138.72C50.2475 138.742 50.3027 138.776 50.3498 138.82C50.3968 138.864 50.4347 138.917 50.4614 138.975C50.4881 139.034 50.5029 139.096 50.5052 139.161C50.5076 139.226 50.4971 139.29 50.4747 139.349C50.4522 139.409 50.418 139.466 50.3742 139.512C46.2498 143.954 43.1722 149.261 41.3671 155.047L41.3304 155.17C40.6411 157.384 39.4884 161.092 41.2705 162.301C41.5425 162.484 41.8497 162.609 42.1724 162.667C42.495 162.726 42.8264 162.717 43.1455 162.642C44.3116 162.404 45.4508 161.488 45.9299 160.745C47.3221 158.588 48.4577 156.222 49.5541 153.92C50.1298 152.718 50.725 151.476 51.3521 150.271C51.8239 149.365 52.2394 148.415 52.6404 147.497C53.7783 144.897 54.9554 142.208 57.4782 140.501C57.5856 140.429 57.7175 140.402 57.8449 140.426C57.9723 140.451 58.0846 140.525 58.1572 140.633C58.2298 140.74 58.2567 140.871 58.2321 141C58.2074 141.127 58.1332 141.239 58.0258 141.311C55.7377 142.86 54.6681 145.303 53.5363 147.89C53.1281 148.822 52.7064 149.787 52.2187 150.722C51.599 151.912 51.0086 153.148 50.4366 154.343C49.3255 156.666 48.1777 159.066 46.7513 161.275C46.1487 162.208 44.7846 163.306 43.3411 163.597C43.0916 163.648 42.8377 163.672 42.5833 163.671Z" fill="#1B5EC9"/>
        <path d="M42.9031 157.117C41.9803 157.78 42.1062 159.453 43.1268 159.951C44.1474 160.45 45.5457 159.487 45.4308 158.352C45.3159 157.218 43.7196 156.568 42.864 157.315L42.9031 157.117Z" fill="black"/>
        <path d="M43.7242 160.575C43.4432 160.576 43.1656 160.514 42.9126 160.391C42.2819 160.082 41.8663 159.432 41.7991 158.651C41.7318 157.87 42.0435 157.13 42.6168 156.72C42.6759 156.677 42.7438 156.649 42.8155 156.635C42.8872 156.623 42.9609 156.625 43.0311 156.645C43.5334 156.453 44.0904 156.46 44.5871 156.667C45.334 156.962 45.8437 157.589 45.917 158.304C45.9903 159.019 45.6322 159.714 44.9893 160.162C44.6194 160.424 44.178 160.569 43.7242 160.575ZM42.9334 157.798C42.8027 158.032 42.7472 158.301 42.7745 158.568C42.8099 158.997 43.0275 159.358 43.3416 159.512C43.7193 159.696 44.152 159.554 44.4307 159.36C44.7094 159.165 44.9856 158.815 44.944 158.403C44.9025 157.991 44.5456 157.702 44.2278 157.576C43.91 157.45 43.4846 157.42 43.1827 157.683C43.1122 157.744 43.0256 157.784 42.9334 157.798Z" fill="black"/>
        <path d="M71.8104 159.03C71.7797 159.03 71.7489 159.027 71.7187 159.021C71.6555 159.009 71.5953 158.986 71.5415 158.95C71.4877 158.915 71.4414 158.87 71.4051 158.816C71.3689 158.763 71.3435 158.703 71.3304 158.64C71.3173 158.578 71.3168 158.513 71.3288 158.449C71.7641 156.154 71.8666 153.807 71.6332 151.482C71.6202 151.352 71.6593 151.223 71.7418 151.123C71.8243 151.021 71.9435 150.958 72.0732 150.944C72.2029 150.931 72.3324 150.97 72.4333 151.053C72.5341 151.135 72.598 151.255 72.611 151.384C72.8545 153.803 72.7478 156.243 72.2944 158.631C72.2733 158.744 72.2131 158.845 72.1248 158.919C72.0363 158.991 71.925 159.031 71.8104 159.03ZM70.8998 164.623C70.8657 164.623 70.8317 164.619 70.7983 164.612C70.7355 164.599 70.6759 164.573 70.6229 164.537C70.5699 164.501 70.5245 164.454 70.4895 164.401C70.4544 164.347 70.4303 164.287 70.4184 164.223C70.4067 164.161 70.4074 164.096 70.4206 164.033L71.0257 161.16C71.0524 161.033 71.1285 160.922 71.2371 160.851C71.3458 160.78 71.4782 160.756 71.605 160.783C71.732 160.809 71.8432 160.885 71.9139 160.994C71.9847 161.103 72.0095 161.235 71.9827 161.362L71.3777 164.234C71.3547 164.344 71.2947 164.443 71.2077 164.513C71.1207 164.584 71.012 164.623 70.8998 164.623Z" fill="#1B5EC9"/>
        <path d="M36.8663 150.315C36.7954 151.554 37.1951 153.248 38.4345 153.202C39.3304 153.169 39.8377 152.184 40.131 151.337C41.3668 147.77 42.2517 143.935 44.2709 140.81C44.3289 140.72 44.4169 140.652 44.5195 140.621C44.6222 140.589 44.7328 140.595 44.8316 140.638C44.9304 140.679 45.0109 140.755 45.0588 140.852C45.1069 140.948 45.1192 141.058 45.0935 141.162L43.0364 149.768C42.5964 151.602 42.1943 153.694 43.3823 155.23C43.5121 155.402 43.6831 155.539 43.8798 155.628C44.6217 155.949 45.1791 155.355 45.5556 154.794C48.3265 150.667 48.2972 144.985 51.2441 141.083C51.2989 141.011 51.3739 140.957 51.4596 140.927C51.5454 140.898 51.638 140.894 51.7255 140.918C51.8129 140.942 51.8913 140.991 51.9506 141.059C52.0099 141.128 52.0474 141.212 52.0582 141.303C52.6021 145.962 50.0463 150.642 50.1367 155.414C50.1391 155.654 50.198 155.89 50.309 156.102C50.4198 156.315 50.5795 156.498 50.7748 156.636C51.8357 157.37 53.0067 156.048 53.4699 154.903C55.3095 150.355 55.6835 144.973 58.7576 141.262C58.816 141.19 58.895 141.138 58.9841 141.112C59.0731 141.086 59.1679 141.088 59.2559 141.117C59.3438 141.147 59.4206 141.202 59.4759 141.277C59.5313 141.352 59.5626 141.441 59.5655 141.534C59.81 145.934 57.4876 150.199 56.9608 154.634C56.8386 155.661 56.9608 156.973 58.1061 157.201C58.3751 157.251 58.6522 157.234 58.9133 157.152C59.1744 157.07 59.4118 156.927 59.6047 156.733C65.7883 150.65 64.1003 139.962 69.6996 133.509C70.8767 133.599 71.0857 135.241 70.8706 136.402C70.4981 138.409 69.9025 140.368 69.0946 142.241L73.886 143.559C76.4112 138.565 76.9759 132.226 74.9616 127.005C74.5252 125.876 73.9556 124.747 72.9986 124.005C72.0745 123.29 70.8938 123.015 69.7534 122.758L57.3654 119.975C55.5992 119.578 53.5677 118.816 51.7428 119.094C50.5975 119.268 50.0414 120.091 49.4425 120.992C48.5551 122.328 47.4477 123.488 46.4686 124.755C45.3893 126.155 44.3912 127.615 43.4789 129.13C41.6517 132.16 40.1731 135.388 39.0713 138.751C37.9691 142.097 37.2584 145.56 36.953 149.07C36.92 149.485 36.8895 149.9 36.8663 150.315Z" fill="#FBD2B5"/>
        <path d="M46.8929 134.848C46.8698 134.85 46.8465 134.85 46.8232 134.848L45.3296 134.634C45.266 134.625 45.2049 134.603 45.1497 134.57C45.0944 134.538 45.0461 134.494 45.0076 134.443C44.969 134.392 44.941 134.333 44.9251 134.271C44.9091 134.21 44.9056 134.145 44.9146 134.081C44.9238 134.018 44.9452 133.957 44.9779 133.9C45.0107 133.845 45.054 133.798 45.1053 133.759C45.1566 133.721 45.2151 133.693 45.2773 133.677C45.3395 133.661 45.4042 133.657 45.4677 133.666L46.9614 133.88C47.0257 133.885 47.0884 133.902 47.1459 133.93C47.2035 133.959 47.2548 133.998 47.2971 134.047C47.3393 134.096 47.3716 134.152 47.392 134.213C47.4124 134.274 47.4206 134.339 47.4161 134.403C47.4117 134.468 47.3945 134.53 47.3658 134.587C47.3371 134.645 47.2973 134.696 47.2487 134.739C47.2001 134.78 47.1437 134.813 47.0826 134.833C47.0216 134.854 46.9572 134.862 46.8929 134.857V134.848ZM62.6802 137.407C62.657 137.41 62.6337 137.41 62.6106 137.407L61.1169 137.195C60.9885 137.176 60.8727 137.108 60.7948 137.004C60.717 136.9 60.6836 136.77 60.7019 136.642C60.7202 136.514 60.7887 136.398 60.8925 136.319C60.9963 136.241 61.1266 136.208 61.255 136.226L62.7487 136.439C62.8782 136.449 62.999 136.509 63.0843 136.607C63.1696 136.704 63.2124 136.833 63.2034 136.962C63.1942 137.092 63.1341 137.213 63.0359 137.298C62.9378 137.384 62.8098 137.427 62.6802 137.417V137.407ZM54.3636 136.006C54.3151 136.006 54.2669 136 54.2206 135.986C53.8497 135.872 53.4642 135.815 53.0765 135.812C52.9468 135.812 52.8224 135.761 52.7307 135.669C52.6391 135.577 52.5876 135.453 52.5876 135.323C52.5876 135.194 52.6391 135.069 52.7307 134.977C52.8224 134.886 52.9468 134.834 53.0765 134.834C53.5596 134.837 54.0397 134.91 54.5017 135.051C54.6132 135.085 54.7087 135.159 54.7707 135.257C54.8328 135.356 54.8575 135.475 54.8402 135.59C54.8229 135.706 54.7649 135.811 54.6765 135.888C54.5883 135.964 54.4754 136.006 54.3587 136.006H54.3636ZM39.6092 149.26C39.5122 149.26 39.4173 149.23 39.3368 149.177C39.2562 149.123 39.1937 149.046 39.157 148.955C39.1239 148.905 39.0805 148.863 39.0296 148.83C38.9788 148.797 38.9217 148.775 38.8619 148.766C38.8022 148.757 38.7413 148.76 38.683 148.777C38.6247 148.793 38.5705 148.821 38.5238 148.859C38.4841 148.911 38.4341 148.957 38.3768 148.99C38.3195 149.023 38.256 149.043 38.1904 149.052C38.1246 149.059 38.058 149.053 37.9946 149.035C37.931 149.017 37.872 148.985 37.821 148.943C37.7701 148.9 37.7281 148.849 37.6978 148.789C37.6675 148.731 37.6494 148.667 37.6448 148.601C37.6401 148.535 37.6488 148.468 37.6706 148.405C37.6922 148.343 37.7263 148.286 37.7709 148.237C37.9255 148.068 38.1194 147.94 38.3355 147.863C38.5516 147.787 38.7831 147.765 39.0096 147.799C39.2361 147.835 39.4506 147.924 39.6341 148.061C39.8175 148.199 39.9643 148.379 40.0615 148.586C40.0917 148.661 40.1033 148.742 40.0951 148.821C40.0869 148.9 40.0593 148.977 40.0147 149.043C39.9699 149.111 39.9096 149.164 39.8389 149.202C39.7683 149.24 39.6893 149.26 39.6092 149.26ZM45.6096 151.384C45.5435 151.384 45.4781 151.371 45.4175 151.345C45.3567 151.318 45.3019 151.28 45.2564 151.233C45.1288 151.103 44.9744 151.003 44.8039 150.939C44.6335 150.876 44.4511 150.851 44.27 150.866C44.2057 150.872 44.141 150.865 44.0796 150.845C44.0181 150.826 43.961 150.795 43.9115 150.753C43.8621 150.712 43.8213 150.662 43.7915 150.604C43.7616 150.547 43.7433 150.485 43.7377 150.421C43.7319 150.356 43.7389 150.291 43.7582 150.23C43.7775 150.169 43.8088 150.112 43.8501 150.062C43.8916 150.013 43.9422 149.972 43.9994 149.942C44.0565 149.913 44.1189 149.894 44.1832 149.888C44.5111 149.861 44.841 149.906 45.1492 150.023C45.4572 150.139 45.7355 150.321 45.9641 150.558C46.0305 150.628 46.0751 150.714 46.0923 150.808C46.1095 150.904 46.0985 151 46.0608 151.09C46.0229 151.178 45.9601 151.252 45.8798 151.305C45.7996 151.359 45.7056 151.385 45.6096 151.385V151.384ZM52.5535 153.077C52.4533 153.077 52.3556 153.046 52.2736 152.989C52.075 152.851 51.8392 152.778 51.5977 152.776H51.5853C51.4558 152.776 51.3313 152.725 51.2397 152.633C51.148 152.542 51.0964 152.417 51.0964 152.287C51.0964 152.158 51.148 152.033 51.2397 151.942C51.3313 151.85 51.4558 151.799 51.5853 151.799C52.0326 151.797 52.4695 151.933 52.8371 152.187C52.9224 152.247 52.9864 152.333 53.0199 152.43C53.0535 152.529 53.0548 152.636 53.0236 152.735C52.9923 152.834 52.9302 152.921 52.8464 152.983C52.7625 153.044 52.6612 153.077 52.5572 153.077H52.5535ZM59.9213 153.922C59.8155 153.922 59.7126 153.887 59.6279 153.824C59.41 153.66 59.1529 153.555 58.8823 153.521C58.7536 153.505 58.6366 153.438 58.5571 153.335C58.4776 153.234 58.442 153.103 58.4582 152.974C58.4744 152.846 58.541 152.729 58.6435 152.649C58.746 152.57 58.8758 152.534 59.0045 152.55C59.4425 152.606 59.8584 152.775 60.2122 153.039C60.2943 153.1 60.3549 153.187 60.3855 153.285C60.4162 153.383 60.4151 153.488 60.3827 153.586C60.3502 153.682 60.288 153.768 60.2047 153.828C60.1215 153.887 60.0215 153.919 59.9188 153.919L59.9213 153.922Z" fill="black"/>
        <path d="M79.9647 137.034C80.1126 137.481 80.2837 137.955 80.7238 138.257C81.1919 138.575 81.8532 138.616 82.4655 138.641C90.8847 138.983 102.984 138.115 111.412 137.974L160.047 137.16C161.193 137.142 166.735 136.865 167.689 136.355C168.931 135.692 169.38 134.426 169.736 133.267C174.576 117.524 175.224 101.876 178.352 85.9755C178.457 85.4497 178.445 84.9071 178.315 84.3867C178.187 83.8661 177.946 83.3802 177.608 82.9637C177.27 82.547 176.845 82.2097 176.363 81.9759C175.881 81.7421 175.353 81.6174 174.816 81.6107C145.535 81.288 116.232 82.2304 87.0797 84.433C84.2452 84.6469 81.4131 84.873 78.586 85.1395C75.8578 85.3961 72.95 85.5318 70.289 86.0929C69.486 86.2628 68.4629 86.6282 68.2111 87.3323C68.0168 87.8847 68.3468 88.4886 68.5864 88.997C69.4762 90.883 69.9443 92.8742 70.5298 94.8335C71.8584 99.2827 77.9773 131.06 79.4416 135.482L79.9647 137.034Z" fill="#3982F0"/>
        <path d="M90.553 133.052C90.4381 133.052 90.327 133.012 90.2393 132.937C90.1514 132.864 90.0925 132.761 90.0727 132.648C88.4275 123.269 86.869 116.451 85.362 109.858C83.4894 101.669 81.7219 93.9401 79.9667 82.151C79.9551 82.0866 79.9566 82.0205 79.971 81.9565C79.9854 81.8926 80.0126 81.8324 80.0507 81.7791C80.089 81.7259 80.1375 81.6809 80.1933 81.6468C80.2493 81.6127 80.3115 81.5902 80.3763 81.5807C80.4411 81.5712 80.5071 81.5746 80.5705 81.5911C80.634 81.6075 80.6934 81.6366 80.7453 81.6764C80.7974 81.7162 80.8408 81.7661 80.8731 81.8231C80.9055 81.88 80.926 81.943 80.9336 82.008C82.6839 93.758 84.4477 101.473 86.3117 109.64C87.8249 116.244 89.3894 123.077 91.0359 132.479C91.0582 132.607 91.0289 132.738 90.9543 132.844C90.8799 132.951 90.7663 133.023 90.6386 133.045C90.6103 133.05 90.5816 133.052 90.553 133.052ZM163.168 110.1C163.144 110.101 163.12 110.101 163.096 110.1C163.032 110.09 162.971 110.069 162.916 110.035C162.861 110.002 162.814 109.959 162.775 109.907C162.737 109.855 162.709 109.797 162.694 109.734C162.678 109.672 162.674 109.607 162.684 109.544L166.525 83.7535C166.532 83.6884 166.553 83.6255 166.586 83.5685C166.617 83.5116 166.661 83.4617 166.713 83.4218C166.765 83.382 166.824 83.3529 166.888 83.3365C166.951 83.32 167.017 83.3165 167.082 83.3261C167.147 83.3357 167.209 83.3582 167.265 83.3923C167.32 83.4264 167.369 83.4713 167.407 83.5245C167.446 83.5778 167.473 83.6381 167.488 83.702C167.501 83.7659 167.504 83.832 167.491 83.8965L163.651 109.687C163.633 109.802 163.574 109.907 163.486 109.983C163.398 110.058 163.284 110.1 163.168 110.1ZM160.609 125.298C160.578 125.298 160.548 125.294 160.517 125.289C160.455 125.277 160.394 125.254 160.34 125.219C160.286 125.183 160.24 125.138 160.204 125.084C160.167 125.032 160.142 124.972 160.13 124.908C160.116 124.846 160.115 124.781 160.127 124.717C160.138 124.661 161.2 119.03 161.435 115.982C161.44 115.918 161.458 115.855 161.487 115.797C161.516 115.74 161.556 115.69 161.605 115.647C161.654 115.605 161.711 115.573 161.772 115.554C161.833 115.533 161.898 115.526 161.962 115.531C162.027 115.535 162.089 115.554 162.146 115.582C162.204 115.611 162.255 115.652 162.297 115.701C162.338 115.749 162.37 115.807 162.391 115.868C162.41 115.929 162.418 115.994 162.413 116.057C162.168 119.16 161.134 124.666 161.09 124.9C161.069 125.012 161.01 125.113 160.922 125.186C160.834 125.259 160.724 125.298 160.609 125.298ZM148.249 98.1533C148.233 98.1546 148.217 98.1546 148.2 98.1533C148.072 98.1406 147.953 98.0774 147.871 97.9776C147.788 97.8777 147.749 97.7492 147.761 97.6204L148.821 86.742C148.827 86.6778 148.846 86.6155 148.877 86.5585C148.906 86.5015 148.948 86.4512 148.998 86.4102C149.048 86.3693 149.106 86.3385 149.167 86.3197C149.229 86.3008 149.294 86.2945 149.357 86.3007C149.422 86.3069 149.485 86.3258 149.541 86.3562C149.598 86.3865 149.648 86.4278 149.69 86.4776C149.73 86.5275 149.761 86.5849 149.78 86.6466C149.799 86.7082 149.805 86.7731 149.799 86.8373L148.739 97.7158C148.727 97.8365 148.669 97.9482 148.579 98.0291C148.488 98.1101 148.371 98.1543 148.249 98.1533ZM146.45 122.967H146.409C146.281 122.956 146.161 122.895 146.077 122.796C145.992 122.698 145.952 122.57 145.962 122.44C145.974 122.289 147.199 107.256 147.363 104.465C147.366 104.402 147.383 104.338 147.412 104.281C147.44 104.222 147.479 104.171 147.526 104.128C147.574 104.085 147.63 104.052 147.691 104.031C147.753 104.01 147.816 104.002 147.881 104.006C147.944 104.009 148.008 104.025 148.065 104.053C148.123 104.081 148.175 104.12 148.218 104.168C148.261 104.217 148.294 104.273 148.315 104.333C148.336 104.394 148.344 104.459 148.34 104.523C148.175 107.324 146.949 122.368 146.937 122.52C146.927 122.642 146.871 122.756 146.781 122.839C146.69 122.922 146.573 122.967 146.45 122.967ZM104.912 103.7C104.788 103.7 104.668 103.652 104.576 103.568C104.486 103.482 104.431 103.365 104.423 103.24L103.645 90.2218C103.641 90.1577 103.65 90.0933 103.67 90.0325C103.692 89.9718 103.724 89.9157 103.767 89.8675C103.81 89.8195 103.862 89.7801 103.92 89.752C103.977 89.7239 104.041 89.7075 104.104 89.7036C104.169 89.6997 104.233 89.7086 104.294 89.7296C104.355 89.7506 104.411 89.7834 104.459 89.8261C104.506 89.8687 104.547 89.9204 104.575 89.9784C104.603 90.0362 104.619 90.099 104.623 90.1632L105.401 103.182C105.405 103.247 105.396 103.31 105.375 103.371C105.355 103.431 105.322 103.487 105.279 103.536C105.236 103.584 105.185 103.623 105.126 103.651C105.069 103.679 105.006 103.695 104.942 103.699L104.912 103.7ZM105.333 113.94C105.208 113.94 105.088 113.893 104.997 113.807C104.906 113.722 104.851 113.604 104.844 113.48L104.558 108.577C104.554 108.513 104.564 108.449 104.585 108.388C104.605 108.328 104.638 108.271 104.681 108.224C104.724 108.175 104.775 108.136 104.834 108.108C104.891 108.079 104.955 108.064 105.019 108.06C105.083 108.056 105.147 108.065 105.208 108.087C105.269 108.108 105.324 108.141 105.373 108.183C105.421 108.226 105.46 108.277 105.488 108.336C105.516 108.394 105.532 108.457 105.536 108.521L105.822 113.421C105.829 113.55 105.785 113.678 105.698 113.774C105.613 113.871 105.492 113.929 105.362 113.937L105.333 113.94ZM106.454 127.854C106.331 127.854 106.213 127.809 106.122 127.725C106.032 127.642 105.976 127.529 105.965 127.406L105.279 119.254C105.274 119.19 105.281 119.125 105.301 119.063C105.32 119.002 105.351 118.946 105.393 118.896C105.434 118.847 105.485 118.806 105.543 118.777C105.6 118.746 105.663 118.729 105.726 118.723C105.791 118.718 105.856 118.726 105.917 118.745C105.978 118.765 106.036 118.795 106.084 118.837C106.133 118.878 106.175 118.93 106.204 118.987C106.234 119.043 106.252 119.107 106.257 119.171L106.951 127.323C106.962 127.453 106.922 127.581 106.839 127.68C106.755 127.779 106.636 127.842 106.506 127.853L106.454 127.854ZM128.206 115.223C128.076 115.223 127.951 115.171 127.86 115.08C127.768 114.988 127.717 114.863 127.717 114.734L127.901 92.543C127.901 92.4133 127.953 92.289 128.044 92.1973C128.136 92.1055 128.261 92.0541 128.39 92.0541C128.52 92.0541 128.644 92.1055 128.736 92.1973C128.828 92.289 128.879 92.4133 128.879 92.543L128.694 114.735C128.694 114.864 128.643 114.988 128.551 115.08C128.46 115.171 128.335 115.223 128.206 115.223ZM128.603 123.879C128.473 123.879 128.349 123.828 128.257 123.736C128.165 123.644 128.114 123.52 128.114 123.39V121.572C128.114 121.443 128.165 121.318 128.257 121.227C128.349 121.135 128.473 121.084 128.603 121.084C128.732 121.084 128.857 121.135 128.949 121.227C129.04 121.318 129.092 121.443 129.092 121.572V123.39C129.092 123.52 129.04 123.644 128.949 123.736C128.857 123.828 128.732 123.879 128.603 123.879ZM125.999 135.266C125.87 135.267 125.745 135.217 125.652 135.125C125.561 135.035 125.508 134.91 125.507 134.781C125.505 134.651 125.557 134.526 125.647 134.433C125.739 134.342 125.862 134.289 125.992 134.288C128.899 134.246 130.148 134.183 131.353 134.122C132.558 134.061 133.824 134 136.749 133.954H136.757C136.822 133.954 136.885 133.967 136.944 133.991C137.004 134.014 137.057 134.051 137.104 134.095C137.149 134.14 137.186 134.194 137.21 134.254C137.236 134.312 137.248 134.376 137.249 134.441C137.249 134.504 137.237 134.568 137.213 134.628C137.188 134.688 137.153 134.741 137.108 134.787C137.062 134.833 137.009 134.869 136.95 134.894C136.891 134.919 136.828 134.932 136.763 134.932C133.856 134.974 132.607 135.037 131.403 135.098C130.199 135.159 128.93 135.221 126.007 135.265L125.999 135.266ZM141.214 134.933C141.085 134.933 140.96 134.882 140.869 134.79C140.777 134.699 140.726 134.574 140.726 134.444C140.726 134.315 140.777 134.19 140.869 134.099C140.96 134.007 141.085 133.956 141.214 133.956C141.857 133.956 142.483 133.904 143.087 133.853C143.894 133.786 144.655 133.722 145.385 133.787C145.45 133.793 145.512 133.811 145.57 133.841C145.626 133.871 145.677 133.912 145.719 133.96C145.759 134.011 145.791 134.068 145.81 134.129C145.83 134.19 145.836 134.255 145.831 134.32C145.825 134.383 145.807 134.446 145.777 134.503C145.747 134.561 145.706 134.611 145.656 134.652C145.607 134.694 145.55 134.724 145.489 134.744C145.428 134.763 145.363 134.771 145.298 134.765C144.653 134.707 143.933 134.765 143.169 134.832C142.542 134.88 141.897 134.933 141.214 134.933ZM156.565 134.738C156.436 134.738 156.311 134.686 156.219 134.595C156.128 134.503 156.076 134.378 156.076 134.249C156.076 134.119 156.128 133.995 156.219 133.903C156.311 133.811 156.436 133.76 156.565 133.76L157.615 133.749H157.86L158.951 133.739C161.263 133.716 163.638 133.566 165.033 132.028C165.076 131.979 165.129 131.94 165.187 131.912C165.245 131.884 165.308 131.868 165.373 131.864C165.438 131.861 165.503 131.87 165.564 131.892C165.624 131.913 165.68 131.947 165.728 131.991C165.777 132.034 165.814 132.087 165.843 132.145C165.869 132.204 165.885 132.268 165.888 132.332C165.89 132.397 165.88 132.462 165.858 132.522C165.835 132.583 165.801 132.638 165.757 132.686C164.096 134.519 161.377 134.693 158.961 134.716L157.911 134.726C157.865 134.726 157.813 134.726 157.761 134.726H157.668L156.575 134.737L156.565 134.738ZM89.7279 176.549C89.618 176.549 89.5113 176.512 89.425 176.444C89.3387 176.375 89.2779 176.281 89.2524 176.174C88.2746 172.084 86.7076 164.991 85.1858 158.133C83.6641 151.274 82.0934 144.189 81.1229 140.106C81.106 140.043 81.1019 139.978 81.1109 139.913C81.12 139.848 81.1418 139.786 81.1753 139.73C81.2088 139.673 81.2532 139.625 81.3059 139.585C81.3586 139.548 81.4185 139.519 81.4821 139.505C81.5457 139.489 81.6116 139.486 81.6761 139.497C81.7405 139.508 81.8021 139.532 81.8573 139.567C81.9125 139.603 81.9601 139.648 81.9972 139.702C82.0344 139.755 82.0604 139.816 82.0738 139.88C83.0517 143.97 84.6199 151.062 86.1404 157.92C87.661 164.778 89.2328 171.864 90.2034 175.946C90.2181 176.009 90.2205 176.075 90.2099 176.138C90.1996 176.202 90.1767 176.263 90.1426 176.318C90.1085 176.372 90.0639 176.419 90.0114 176.457C89.9589 176.494 89.8995 176.521 89.8367 176.535C89.801 176.544 89.7645 176.549 89.7279 176.549Z" fill="black"/>
        <path d="M89.1457 174.934C87.3232 175.423 86.206 177.616 86.7769 179.415C87.3477 181.214 89.4195 182.349 91.27 181.982C93.1206 181.615 94.5592 179.848 94.6729 177.963C94.7182 177.42 94.6283 176.874 94.4113 176.374C93.6669 174.769 91.4778 174.381 89.78 174.907L89.1457 174.934ZM158.674 176.549C158.629 176.549 158.585 176.543 158.541 176.531C158.48 176.513 158.421 176.484 158.371 176.444C158.321 176.405 158.28 176.355 158.248 176.298C158.216 176.242 158.197 176.181 158.189 176.117C158.182 176.054 158.187 175.989 158.204 175.927C158.326 175.501 158.426 175.041 158.533 174.552C158.639 174.063 158.754 173.549 158.899 173.031C159.459 170.981 159.427 169.537 158.804 168.738C158.03 167.748 156.378 167.703 154.459 167.745C132.643 168.226 110.531 168.994 88.7362 170.025C88.672 170.029 88.6079 170.019 88.5474 169.997C88.4869 169.975 88.4312 169.942 88.3837 169.898C88.3361 169.856 88.2975 169.803 88.2701 169.746C88.2428 169.687 88.2271 169.625 88.2241 169.56C88.221 169.496 88.2307 169.431 88.2524 169.372C88.2742 169.31 88.3075 169.255 88.3508 169.208C88.3941 169.16 88.4463 169.121 88.5045 169.094C88.5626 169.066 88.6256 169.051 88.6898 169.048C110.493 168.015 132.613 167.247 154.437 166.767C156.218 166.726 158.436 166.679 159.57 168.136C160.406 169.205 160.494 170.891 159.839 173.288C159.705 173.777 159.595 174.279 159.49 174.755C159.379 175.258 159.275 175.732 159.146 176.186C159.119 176.29 159.058 176.381 158.973 176.447C158.887 176.513 158.782 176.549 158.674 176.549Z" fill="black"/>
        <path d="M157.821 173.901C157.21 173.92 156.586 174.399 156.11 174.773C155.145 175.529 154.478 176.689 154.422 177.914C154.365 179.139 154.968 180.4 156.011 181.037C157.376 181.866 159.162 181.536 160.595 180.833C161.287 180.493 161.958 180.057 162.399 179.425C163.269 178.181 163.011 176.35 161.984 175.23C160.957 174.11 159.322 173.68 157.821 173.901ZM33.2628 61.653C32.3314 61.653 31.4489 61.4672 30.724 60.8867C29.602 59.9883 29.2744 58.4115 29.8501 56.671C30.2168 55.5587 30.8279 55.082 31.6836 54.6872C33.0394 54.0633 34.4265 53.5096 35.8394 53.0285C38.7594 52.0225 41.7968 51.2647 44.6399 50.5974C45.6177 50.3676 46.84 50.0803 48.0244 50.3529C48.7484 50.517 49.4136 50.8762 49.9481 51.3912C50.4826 51.9064 50.8659 52.558 51.0565 53.2754C51.2472 53.9929 51.2377 54.7488 51.0296 55.4612C50.8213 56.1738 50.422 56.8157 49.875 57.3175C49.0683 58.0509 48.0416 58.4066 46.9794 58.733C43.0596 59.9333 39.0596 60.8535 35.0094 61.4868C34.4324 61.587 33.8484 61.6426 33.2628 61.653ZM31.3303 60.1288C32.2043 60.8292 33.5402 60.74 34.853 60.531C38.8594 59.9047 42.8161 58.9942 46.6934 57.8065C47.648 57.5143 48.5586 57.2026 49.2162 56.6037C49.6336 56.2231 49.9388 55.7354 50.0984 55.1936C50.2581 54.6517 50.2661 54.0765 50.1217 53.5304C49.9773 52.9843 49.6859 52.4881 49.2794 52.096C48.8727 51.7039 48.3664 51.4308 47.8154 51.3063C46.851 51.0875 45.7999 51.3344 44.8709 51.5507C42.0486 52.2132 39.0406 52.9637 36.162 53.955C34.7809 54.4251 33.4247 54.9661 32.0991 55.5758C31.323 55.9363 31.015 56.2639 30.7778 56.9802C30.6128 57.4789 30.1642 59.1852 31.3303 60.1288Z" fill="black"/>
        <path d="M92.5875 71.7896C85.0092 70.1823 76.6597 71.3618 70.4248 75.9577C66.4388 78.8912 63.5176 83.0128 60.3909 86.8532C57.6669 90.1994 54.7435 93.3782 51.6368 96.3725C48.5359 99.3598 45.0364 102.577 44.6001 106.86C44.2823 109.979 45.8615 113.216 48.5114 114.885C47.2194 115.863 45.6195 116.352 44.2969 117.28C42.9744 118.207 41.9196 119.899 42.5002 121.405C42.9414 122.554 44.2114 123.204 45.4337 123.318C46.656 123.432 47.8783 123.116 49.0871 122.88C56.6397 121.414 64.7619 123.125 71.0701 127.532C72.0993 128.251 73.1603 129.068 74.4119 129.153C76.0094 129.264 77.5031 128.06 78.0715 126.563C78.6398 125.066 78.4161 123.364 77.827 121.874C81.0856 120.81 83.3053 117.869 85.3099 115.089C90.8836 107.363 96.5428 99.4686 99.436 90.3918C100.078 88.3774 100.68 86.1626 102.369 84.8914C104.099 83.5958 106.383 83.7021 108.433 83.652C109.235 83.6325 110.054 83.6423 110.542 82.8966C110.72 82.6112 110.815 82.2821 110.818 81.9458C110.82 81.6094 110.73 81.2789 110.555 80.9911C110.066 80.1844 108.979 79.6013 108.233 79.0574C107.326 78.399 106.399 77.77 105.451 77.1702C103.589 75.9907 101.641 74.9533 99.623 74.0668C97.3608 73.0719 95.0036 72.309 92.5875 71.7896Z" fill="#292A2E"/>
        <path d="M47.0668 115.988C46.9563 115.988 46.849 115.951 46.7625 115.883C46.6758 115.813 46.6151 115.718 46.5899 115.61C46.5648 115.502 46.5769 115.39 46.6242 115.29C46.6715 115.19 46.7514 115.109 46.8505 115.06C49.391 113.813 52.2244 113.285 55.0435 113.535C55.1732 113.546 55.293 113.608 55.3767 113.708C55.4604 113.808 55.5011 113.937 55.4897 114.066C55.4783 114.196 55.416 114.316 55.3162 114.4C55.2165 114.483 55.0877 114.523 54.958 114.512C52.3148 114.279 49.6581 114.775 47.2771 115.946C47.2108 115.976 47.1391 115.989 47.0668 115.988ZM61.1954 116.043C61.1504 116.043 61.1055 116.037 61.0621 116.024L58.0724 115.18C58.0106 115.163 57.9529 115.133 57.9025 115.093C57.852 115.054 57.81 115.004 57.7787 114.948C57.7474 114.891 57.7273 114.83 57.7199 114.767C57.7124 114.703 57.7176 114.638 57.7351 114.576C57.7525 114.515 57.7821 114.456 57.8218 114.406C57.8617 114.356 57.9111 114.313 57.967 114.283C58.0231 114.251 58.0849 114.231 58.1487 114.224C58.2125 114.217 58.277 114.222 58.3389 114.239L61.3286 115.083C61.4423 115.115 61.5405 115.187 61.6052 115.286C61.6699 115.385 61.6965 115.504 61.6803 115.621C61.664 115.738 61.6059 115.846 61.5168 115.923C61.4277 116 61.3134 116.043 61.1954 116.043ZM66.0931 117.78C66.0408 117.78 65.9889 117.771 65.9391 117.755L64.0189 117.115C63.958 117.094 63.9017 117.062 63.8531 117.021C63.8046 116.978 63.7649 116.926 63.7362 116.869C63.7074 116.813 63.6903 116.749 63.6858 116.686C63.6813 116.622 63.6894 116.557 63.7096 116.496C63.7299 116.435 63.7621 116.379 63.8041 116.331C63.8462 116.282 63.8974 116.242 63.9548 116.214C64.0123 116.185 64.0749 116.167 64.1389 116.164C64.203 116.159 64.2673 116.166 64.3281 116.187L66.2483 116.827C66.3581 116.864 66.4511 116.94 66.5109 117.039C66.5707 117.138 66.5933 117.255 66.5746 117.369C66.556 117.484 66.4973 117.588 66.4091 117.664C66.321 117.738 66.209 117.78 66.0931 117.78ZM73.774 120.767C73.7134 120.767 73.6534 120.756 73.5968 120.734L69.7563 119.24C69.6355 119.194 69.5382 119.1 69.4858 118.981C69.4335 118.863 69.4306 118.728 69.4777 118.607C69.5246 118.486 69.6177 118.39 69.7365 118.337C69.8552 118.284 69.9899 118.282 70.1108 118.328L73.9513 119.822C74.0577 119.864 74.1463 119.941 74.2018 120.041C74.2573 120.14 74.2763 120.256 74.2553 120.368C74.2341 120.481 74.1746 120.581 74.0867 120.654C73.9988 120.728 73.8882 120.767 73.774 120.767Z" fill="white"/>
    </g>
    <defs>
        <clipPath id="clip0_2169_2858">
            <rect width="201" height="201" fill="white"/>
        </clipPath>
    </defs>
</svg>
