<svg width="299" height="299" viewBox="0 0 299 299" fill="none" xmlns="http://www.w3.org/2000/svg">
    <path d="M32.7226 119.54C31.2276 121.646 27.4361 124.303 24.6586 127.604C24.4892 127.434 22.415 130.222 22.0419 130.968C21.3678 132.316 21.667 134.523 22.3623 135.774C23.4762 137.779 26.5122 138.837 28.4503 139.806C29.5299 140.346 34.4796 140.677 34.7252 141.782C35.1805 143.831 32.9498 147.2 32.4556 149.232C31.8685 151.646 32.581 153.834 33.5503 155.988C35.1464 159.534 37.7278 162.069 39.5582 165.413C43.5689 172.741 47.6082 181.39 49.0641 189.605C49.8953 194.295 50.5706 196.912 48.4232 200.9C47.3147 202.959 45.8858 204.613 43.9907 205.947C41.4933 207.704 39.6045 210.671 37.609 212.916C35.3322 215.477 32.3398 217.858 29.4383 219.671C27.3823 220.956 25.8304 222.07 25.3796 224.504C24.8091 227.585 23.8678 235.567 26.3142 238.149C28.8516 240.827 32.9853 242.646 35.9268 244.878C38.1004 246.527 40.6263 248.808 43.4033 247.174C44.9791 246.247 46.4853 243.421 47.8358 242.101C55.9232 234.193 69.41 230.993 80.3052 230.993C87.9272 230.993 97.5819 233.205 101.934 240.072C103.451 242.466 104.61 244.839 106.393 247.067L106.465 247.158C107.723 248.732 110.748 252.515 112.801 252.515C113.3 252.515 114.775 251.622 115.258 251.366C116.88 250.508 118.545 250.645 120.331 250.645C127.889 250.645 133.998 251.817 141.078 254.491C143.584 255.437 147.618 256.671 149.383 258.843C150.759 260.537 151.788 262.484 152.961 264.317C154.086 266.074 154.937 266.615 156.939 267.094C159.99 267.823 163.173 269.565 165.965 270.939C172.402 274.106 178.81 277.96 185.67 280.071C189.568 281.27 192.868 282.367 196.992 282.367H208.047H208.072C215.708 282.367 222.967 282.367 229.301 277.668C233.486 274.563 235.869 269.816 238.059 265.278C240.484 260.256 240.893 256.561 246.684 254.517C251.423 252.845 254.747 252.146 258.727 248.83C260.882 247.034 265.936 242.985 265.936 239.831C265.936 238.452 264.518 236.78 264.014 235.532L263.945 235.363C262.037 230.647 260.111 225.884 258.833 220.953C257.503 215.818 257.765 210.609 257.765 205.359C257.765 197.368 258.782 189.279 260.436 181.461C261.077 178.431 261.869 174.23 264.12 171.929C265.739 170.274 268.023 169.558 270.048 168.564C273.021 167.106 273.991 165.613 275.282 162.663C276.523 159.825 278.04 157.285 279.581 154.546C281.173 151.714 280.022 146.843 278.806 144.052C275.982 137.566 269.692 132.279 268.366 124.987C267.993 122.937 265.579 122.102 264.014 120.768C255.256 113.308 249.997 101.105 244.788 91.1824C234.23 71.0708 241.156 82.5039 232.078 66.4565C229.881 62.572 226.629 59.0514 223.16 56.2564C221.278 54.7406 219.311 53.2972 218.38 50.9695C216.538 46.3639 218.358 40.8074 216.671 36.1233C215.499 32.8666 210.734 30.5715 207.78 29.4478C198.614 25.9622 188.814 24.5454 179.022 24.2944C172.079 24.1163 164.088 23.4865 157.206 24.3745C151.988 25.0478 148.248 26.9574 143.882 29.7949C140.527 31.976 136.975 33.7397 132.801 32.8122C126.585 31.4309 119.854 32.1775 113.522 31.2101C105.728 30.0193 101.391 28.9999 93.4998 28.9999C91.6762 28.9999 89.0947 30.8929 88.9566 32.385C88.3828 38.582 87.1605 45.2867 84.5775 50.9695C82.582 55.3594 75.2786 58.2304 70.7993 56.9507C67.988 56.1474 66.6172 52.6931 63.4831 52.625C60.488 52.5599 57.7321 52.5679 54.8317 53.2124C48.7456 54.5649 37.1939 61.721 39.4514 69.3403C40.1819 71.8055 41.9189 72.8789 43.3766 74.9744C46.2499 79.1047 47.729 83.3016 47.729 88.3787C47.729 93.7373 48.4057 100.687 45.3258 105.388C43.4809 108.204 38.9321 107.141 36.9148 109.607C34.6358 112.392 34.86 116.528 32.7226 119.54Z" fill="#F4F7FA"/>
    <path d="M205.096 72.7903C205.096 72.7903 207.496 79.1318 210.057 78.9624C212.618 78.793 226.113 77.6854 228.332 81.0312C230.552 84.377 234.481 84.0649 237.617 83.0239C241.704 81.6669 246.888 78.0508 250.366 85.7835C253.844 93.5163 257.531 89.3673 259.931 90.4255C262.331 91.4836 262.033 93.2936 262.033 93.2936L257.026 100.787L188.135 94.6791L205.096 72.7903Z" fill="#1B5EC9"/>
    <path d="M64.9696 183.008C64.8597 181.198 65.2065 178.841 66.9673 178.464C68.4399 178.151 69.6813 179.549 70.4831 180.833C76.2675 190.099 78.0283 201.271 79.6658 212.09C79.9255 213.809 80.1738 215.639 79.4763 217.232C79.0025 218.32 78.1306 219.184 77.2019 219.906C75.3654 221.338 71.9898 223.502 69.5335 222.662C68.4683 222.297 68.0552 221.392 68.095 220.309C68.1575 218.618 68.3812 216.941 68.4001 215.245C68.4816 208.334 67.3141 201.492 66.3153 194.679C65.7353 190.809 65.2103 186.922 64.9696 183.008ZM241.869 182.434C241.829 180.621 241.289 178.3 239.504 178.073C238.01 177.882 236.89 179.379 236.196 180.724C231.191 190.441 230.351 201.718 229.608 212.64C229.491 214.376 229.394 216.219 230.216 217.749C230.785 218.794 231.718 219.583 232.707 220.232C234.655 221.506 238.203 223.38 240.574 222.334C241.607 221.881 241.945 220.943 241.816 219.869C241.615 218.189 241.247 216.538 241.096 214.848C240.449 207.972 241.05 201.051 241.494 194.177C241.744 190.271 241.952 186.353 241.869 182.434Z" fill="#FBD2B5"/>
    <path d="M199.591 72.7903C202.038 75.15 204.307 77.6857 206.378 80.3764C206.89 81.0429 207.601 81.5326 208.41 81.7759C209.221 82.0193 210.088 82.004 210.888 81.7322C213.686 80.7676 216.641 80.3061 219.072 81.7987C221.139 83.0709 222.232 85.4768 224.179 86.9257C227.153 89.1398 231.385 88.6119 234.848 87.2656C238.463 85.8604 241.819 83.6729 245.685 83.126C245.936 83.0869 246.191 83.0909 246.442 83.1374C248.032 83.4507 248.022 85.1825 248.289 86.5326C249.056 90.4368 251.088 92.4458 255.052 93.1009C256.586 93.3554 262.239 92.0319 262.04 93.1864C256.438 120.001 247.127 145.258 237.987 170.217C231.943 168.318 225.797 166.738 219.599 165.409C213.369 164.08 207.089 162.984 200.786 162.046C194.483 161.108 188.178 160.324 181.857 159.595C175.537 158.866 169.201 158.19 162.873 157.476C160.098 157.162 156.831 157.202 154.219 156.146C153.427 155.848 152.731 155.341 152.209 154.68C151.686 154.02 151.356 153.23 151.254 152.396C150.616 147.776 154.215 143.141 156.403 139.408C159.563 134.025 162.779 128.674 166.051 123.354C169.322 118.035 172.651 112.751 176.036 107.504C179.418 102.256 182.856 97.0423 186.352 91.8648C189.859 86.6629 193.422 81.4998 197.043 76.3754C197.263 76.0697 199.662 72.8586 199.591 72.7903Z" fill="#FF8D55"/>
    <path d="M243.779 122.627C243.648 122.626 243.52 122.592 243.406 122.528C243.294 122.463 243.199 122.37 243.131 122.258C243.062 122.146 243.024 122.017 243.021 121.886C243.015 121.754 243.043 121.624 243.104 121.507C246.732 114.37 249.58 106.855 251.598 99.0949C251.655 98.9044 251.781 98.7436 251.954 98.646C252.125 98.5482 252.326 98.5215 252.516 98.5713C252.706 98.621 252.871 98.7434 252.974 98.9126C253.077 99.0818 253.111 99.2849 253.069 99.4791C251.022 107.348 248.134 114.969 244.455 122.206C244.391 122.332 244.296 122.438 244.176 122.513C244.056 122.587 243.919 122.626 243.779 122.627ZM239.287 133.262C239.209 133.262 239.133 133.25 239.059 133.226C238.867 133.164 238.707 133.029 238.614 132.849C238.521 132.669 238.504 132.459 238.563 132.265C238.635 132.033 238.713 131.774 238.796 131.497C239.366 129.634 240.126 127.079 241.21 125.75C241.27 125.668 241.348 125.599 241.438 125.548C241.525 125.497 241.624 125.464 241.725 125.452C241.827 125.44 241.93 125.448 242.027 125.477C242.126 125.506 242.217 125.555 242.297 125.62C242.374 125.685 242.439 125.766 242.487 125.857C242.534 125.949 242.564 126.049 242.572 126.152C242.58 126.254 242.568 126.358 242.536 126.456C242.504 126.554 242.452 126.644 242.386 126.722C241.498 127.821 240.748 130.304 240.252 131.946C240.166 132.229 240.087 132.492 240.012 132.728C239.963 132.884 239.866 133.019 239.735 133.115C239.606 133.211 239.448 133.263 239.287 133.262Z" fill="black"/>
    <path d="M242.875 96.3069H242.857C242.341 96.3135 241.838 96.1284 241.436 95.7831C240.731 95.1452 240.557 93.9478 241.043 93.0568C241.272 92.6623 241.596 92.3405 241.98 92.1249C242.366 91.9093 242.799 91.8078 243.233 91.8309C243.395 91.8377 243.549 91.9074 243.667 92.0269C244.082 92.0897 244.461 92.3097 244.735 92.647C244.943 92.8901 245.095 93.183 245.177 93.5012C245.259 93.8195 245.269 94.1539 245.206 94.477C244.975 95.5229 243.975 96.3069 242.875 96.3069ZM242.921 93.2778C242.774 93.3029 242.635 93.3601 242.51 93.4462C242.386 93.5321 242.279 93.6445 242.199 93.7767C242.12 93.9207 242.087 94.0883 242.105 94.2542C242.122 94.4201 242.191 94.5752 242.299 94.6961C242.463 94.8255 242.663 94.8914 242.867 94.8832C243.353 94.8921 243.814 94.5589 243.904 94.1545C243.918 94.0549 243.909 93.9533 243.881 93.8576C243.851 93.7619 243.803 93.6744 243.737 93.6021C243.701 93.5526 243.654 93.5125 243.6 93.4848C243.547 93.457 243.488 93.4423 243.43 93.4417C243.338 93.4528 243.246 93.4439 243.159 93.4153C243.071 93.3868 242.991 93.3393 242.921 93.276V93.2778Z" fill="black"/>
    <path d="M244.096 92.9475C243.96 92.9475 243.825 92.9102 243.708 92.8392C243.591 92.7681 243.494 92.6661 243.43 92.5439C243.364 92.4218 243.333 92.2842 243.339 92.1454C243.345 92.0066 243.386 91.872 243.462 91.7559C247.969 84.685 250.398 76.4505 250.46 68.022C250.46 65.8621 250.271 63.1709 248.631 61.5212C247.582 60.4643 246.127 60.0504 245.091 59.8906C241.713 59.3709 237.92 60.5721 233.494 63.5694C224.591 69.5948 218.399 78.3557 216.505 87.6036C216.46 87.7994 216.343 87.9698 216.176 88.0781C216.01 88.1863 215.807 88.224 215.614 88.183C215.42 88.142 215.251 88.0256 215.14 87.8587C215.03 87.6918 214.988 87.4875 215.024 87.2898C216.999 77.6473 223.424 68.536 232.656 62.2873C237.409 59.0686 241.546 57.7866 245.318 58.3679C247.122 58.6471 248.637 59.3593 249.696 60.4277C251.733 62.4798 251.983 65.5676 251.966 68.0278C251.902 76.7535 249.388 85.2787 244.722 92.5991C244.654 92.705 244.561 92.7924 244.451 92.853C244.342 92.9138 244.221 92.9462 244.096 92.9475Z" fill="black"/>
    <path d="M249.301 90.7079C249.187 90.7079 249.075 90.6816 248.974 90.6315C248.796 90.5452 248.659 90.3919 248.594 90.2056C248.528 90.0192 248.541 89.8148 248.627 89.6373C250.061 86.7031 252.242 80.9947 252.601 77.4852C252.975 73.782 252.414 70.8757 250.916 68.8463C249.142 66.426 245.735 65.065 242.237 65.3628C239.31 65.6123 236.208 66.9175 233.017 69.2466C228.179 72.7817 224.388 77.5505 222.049 83.0502C221.972 83.2321 221.824 83.376 221.641 83.4501C221.455 83.5244 221.249 83.5227 221.066 83.4458C220.884 83.3688 220.738 83.2226 220.665 83.0394C220.59 82.8564 220.592 82.6512 220.669 82.4693C223.114 76.7224 227.074 71.739 232.132 68.0457C235.546 65.5527 238.904 64.1508 242.11 63.879C246.179 63.5327 250.016 65.0985 252.126 67.975C253.844 70.3116 254.503 73.5605 254.083 77.6453C253.709 81.3354 251.448 87.2654 249.966 90.2964C249.904 90.4193 249.808 90.5226 249.692 90.5952C249.574 90.6679 249.44 90.707 249.301 90.7079Z" fill="black"/>
    <path d="M144.581 44.9496C144.828 44.3375 145.252 43.8116 145.8 43.4378C146.347 43.064 146.993 42.859 147.658 42.8484L164.535 42.5677C166.378 42.5374 168.256 42.5127 170.021 43.038C171.824 43.5728 173.403 44.65 174.968 45.693C184.753 52.1829 195.141 57.7256 205.992 62.2449C206.458 62.4389 206.879 62.7241 207.23 63.0837C207.583 63.4432 207.859 63.8695 208.04 64.3372C208.223 64.8046 208.307 65.304 208.29 65.805C208.273 66.3062 208.155 66.7987 207.943 67.2533L187.377 111.159C181.215 124.303 175.054 137.472 169.809 151.008C167.175 157.805 164.77 164.712 163.206 171.829C163.135 172.18 162.996 172.512 162.795 172.809C161.977 173.989 160.841 173.568 159.909 173.13C152.269 169.496 146.08 163.517 140.029 157.642C134.813 152.578 129.587 147.502 124.928 141.926C122.827 139.41 120.785 136.679 120.098 133.482C119.41 130.284 120.147 126.952 120.896 123.759C122.204 118.119 123.57 112.488 124.94 106.864C126.328 101.186 127.744 95.5147 129.19 89.8509C129.854 87.2452 130.761 84.5997 131.077 81.9239C131.268 80.3214 131.157 78.738 131.6 77.1677C132.364 74.4919 133.642 71.9052 134.687 69.3318L137.974 61.2284L144.581 44.9496Z" fill="white"/>
    <path d="M161.43 174.697C160.649 174.697 159.927 174.353 159.544 174.172C151.652 170.426 145.379 164.341 139.304 158.457C134.12 153.435 128.758 148.241 124.032 142.599C121.996 140.166 119.759 137.279 119.002 133.78C118.246 130.281 119.081 126.782 119.811 123.674C120.947 118.789 122.205 113.547 123.888 106.681C125.279 101.001 126.721 95.2407 128.172 89.5682C128.365 88.8303 128.573 88.0809 128.775 87.3564C129.297 85.4992 129.834 83.5791 130.057 81.6971C130.12 81.1594 130.149 80.6046 130.178 80.0669C130.234 79.0048 130.294 77.9065 130.607 76.7968C131.16 74.8462 131.986 72.9414 132.784 71.1014C133.106 70.3578 133.439 69.5874 133.747 68.8381L143.718 44.3231C144.024 43.5684 144.548 42.9201 145.225 42.4594C145.901 41.9988 146.7 41.7463 147.521 41.7337L164.525 41.4477C166.331 41.4191 168.375 41.3848 170.288 41.9511C172.142 42.5021 173.753 43.5623 175.293 44.5881L175.486 44.714C185.306 51.2097 195.733 56.7587 206.622 61.2855C207.186 61.5204 207.698 61.8657 208.123 62.3008C208.551 62.7361 208.886 63.2521 209.105 63.8178C209.326 64.3837 209.43 64.988 209.409 65.5943C209.39 66.2007 209.246 66.7967 208.988 67.347L188.257 111.498C182.157 124.488 175.849 137.929 170.569 151.514C168.381 157.151 165.651 164.61 163.95 172.338C163.858 172.788 163.677 173.213 163.419 173.595C162.833 174.439 162.11 174.697 161.43 174.697ZM144.43 44.6053L145.144 44.8894L135.173 69.4044C134.861 70.1671 134.524 70.9469 134.199 71.6925C133.429 73.4886 132.615 75.3458 132.091 77.1991C131.822 78.1525 131.77 79.1059 131.706 80.1374C131.676 80.698 131.645 81.2815 131.576 81.8649C131.341 83.8651 130.786 85.8424 130.249 87.7549C130.057 88.4718 129.841 89.2116 129.656 89.9324C128.207 95.603 126.769 101.356 125.374 107.032C123.693 113.896 122.436 119.127 121.301 124.002C120.608 126.958 119.822 130.308 120.5 133.446C121.177 136.585 123.287 139.319 125.208 141.611C129.882 147.192 135.217 152.357 140.372 157.353C146.357 163.151 152.547 169.146 160.198 172.784C161.409 173.356 161.79 173.221 162.141 172.716C162.285 172.498 162.385 172.254 162.437 171.999C164.169 164.169 166.914 156.64 169.122 150.954C174.419 137.315 180.739 123.855 186.85 110.84L207.575 66.6968C207.744 66.333 207.839 65.9393 207.852 65.5388C207.864 65.1384 207.796 64.7395 207.65 64.3658C207.504 63.9923 207.282 63.6515 207.001 63.364C206.72 63.0767 206.381 62.8482 206.01 62.6926C195.029 58.1287 184.515 52.5329 174.614 45.982L174.421 45.8561C172.968 44.9027 171.466 43.8979 169.832 43.4136C168.152 42.914 166.314 42.9445 164.537 42.9731L147.531 43.2477C147.013 43.2553 146.508 43.4147 146.081 43.7053C145.654 43.9961 145.323 44.4053 145.13 44.8818L144.43 44.6053Z" fill="black"/>
    <path d="M187.042 67.571C186.909 67.571 186.775 67.571 186.64 67.5519C185.932 67.4853 185.326 67.1711 184.791 66.9007C184.513 66.7483 184.223 66.616 183.926 66.5046C175.971 63.7775 168.548 58.9063 161.375 54.1873C160.233 53.4408 159.094 52.6968 157.959 51.9555C157.789 51.8452 157.669 51.6723 157.627 51.4744C157.585 51.2766 157.624 51.0701 157.734 50.9004C157.844 50.7306 158.018 50.6118 158.214 50.5695C158.412 50.5274 158.62 50.5655 158.789 50.6757C159.932 51.4171 161.074 52.163 162.217 52.9133C169.317 57.5751 176.659 62.3931 184.431 65.0573C184.797 65.1921 185.153 65.3532 185.498 65.5391C185.951 65.7714 186.377 65.9904 186.796 66.0304C187.41 66.0894 188.076 65.9199 188.724 65.7562L197.26 63.5928C197.357 63.5677 197.458 63.5622 197.557 63.5761C197.656 63.5902 197.751 63.6235 197.839 63.6745C197.924 63.7254 197.999 63.7928 198.059 63.873C198.12 63.9529 198.164 64.0442 198.189 64.1413C198.214 64.2382 198.219 64.3393 198.206 64.4385C198.191 64.5378 198.159 64.6332 198.107 64.7194C198.056 64.8057 197.989 64.8811 197.909 64.9415C197.829 65.0017 197.738 65.0455 197.64 65.0706L189.086 67.2377C188.421 67.4337 187.733 67.5456 187.042 67.571ZM154.159 49.4265C154.018 49.4267 153.879 49.3871 153.761 49.3122C152.582 48.5886 151.497 47.9411 150.442 47.3374C150.354 47.2874 150.278 47.2207 150.217 47.1413C150.156 47.0619 150.112 46.9712 150.086 46.8745C150.06 46.7778 150.053 46.6768 150.066 46.5776C150.079 46.4782 150.111 46.3824 150.162 46.2958C150.211 46.2089 150.278 46.1328 150.358 46.0718C150.436 46.0107 150.527 45.9659 150.625 45.94C150.722 45.914 150.823 45.9073 150.922 45.9202C151.021 45.9334 151.116 45.9658 151.204 46.0158C152.272 46.6271 153.371 47.2822 154.563 48.0154C154.704 48.1022 154.814 48.2329 154.873 48.3877C154.934 48.5423 154.942 48.7126 154.898 48.8723C154.853 49.0321 154.755 49.1728 154.624 49.2728C154.491 49.3728 154.329 49.4269 154.163 49.4265H154.159ZM156.805 141.101C156.702 141.101 156.601 141.081 156.508 141.042C156.414 141.003 156.332 140.946 156.262 140.875C156.191 140.803 156.136 140.719 156.098 140.626C156.06 140.533 156.041 140.434 156.043 140.333C156.043 140.233 156.064 140.134 156.104 140.042C157.075 137.757 157.662 135.992 158.406 133.758C159.69 129.904 161.453 124.617 166.443 112.81L183.692 71.9662C183.772 71.7826 183.921 71.6381 184.107 71.564C184.294 71.4897 184.501 71.4918 184.686 71.5697C184.871 71.6476 185.018 71.795 185.094 71.9799C185.17 72.165 185.17 72.3728 185.096 72.5584L167.851 113.401C162.88 125.168 161.132 130.412 159.852 134.244C159.09 136.506 158.502 138.294 157.505 140.638C157.446 140.776 157.349 140.893 157.224 140.975C157.1 141.057 156.953 141.101 156.805 141.101Z" fill="black"/>
    <path d="M148.306 65.5376C148.711 64.5016 149.205 63.367 150.22 62.9148C151.311 62.4238 152.566 62.9148 153.665 63.4134L171.848 71.6318C172.83 72.0763 173.882 72.5846 174.388 73.5452C175.086 74.875 174.468 76.4908 173.842 77.8573C167.639 91.4011 160.821 104.635 153.393 117.557C153.156 117.969 152.892 118.406 152.461 118.599C151.872 118.862 151.194 118.582 150.612 118.303L131.022 108.983C132.219 106.664 133.702 104.376 134.322 101.832C135.005 99.0622 136.248 96.4201 137.283 93.7663L144.365 75.6578L146.353 70.5552L147.364 67.9671C147.613 67.3158 148.306 66.2295 148.306 65.5376Z" fill="#1B5EC9"/>
    <path d="M141.063 107.019C140.592 107.9 141.201 109.04 142.16 109.476C143.12 109.913 144.287 109.771 145.271 109.386C146.469 108.917 147.556 108.012 147.782 106.836C147.909 106.067 147.716 105.283 147.241 104.64C146.152 103.113 143.71 102.561 141.977 103.459C140.244 104.356 139.48 106.551 140.33 108.201L141.063 107.019Z" fill="black"/>
    <path d="M148.283 78.0448L142.493 95.073C142.302 95.6028 142.131 96.1708 142.274 96.7121C142.464 97.4288 143.157 97.8748 143.799 98.2483C146.369 99.7426 148.988 101.157 151.659 102.493C152.349 102.84 153.135 103.189 153.869 102.945C154.506 102.731 154.918 102.127 155.278 101.561C159.889 94.3027 163.993 86.735 167.562 78.912C167.867 78.2411 168.168 77.4501 167.825 76.7983C167.6 76.3733 167.152 76.1217 166.728 75.8949L157.365 70.8611C155.761 69.9977 152.355 68.3223 151.109 70.5085C150.583 71.431 150.301 72.567 149.906 73.5581C149.307 75.0295 148.798 76.5372 148.283 78.0448Z" fill="white"/>
    <path d="M35.6343 109.361C34.4202 107.124 33.1776 104.631 33.7313 102.146C34.2642 99.7174 36.3631 97.9838 38.4069 96.5681C43.1261 93.3046 48.2526 90.6785 53.4001 88.1457C75.1491 77.4473 97.5906 68.2183 120.574 60.5209C123.238 59.6304 126.195 58.7664 128.773 59.8758C132.062 61.2897 133.304 65.225 134.126 68.7073C139.82 92.8098 143.325 117.369 146.825 141.886C147.455 146.297 149.765 164.742 150.06 169.188C150.148 170.504 79.2705 171.661 75.6549 171.254C73.2363 170.982 71.7177 169.437 70.3724 167.524C67.9728 164.111 65.8053 160.508 63.5751 156.98C58.9447 149.654 54.4301 142.256 50.0319 134.786C45.6336 127.317 41.3513 119.781 37.1852 112.18C36.6662 111.24 36.1494 110.3 35.6343 109.361Z" fill="#FACBDF"/>
    <path d="M101.55 161.589C102.461 163.32 103.449 165.13 105.121 166.174C106.792 167.219 109.367 167.126 110.411 165.48C111.838 163.231 109.61 160.544 107.807 158.577C105.823 156.411 104.177 153.97 102.596 151.506C88.4457 129.501 78.7929 105.032 69.5435 80.6292C69.0262 80.7833 67.7812 80.9089 67.4049 81.2838C66.9937 81.6909 67.2775 82.2009 67.4222 82.7146C67.8198 84.134 68.2316 85.5502 68.6575 86.9634C69.5068 89.7857 70.4076 92.5923 71.3598 95.383C73.2552 100.941 75.3418 106.434 77.573 111.866C79.8178 117.335 82.2055 122.742 84.7147 128.101C87.2239 133.459 89.7969 138.743 92.4547 144.009C95.1126 149.276 97.8592 154.554 100.61 159.802C100.919 160.396 101.227 160.995 101.55 161.589Z" fill="#FF5400"/>
    <path d="M137.947 92.9476C139.196 94.2954 139.918 96.0435 139.982 97.875C108.824 107.454 78.6909 120.057 50.0181 135.502C50.3691 135.24 46.766 128.329 47.0502 126.917C47.2962 125.702 48.4407 125.221 49.4745 124.777C51.1174 124.073 52.7623 123.378 54.409 122.692C61.0215 119.913 67.67 117.222 74.3549 114.621C81.0399 112.019 87.7571 109.504 94.5069 107.074C101.259 104.652 108.044 102.325 114.861 100.092C121.678 97.8599 128.528 95.7289 135.412 93.7C136.257 93.4433 137.102 93.1926 137.947 92.9476Z" fill="#FF5400"/>
    <path d="M60.696 106.24C60.2868 106.24 59.8178 106.263 59.5553 106.575C59.2928 106.886 59.343 107.276 59.3912 107.646C60.0257 112.388 61.946 116.873 64.9501 120.631C65.4423 121.245 66.0233 121.874 66.8031 122.026C67.7489 122.216 68.658 121.646 69.4571 121.11C77.5078 115.755 86.6104 111.443 96.3076 110.848L85.4659 95.7674C84.7266 94.7393 83.4372 93.5877 82.3679 94.2756C81.9279 94.5587 81.7155 95.0756 81.5399 95.564C80.7109 97.8621 80.1008 100.231 79.7178 102.641C79.3549 104.921 79.6001 107.352 79.1272 109.585C78.5655 112.236 76.7357 110.649 75.1279 109.828C73.0132 108.75 70.7856 107.902 68.4842 107.299C65.9422 106.632 63.3265 106.276 60.696 106.24Z" fill="#FF5400"/>
    <path d="M65.1907 142.511C64.8437 144.354 64.6893 146.553 66.0524 147.82L71.0394 142.294C71.5827 141.689 72.1699 141.057 72.9458 140.84C74.3432 140.453 75.7253 141.546 76.5679 142.742C77.4105 143.938 78.0778 145.357 79.3169 146.122C79.6297 146.344 80.0104 146.445 80.3902 146.407C80.6729 146.341 80.9316 146.196 81.1375 145.988C82.3385 144.884 82.5482 143.081 82.6492 141.431C82.9272 136.84 82.9413 132.237 82.6912 127.644C82.564 125.346 82.3734 123.055 82.1192 120.771C81.8867 118.705 81.8791 116.163 81.0536 114.239C80.291 112.45 79.2025 113.019 78.2722 114.285C77.1551 115.803 76.0665 117.367 74.9971 118.924C70.137 126 66.7951 134.036 65.1888 142.511H65.1907Z" fill="#FF5400"/>
    <path d="M235.821 144.461C235.767 144.46 235.715 144.455 235.664 144.443C235.464 144.402 235.29 144.283 235.179 144.114C235.067 143.944 235.027 143.738 235.069 143.539C235.297 142.448 237.218 135.658 238.15 133.137C238.181 133.038 238.233 132.947 238.3 132.869C238.367 132.791 238.451 132.727 238.543 132.682C238.637 132.636 238.739 132.61 238.842 132.605C238.946 132.599 239.049 132.615 239.145 132.651C239.243 132.686 239.331 132.741 239.408 132.812C239.483 132.883 239.542 132.968 239.584 133.063C239.627 133.158 239.648 133.26 239.648 133.364C239.648 133.467 239.628 133.569 239.588 133.665C238.7 136.071 236.787 142.811 236.57 143.851C236.534 144.023 236.44 144.177 236.304 144.288C236.168 144.4 235.997 144.46 235.821 144.461ZM214.156 91.2222C213.638 91.2299 213.134 91.0758 212.708 90.7816C212.285 90.4872 211.965 90.0679 211.792 89.5822C211.619 89.0966 211.606 88.5693 211.75 88.0748C211.894 87.5803 212.191 87.1433 212.597 86.8258C212.868 86.5966 213.186 86.4271 213.527 86.3283C213.868 86.2296 214.227 86.2036 214.58 86.2524C214.704 86.2724 214.821 86.3229 214.923 86.3994C215.023 86.4756 215.103 86.5754 215.155 86.6901C215.467 86.7964 215.751 86.976 215.979 87.2138C216.209 87.4516 216.378 87.7406 216.472 88.0568C216.574 88.3978 216.597 88.757 216.543 89.1083C216.487 89.4598 216.355 89.7947 216.154 90.0887C215.962 90.3924 215.705 90.6503 215.4 90.8434C215.097 91.0362 214.754 91.1599 214.398 91.205C214.319 91.2165 214.236 91.2222 214.156 91.2222ZM213.985 87.7911C213.832 87.8326 213.688 87.9069 213.567 88.009C213.46 88.091 213.37 88.1942 213.305 88.3122C213.238 88.4303 213.197 88.5607 213.184 88.6952C213.184 88.8311 213.215 88.9655 213.27 89.089C213.328 89.2127 213.41 89.3228 213.514 89.412C213.608 89.5063 213.719 89.5795 213.843 89.6269C213.968 89.6745 214.1 89.6949 214.233 89.6873C214.363 89.6659 214.49 89.616 214.599 89.5414C214.71 89.4669 214.802 89.3692 214.871 89.2553C214.946 89.1496 214.998 89.029 215.023 88.9015C215.046 88.7742 215.042 88.6432 215.011 88.5175C214.944 88.3015 214.768 88.1352 214.641 88.1352C214.511 88.1386 214.38 88.1088 214.265 88.0486C214.15 87.9884 214.051 87.8997 213.98 87.7911H213.985Z" fill="black"/>
    <path d="M41.0944 108.092C41.7968 109.164 43.3976 108.493 43.2325 107.209C43.0675 105.977 42.8352 104.719 43.0406 103.524C43.4091 101.433 45.0732 99.8639 46.8045 98.7524C48.6797 97.5485 50.7756 96.6597 52.2862 94.9583C52.4038 94.8309 52.4952 94.6798 52.5547 94.5141C52.614 94.3485 52.6403 94.1718 52.6316 93.9952C52.5702 93.1505 51.7219 92.9539 51.029 92.9479C47.2977 92.9178 43.8582 95.1248 40.9063 97.2957C39.6491 98.2187 38.2825 99.587 38.0944 101.282C37.9408 102.675 38.7393 103.963 39.3842 105.111C39.9389 106.096 40.4821 107.093 41.0694 108.058C41.0769 108.07 41.0851 108.081 41.0944 108.092Z" fill="white"/>
    <path d="M64.2374 166.718C71.152 190.732 76.2061 223.57 84.9773 238.757C86.1769 240.842 86.3507 243.451 87.9647 245.233C91.0992 248.687 96.4417 248.744 101.12 248.541L205.362 244.021C207.965 243.909 210.601 243.792 213.098 243.049C218.488 241.445 222.675 237.045 225.261 232.084C227.847 227.122 229.047 221.583 230.227 216.119C234.487 196.288 238.746 176.455 243.008 156.623C236.659 156.43 230.309 156.269 223.96 156.138C217.611 156.007 211.26 155.906 204.909 155.833C198.531 155.757 192.151 155.707 185.774 155.683C179.422 155.656 173.071 155.652 166.72 155.67C160.369 155.687 154.018 155.721 147.667 155.772C141.314 155.823 134.962 155.886 128.612 155.961C122.261 156.037 115.909 156.126 109.556 156.229C103.177 156.329 96.7976 156.435 90.4192 156.551C84.0687 156.663 77.7176 156.779 71.3659 156.902C69.1502 156.943 66.3997 156.608 64.289 157.47C62.0656 158.38 62.7132 160.705 63.1429 162.566C63.4505 163.971 63.8439 165.344 64.2374 166.718Z" fill="#1B5EC9"/>
    <path d="M29.0914 202.693C27.8337 202.693 26.6616 202.07 25.8358 201.559C22.3571 199.39 19.5551 196.282 17.7489 192.591C17.199 191.459 16.6073 189.961 16.8565 188.386C17.1914 186.314 18.8069 184.907 20.4338 183.643C23.7027 181.101 27.0745 178.599 30.4557 176.204C36.4571 171.955 42.702 167.891 49.0193 164.127C50.5948 163.189 52.2026 162.25 53.8029 161.341L54.271 161.067C55.2908 160.465 56.5543 159.714 57.8862 159.756C59.0279 159.794 59.536 160.358 59.7586 160.826C60.8108 163.032 57.3059 167.75 57.1556 167.95L33.1805 199.935C32.4917 200.854 31.4528 202.242 29.8868 202.599C29.6259 202.658 29.3591 202.691 29.0914 202.693ZM20.9095 184.253L21.3642 184.859C19.979 185.935 18.6052 187.115 18.3578 188.638C18.1675 189.785 18.6661 190.993 19.1189 191.922C20.7981 195.353 23.4023 198.241 26.6349 200.258C27.8755 201.022 28.7756 201.29 29.55 201.112C30.5014 200.898 31.2302 200.002 31.9646 199.021L55.9397 167.037C57.207 165.343 58.7939 162.344 58.3867 161.493C58.3258 161.369 58.1412 161.302 57.8368 161.291C56.9558 161.264 55.9435 161.864 55.0473 162.39C54.8799 162.489 54.7162 162.581 54.5583 162.677C52.9676 163.583 51.3673 164.516 49.8013 165.448C43.5221 169.191 37.3076 173.234 31.3443 177.46C27.9726 179.842 24.618 182.33 21.3642 184.859L20.9095 184.253ZM269.522 197.326C269.381 197.326 269.238 197.314 269.099 197.291C268.089 197.123 267.387 196.385 266.816 195.705C263.391 191.643 260.602 187.057 257.902 182.621L248.388 166.985C248.123 166.549 247.838 166.115 247.537 165.657C246.565 164.173 245.56 162.64 245.12 160.893C244.808 159.658 244.496 157.407 245.903 156.226C247.558 154.838 249.868 156.327 251.249 157.216C251.421 157.327 251.58 157.43 251.721 157.516C253.769 158.766 255.835 160.138 257.862 161.597C264.974 166.714 271.974 173.113 279.258 181.162C280.919 182.995 282.737 185.436 282.055 188.044C281.565 189.922 279.991 191.115 278.421 192.176C276.271 193.633 274.064 195.07 271.862 196.448C271.149 196.901 270.384 197.326 269.522 197.326ZM259.213 181.827C261.876 186.224 264.643 190.75 267.988 194.722C268.405 195.215 268.852 195.703 269.352 195.787C269.853 195.871 270.458 195.536 271.065 195.156C273.251 193.787 275.441 192.36 277.58 190.915C278.912 190.016 280.244 189.024 280.59 187.665C281.083 185.778 279.639 183.842 278.139 182.198C270.928 174.231 264.008 167.901 256.982 162.847C254.986 161.411 252.954 160.06 250.939 158.833C250.787 158.741 250.618 158.63 250.433 158.512C249.406 157.85 247.684 156.74 246.886 157.409C246.236 157.955 246.315 159.379 246.603 160.528C246.983 162.025 247.914 163.449 248.816 164.825C249.111 165.274 249.415 165.739 249.695 166.198L259.213 181.827Z" fill="black"/>
    <path d="M100.62 215.323C100.452 215.323 100.289 215.266 100.156 215.164C100.023 215.062 99.9282 214.918 99.8862 214.756C96.575 202.071 94.1512 191.725 91.0903 177.173C91.0385 177.09 91.0032 176.997 90.986 176.901L90.7167 175.39C90.6871 175.197 90.7338 174.998 90.847 174.84C90.96 174.681 91.1307 174.571 91.3234 174.534C91.5159 174.496 91.7152 174.536 91.8796 174.641C92.044 174.749 92.1609 174.913 92.2054 175.104C95.4295 190.572 97.9177 201.217 101.356 214.382C101.381 214.478 101.387 214.578 101.373 214.677C101.359 214.775 101.326 214.869 101.276 214.954C101.225 215.041 101.158 215.115 101.079 215.175C100.999 215.236 100.908 215.279 100.812 215.304C100.749 215.319 100.684 215.325 100.62 215.323ZM128.775 202.284C128.587 202.284 128.404 202.216 128.264 202.09C128.124 201.965 128.036 201.791 128.017 201.604L125.402 175.69C125.273 174.403 125.125 172.945 124.427 171.841C124.37 171.758 124.33 171.664 124.31 171.564C124.291 171.464 124.291 171.362 124.312 171.263C124.332 171.163 124.373 171.069 124.431 170.986C124.489 170.902 124.563 170.832 124.649 170.778C124.735 170.723 124.831 170.687 124.932 170.672C125.032 170.655 125.135 170.659 125.234 170.683C125.332 170.706 125.425 170.749 125.507 170.81C125.589 170.87 125.657 170.948 125.709 171.035C126.598 172.438 126.765 174.086 126.911 175.539L129.53 201.451C129.54 201.549 129.531 201.65 129.502 201.746C129.474 201.84 129.427 201.929 129.363 202.007C129.3 202.084 129.223 202.146 129.135 202.194C129.047 202.241 128.951 202.271 128.851 202.281L128.775 202.284ZM129.891 213.817C129.705 213.819 129.525 213.753 129.385 213.63C129.245 213.507 129.155 213.339 129.132 213.156L128.504 208.206C128.492 208.107 128.499 208.007 128.525 207.911C128.552 207.816 128.597 207.726 128.658 207.648C128.719 207.569 128.795 207.503 128.881 207.454C128.968 207.405 129.063 207.374 129.162 207.361C129.261 207.348 129.362 207.355 129.458 207.382C129.554 207.408 129.644 207.454 129.722 207.514C129.801 207.575 129.867 207.65 129.917 207.737C129.966 207.822 129.998 207.918 130.01 208.017L130.638 212.969C130.65 213.067 130.643 213.167 130.617 213.263C130.591 213.358 130.546 213.449 130.484 213.526C130.423 213.605 130.347 213.671 130.261 213.721C130.174 213.77 130.079 213.8 129.98 213.813L129.891 213.817ZM158.714 216.447C158.513 216.447 158.319 216.368 158.177 216.226C158.035 216.084 157.955 215.891 157.955 215.691L158.185 174.466C158.185 174.265 158.264 174.073 158.407 173.931C158.549 173.789 158.742 173.71 158.943 173.71C159.144 173.71 159.338 173.789 159.48 173.931C159.622 174.073 159.702 174.265 159.702 174.466L159.48 215.686C159.48 215.786 159.461 215.886 159.423 215.978C159.385 216.071 159.328 216.156 159.256 216.226C159.186 216.298 159.101 216.352 159.008 216.39C158.915 216.428 158.814 216.447 158.714 216.447ZM158.754 227.33C158.553 227.33 158.359 227.25 158.217 227.109C158.075 226.967 157.995 226.774 157.995 226.574V223.606C157.995 223.405 158.075 223.213 158.217 223.071C158.359 222.929 158.553 222.85 158.754 222.85C158.955 222.85 159.148 222.929 159.29 223.071C159.433 223.213 159.512 223.405 159.512 223.606V226.574C159.512 226.774 159.433 226.967 159.29 227.109C159.148 227.25 158.955 227.33 158.754 227.33ZM188.46 196.949C188.421 196.949 188.381 196.945 188.343 196.939C188.144 196.909 187.965 196.802 187.846 196.639C187.728 196.478 187.679 196.276 187.709 196.078C189.062 187.311 190.713 178.441 192.619 169.716C192.64 169.62 192.68 169.527 192.737 169.446C192.794 169.364 192.866 169.295 192.949 169.24C193.035 169.187 193.128 169.151 193.226 169.132C193.323 169.115 193.423 169.117 193.522 169.138C193.619 169.159 193.712 169.198 193.793 169.255C193.875 169.312 193.945 169.383 193.998 169.468C194.053 169.552 194.089 169.644 194.108 169.742C194.125 169.841 194.123 169.941 194.102 170.037C192.206 178.728 190.556 187.57 189.208 196.299C189.181 196.478 189.092 196.643 188.955 196.762C188.819 196.881 188.642 196.947 188.46 196.949ZM213.691 210.837C213.633 210.837 213.572 210.832 213.515 210.817C213.418 210.794 213.325 210.752 213.244 210.696C213.162 210.637 213.094 210.564 213.041 210.48C212.988 210.395 212.952 210.301 212.937 210.203C212.919 210.104 212.923 210.004 212.946 209.908C216.104 196.667 218.531 183.264 220.219 169.759C220.23 169.661 220.263 169.565 220.312 169.48C220.361 169.393 220.428 169.317 220.507 169.257C220.585 169.196 220.674 169.151 220.771 169.125C220.868 169.098 220.968 169.091 221.067 169.104C221.165 169.117 221.26 169.147 221.348 169.196C221.435 169.245 221.511 169.312 221.571 169.391C221.632 169.468 221.678 169.559 221.704 169.654C221.731 169.75 221.736 169.85 221.725 169.948C220.033 183.508 217.598 196.966 214.429 210.261C214.389 210.426 214.294 210.571 214.16 210.677C214.027 210.781 213.862 210.837 213.691 210.837Z" fill="white"/>
    <path d="M67.264 208.873C64.332 210.789 61.3444 212.875 59.5756 215.9C57.8068 218.925 57.6094 223.157 60.0489 225.671C61.6797 227.349 64.3282 228.196 65.0851 230.408C65.4301 231.416 65.294 232.516 65.3323 233.575C65.4741 237.451 68.2318 241.096 71.9227 242.286C72.4344 242.451 73.0035 242.602 73.314 243.052C73.6244 243.502 73.5746 244.098 73.565 244.648C73.4999 248.987 78.0761 252.755 82.3247 251.857C81.8418 255.152 85.0076 258.081 88.3038 258.576C91.5999 259.07 94.8807 257.809 97.9565 256.539C108.688 252.083 117.668 244.815 126.863 237.7C132.089 233.655 130.165 228.222 124.228 231.399L106.17 240.966C103.522 242.115 100.716 243.265 97.8913 243.585C96.4387 243.748 95.6799 241.903 96.8431 241.016C105.683 234.274 116.319 230.081 125.654 223.95C131.753 219.944 129.594 216.479 128.409 215.598C127.091 214.609 124.879 214.931 123.308 215.429C112.822 218.755 102.42 225.916 92.9529 230.393C88.9688 232.276 84.7585 230.728 87.1827 227.969C98.9511 220.295 104.047 216.54 115.819 208.867C117.632 207.685 120.549 205.063 118.793 201.72C116.804 197.934 113.274 199.421 106.875 203.183C97.8933 208.465 92.4489 212.109 83.1756 216.866C78.3195 219.356 75.3913 217.603 80.4045 213.812C86.9297 208.873 92.3205 204.706 99.5011 200.482C102.247 198.865 107.5 196.565 106.875 192.524C106.684 191.287 105.262 187.628 99.5931 190.085C92.4086 193.206 85.366 197.963 78.5897 201.892C74.7545 204.115 70.9793 206.442 67.264 208.873Z" fill="#FBD2B5"/>
    <path d="M69.4731 228.308C69.3573 228.308 69.243 228.281 69.139 228.232C69.0349 228.18 68.9437 228.108 68.8722 228.017C68.1753 227.128 67.6235 226.137 67.2372 225.078C67.2031 224.984 67.1876 224.884 67.1922 224.785C67.1966 224.684 67.2208 224.587 67.2632 224.495C67.3055 224.406 67.3654 224.324 67.4394 224.256C67.5135 224.189 67.5999 224.136 67.6941 224.102C67.7884 224.069 67.8883 224.054 67.9885 224.058C68.0886 224.062 68.1869 224.086 68.2777 224.128C68.3683 224.17 68.45 224.231 68.5175 224.303C68.5852 224.378 68.6377 224.465 68.6718 224.558C69.0026 225.466 69.476 226.316 70.074 227.077C70.1625 227.189 70.2175 227.324 70.2326 227.467C70.2478 227.608 70.2226 227.752 70.1599 227.88C70.0973 228.009 69.9996 228.116 69.8781 228.192C69.7566 228.268 69.6164 228.308 69.4731 228.308ZM78.9529 241.525C78.8496 241.525 78.7476 241.504 78.653 241.464C78.5581 241.422 78.4727 241.363 78.4015 241.289C77.71 240.568 77.1237 239.754 76.6597 238.871C76.5659 238.692 76.547 238.483 76.6075 238.291C76.6679 238.099 76.8028 237.937 76.9822 237.844C77.1615 237.751 77.3708 237.732 77.564 237.793C77.7571 237.852 77.9185 237.987 78.0123 238.166C78.4088 238.923 78.9111 239.621 79.5042 240.237C79.6078 240.346 79.6774 240.481 79.7043 240.627C79.7312 240.774 79.7142 240.926 79.6555 241.063C79.5967 241.2 79.4987 241.318 79.3739 241.399C79.2489 241.481 79.1024 241.525 78.9529 241.525ZM87.9459 250.846C87.7807 250.846 87.6201 250.793 87.4881 250.694C86.7652 250.152 86.1231 249.513 85.5803 248.792C85.5174 248.712 85.471 248.621 85.4439 248.524C85.417 248.425 85.4098 248.324 85.4228 248.223C85.4359 248.122 85.4689 248.025 85.5201 247.938C85.5712 247.85 85.6395 247.774 85.7208 247.713C85.8018 247.652 85.8946 247.607 85.993 247.582C86.0916 247.557 86.1941 247.553 86.2946 247.569C86.3951 247.584 86.4915 247.618 86.5781 247.671C86.6649 247.725 86.7401 247.795 86.7994 247.877C87.2536 248.48 87.7912 249.016 88.3962 249.469C88.5244 249.564 88.619 249.699 88.6669 249.852C88.7146 250.004 88.7129 250.167 88.6619 250.319C88.611 250.472 88.5135 250.603 88.3834 250.696C88.2531 250.789 88.0966 250.839 87.9364 250.839L87.9459 250.846ZM101.132 197.313C100.456 197.326 99.7848 197.203 99.1595 196.946C98.7459 196.761 98.374 196.497 98.0661 196.164C97.7584 195.833 97.5209 195.443 97.3681 195.019C97.25 194.699 97.2008 194.361 97.2235 194.022C97.2462 193.682 97.3402 193.353 97.4997 193.052C97.544 192.957 97.6071 192.873 97.6853 192.805C97.7634 192.736 97.8549 192.683 97.9539 192.652C98.0532 192.62 98.1579 192.607 98.2617 192.618C98.3655 192.628 98.4662 192.658 98.5576 192.708C98.6489 192.757 98.7292 192.826 98.7932 192.907C98.8571 192.991 98.9036 193.084 98.9296 193.185C98.9555 193.286 98.9607 193.391 98.9445 193.493C98.9282 193.596 98.891 193.695 98.8351 193.782C98.7789 193.897 98.7472 194.022 98.7422 194.15C98.7373 194.279 98.7592 194.405 98.8065 194.524C98.8897 194.749 99.0168 194.956 99.1804 195.133C99.3441 195.308 99.5414 195.451 99.7604 195.55C100.602 195.913 101.598 195.805 102.813 195.628C102.912 195.612 103.013 195.618 103.11 195.643C103.207 195.668 103.299 195.711 103.379 195.77C103.46 195.829 103.528 195.905 103.579 195.991C103.63 196.077 103.664 196.172 103.679 196.271C103.693 196.37 103.688 196.47 103.664 196.567C103.639 196.664 103.596 196.756 103.536 196.836C103.476 196.916 103.401 196.984 103.315 197.035C103.229 197.087 103.133 197.119 103.034 197.134C102.405 197.239 101.77 197.3 101.132 197.313ZM114.047 207.664H113.996C112.775 207.582 111.73 207.104 111.054 206.321C110.203 205.337 110.062 203.897 110.717 202.896C110.769 202.809 110.839 202.731 110.922 202.672C111.005 202.611 111.099 202.567 111.199 202.545C111.3 202.522 111.403 202.518 111.504 202.537C111.606 202.554 111.702 202.592 111.788 202.647C111.875 202.704 111.948 202.777 112.006 202.862C112.063 202.946 112.103 203.043 112.122 203.144C112.141 203.245 112.14 203.347 112.118 203.448C112.096 203.547 112.054 203.642 111.995 203.726C111.712 204.158 111.804 204.867 112.21 205.328C112.617 205.788 113.302 206.089 114.099 206.146C114.301 206.153 114.493 206.239 114.631 206.387C114.769 206.534 114.843 206.73 114.836 206.931C114.829 207.135 114.743 207.325 114.595 207.462C114.447 207.601 114.25 207.675 114.047 207.667V207.664ZM123.516 223.521C123.396 223.521 123.277 223.493 123.17 223.438C122.026 222.858 121.194 221.982 120.822 220.965C120.357 219.694 120.696 218.248 121.65 217.451C121.805 217.322 122.006 217.259 122.208 217.276C122.409 217.295 122.596 217.392 122.726 217.546C122.856 217.7 122.919 217.902 122.901 218.102C122.883 218.303 122.786 218.49 122.631 218.619C122.175 219 122.014 219.783 122.249 220.442C122.484 221.1 123.058 221.672 123.855 222.078C124.009 222.156 124.131 222.281 124.204 222.437C124.276 222.593 124.293 222.768 124.253 222.934C124.213 223.101 124.117 223.249 123.982 223.356C123.847 223.461 123.68 223.518 123.508 223.518L123.516 223.521ZM125.599 236.008C124.988 236.001 124.401 235.771 123.951 235.358C123.687 235.131 123.474 234.85 123.328 234.534C123.181 234.218 123.104 233.876 123.102 233.528C123.103 233.427 123.123 233.33 123.162 233.237C123.201 233.145 123.258 233.062 123.33 232.991C123.401 232.921 123.486 232.866 123.579 232.83C123.672 232.791 123.771 232.772 123.871 232.772C123.972 232.774 124.071 232.795 124.163 232.833C124.255 232.873 124.339 232.93 124.409 233.001C124.479 233.073 124.535 233.157 124.572 233.25C124.61 233.341 124.629 233.44 124.628 233.541C124.648 233.804 124.77 234.047 124.967 234.222C125.164 234.397 125.421 234.49 125.685 234.481C125.886 234.456 126.088 234.511 126.248 234.635C126.408 234.758 126.512 234.941 126.537 235.141C126.563 235.341 126.507 235.542 126.383 235.702C126.259 235.862 126.076 235.966 125.875 235.991C125.784 236.003 125.691 236.008 125.599 236.008Z" fill="black"/>
    <path d="M240.835 208.872C243.722 210.788 246.661 212.874 248.404 215.899C250.147 218.924 250.339 223.156 247.936 225.67C246.332 227.348 243.725 228.195 242.98 230.407C242.641 231.415 242.775 232.515 242.737 233.574C242.597 237.45 239.883 241.096 236.25 242.285C235.746 242.45 235.184 242.602 234.88 243.052C234.576 243.502 234.623 244.098 234.633 244.648C234.697 248.987 230.192 252.755 226.01 251.857C226.486 255.152 223.369 258.081 220.123 258.576C216.876 259.07 213.65 257.809 210.623 256.539C200.059 252.083 191.219 244.814 182.168 237.699C177.024 233.655 178.918 228.221 184.762 231.398L202.538 240.965C205.145 242.115 207.906 243.264 210.685 243.584C212.117 243.747 212.862 241.902 211.719 241.015C203.017 234.281 192.547 230.082 183.359 223.951C177.354 219.945 179.48 216.48 180.646 215.598C181.944 214.61 184.121 214.932 185.667 215.43C195.99 218.755 206.229 225.917 215.548 230.394C219.47 232.277 223.614 230.729 221.228 227.971C209.644 220.296 204.628 216.541 193.04 208.868C191.253 207.686 188.384 205.063 190.112 201.72C192.07 197.935 195.545 199.421 201.842 203.184C210.685 208.466 216.044 212.11 225.173 216.867C229.953 219.357 232.833 217.604 227.9 213.813C221.477 208.874 216.171 204.707 209.102 200.483C206.399 198.866 201.228 196.565 201.842 192.524C202.03 191.287 203.432 187.627 209.01 190.085C216.082 193.206 223.013 197.963 229.685 201.893C233.461 204.113 237.178 206.441 240.835 208.872Z" fill="#FBD2B5"/>
    <path d="M238.271 228.173C238.128 228.173 237.987 228.133 237.867 228.057C237.745 227.98 237.648 227.871 237.587 227.743C237.524 227.613 237.5 227.469 237.515 227.326C237.53 227.184 237.585 227.048 237.673 226.935C238.269 226.17 238.742 225.314 239.073 224.401C239.107 224.308 239.159 224.22 239.227 224.145C239.294 224.072 239.376 224.011 239.466 223.969C239.557 223.927 239.656 223.902 239.755 223.898C239.856 223.894 239.955 223.91 240.048 223.942C240.144 223.977 240.229 224.03 240.304 224.097C240.378 224.166 240.437 224.248 240.479 224.338C240.521 224.43 240.546 224.528 240.55 224.629C240.555 224.729 240.54 224.83 240.506 224.924C240.119 225.99 239.568 226.987 238.873 227.88C238.801 227.972 238.709 228.045 238.606 228.097C238.502 228.146 238.387 228.173 238.271 228.173ZM228.807 241.469C228.656 241.469 228.511 241.425 228.386 241.343C228.262 241.261 228.163 241.142 228.106 241.004C228.046 240.867 228.029 240.714 228.056 240.566C228.083 240.419 228.153 240.283 228.256 240.174C228.847 239.554 229.35 238.852 229.746 238.09C229.839 237.91 230.001 237.774 230.194 237.715C230.386 237.654 230.595 237.673 230.775 237.766C230.954 237.86 231.087 238.023 231.148 238.216C231.209 238.409 231.19 238.62 231.097 238.8C230.632 239.688 230.047 240.507 229.357 241.232C229.287 241.307 229.201 241.366 229.106 241.408C229.01 241.448 228.909 241.469 228.807 241.469ZM219.824 250.846C219.664 250.846 219.508 250.797 219.378 250.701C219.249 250.607 219.152 250.475 219.1 250.322C219.051 250.171 219.049 250.006 219.096 249.853C219.144 249.7 219.239 249.564 219.367 249.469C219.971 249.013 220.506 248.474 220.962 247.867C221.085 247.71 221.264 247.607 221.463 247.582C221.659 247.555 221.859 247.609 222.019 247.729C222.177 247.85 222.284 248.028 222.312 248.225C222.343 248.424 222.295 248.625 222.179 248.787C221.638 249.513 220.996 250.158 220.274 250.701C220.142 250.797 219.986 250.846 219.824 250.846ZM206.652 196.994C206.014 196.98 205.376 196.919 204.747 196.814C204.648 196.799 204.553 196.764 204.467 196.712C204.382 196.661 204.305 196.594 204.246 196.513C204.187 196.431 204.143 196.339 204.119 196.242C204.094 196.144 204.09 196.043 204.103 195.943C204.119 195.844 204.153 195.748 204.204 195.662C204.256 195.576 204.323 195.501 204.404 195.442C204.484 195.381 204.576 195.338 204.673 195.314C204.77 195.289 204.871 195.283 204.97 195.298C206.18 195.476 207.174 195.585 208.018 195.22C208.237 195.12 208.434 194.977 208.598 194.801C208.761 194.623 208.887 194.414 208.971 194.188C209.019 194.068 209.04 193.941 209.036 193.811C209.03 193.683 208.998 193.557 208.942 193.442C208.887 193.354 208.849 193.254 208.834 193.151C208.817 193.048 208.822 192.943 208.847 192.841C208.874 192.74 208.919 192.646 208.984 192.562C209.047 192.479 209.127 192.411 209.219 192.361C209.31 192.311 209.411 192.28 209.514 192.271C209.619 192.259 209.723 192.273 209.823 192.305C209.922 192.336 210.013 192.389 210.091 192.458C210.167 192.527 210.232 192.611 210.276 192.707C210.434 193.01 210.529 193.341 210.552 193.683C210.575 194.024 210.525 194.364 210.407 194.686C210.253 195.113 210.017 195.505 209.708 195.838C209.401 196.171 209.03 196.439 208.617 196.624C207.994 196.881 207.325 197.007 206.652 196.994ZM193.761 207.406C193.559 207.414 193.363 207.339 193.214 207.199C193.067 207.062 192.98 206.87 192.972 206.665C192.966 206.463 193.039 206.266 193.178 206.118C193.315 205.969 193.507 205.883 193.709 205.875C194.506 205.822 195.193 205.521 195.595 205.05C195.997 204.58 196.093 203.875 195.811 203.441C195.71 203.271 195.677 203.068 195.723 202.876C195.767 202.683 195.885 202.515 196.049 202.408C196.215 202.3 196.415 202.26 196.609 202.297C196.801 202.335 196.973 202.446 197.087 202.607C197.74 203.613 197.598 205.062 196.75 206.051C196.074 206.84 195.035 207.32 193.812 207.402L193.761 207.406ZM184.306 223.358C184.134 223.358 183.967 223.301 183.831 223.196C183.696 223.089 183.601 222.939 183.561 222.771C183.521 222.604 183.538 222.428 183.611 222.271C183.683 222.115 183.805 221.988 183.959 221.91C184.755 221.502 185.325 220.919 185.563 220.264C185.801 219.61 185.645 218.813 185.182 218.431C185.026 218.301 184.929 218.113 184.912 217.91C184.895 217.709 184.957 217.506 185.087 217.351C185.216 217.196 185.403 217.099 185.603 217.08C185.805 217.062 186.005 217.126 186.161 217.256C187.114 218.058 187.453 219.51 186.988 220.79C186.607 221.81 185.784 222.691 184.643 223.278C184.538 223.332 184.422 223.358 184.306 223.358ZM182.226 235.92C182.134 235.92 182.043 235.914 181.953 235.903C181.753 235.878 181.57 235.772 181.446 235.612C181.323 235.451 181.267 235.248 181.292 235.047C181.317 234.846 181.422 234.663 181.58 234.538C181.74 234.414 181.944 234.358 182.144 234.383C182.406 234.393 182.664 234.299 182.86 234.123C183.056 233.947 183.178 233.702 183.199 233.438C183.197 233.336 183.216 233.237 183.254 233.145C183.292 233.051 183.348 232.967 183.416 232.894C183.487 232.823 183.57 232.766 183.662 232.726C183.755 232.688 183.854 232.667 183.953 232.665C184.054 232.665 184.153 232.684 184.247 232.722C184.338 232.758 184.424 232.814 184.494 232.885C184.567 232.956 184.622 233.04 184.662 233.132C184.702 233.225 184.721 233.323 184.723 233.424C184.719 233.775 184.643 234.119 184.496 234.437C184.352 234.754 184.138 235.038 183.875 235.265C183.424 235.679 182.837 235.912 182.226 235.92ZM65.0248 166.876C62.5355 166.89 60.0478 166.748 57.576 166.453C56.3624 166.302 54.6688 165.933 54.0058 164.492C53.5124 163.416 53.8572 162.209 54.0649 161.486C54.2554 160.814 54.4573 160.131 54.6631 159.455C54.806 158.983 54.9431 158.454 55.0898 157.896C55.9109 154.748 57.0368 150.432 61.047 150.138C62.7616 150.009 64.5314 150.097 66.2384 150.183C67.1757 150.229 68.1434 150.279 69.0788 150.289C71.8012 150.317 74.6798 150.304 77.6345 150.25C82.7516 150.155 88.1963 149.94 94.7688 149.573C99.602 149.303 104.517 148.978 109.27 148.666L111.926 148.49C117.327 148.138 123.09 147.768 128.94 147.489C147.189 146.618 165.75 146.676 183.7 146.724L240.504 146.896C241.693 146.896 243.039 146.896 244.314 147.323C248.648 148.758 250.006 153.896 250.707 158.209C250.845 159.055 251.1 160.63 250.174 161.727C249.471 162.557 248.41 162.768 247.473 162.9C239.662 163.998 231.649 163.681 223.905 163.372L221.969 163.296C177.649 161.587 132.554 163.757 88.9469 165.855C83.6393 166.109 78.3318 166.365 73.0243 166.62C70.3876 166.752 67.7129 166.876 65.0248 166.876ZM55.5356 161.916C55.3337 162.617 55.1546 163.344 55.3946 163.857C55.6575 164.431 56.412 164.773 57.7703 164.942C62.8264 165.573 67.9739 165.324 72.9519 165.099C78.2581 164.85 83.5651 164.595 88.8726 164.333C132.512 162.228 177.65 160.064 222.026 161.775L223.962 161.849C231.639 162.155 239.584 162.471 247.259 161.392C247.949 161.294 248.654 161.164 249.01 160.743C249.444 160.228 249.338 159.296 249.201 158.464C248.568 154.575 247.387 149.961 243.832 148.785C242.796 148.44 241.63 148.438 240.502 148.434L183.694 148.274C165.764 148.22 147.223 148.163 129.018 149.039C123.179 149.318 117.426 149.686 112.031 150.04L109.375 150.214C104.612 150.528 99.7011 150.851 94.8584 151.123C88.2668 151.49 82.8049 151.697 77.6688 151.802C74.6988 151.856 71.805 151.869 69.0674 151.841C68.1053 151.831 67.1204 151.781 66.1679 151.734C64.5085 151.651 62.7921 151.565 61.1651 151.686C58.2389 151.902 57.355 155.304 56.5701 158.305C56.4196 158.879 56.2786 159.421 56.1262 159.922C55.9243 160.59 55.7261 161.262 55.5356 161.93V161.916Z" fill="black"/>
    <path d="M79.4536 116.916C78.9918 116.916 78.5366 116.811 78.1266 116.609C77.7164 116.407 77.3631 116.114 77.0968 115.755C76.788 115.343 76.5256 114.902 76.3138 114.438L76.2262 114.265C75.7899 113.401 75.3894 112.379 75.7182 111.36C75.855 110.976 76.0792 110.626 76.3746 110.334C76.67 110.042 77.0294 109.816 77.4275 109.671C77.5245 109.634 77.6283 109.615 77.7331 109.616C77.8377 109.616 77.9413 109.637 78.0375 109.676C78.1339 109.715 78.2214 109.771 78.2947 109.842C78.3682 109.914 78.4262 109.998 78.4654 110.09C78.5047 110.182 78.5244 110.281 78.5234 110.381C78.5226 110.48 78.5011 110.579 78.4602 110.671C78.4192 110.762 78.3598 110.846 78.2851 110.915C78.2106 110.985 78.1222 111.041 78.0251 111.078C77.8472 111.139 77.6851 111.235 77.5496 111.361C77.4143 111.487 77.3087 111.638 77.2402 111.806C77.0729 112.324 77.3617 113.008 77.6646 113.609L77.7542 113.787C77.921 114.157 78.1258 114.509 78.3658 114.84C78.5531 115.073 79.1189 115.788 80.5373 115.12C81.0007 114.927 81.4002 114.617 81.6928 114.223C81.8042 114.033 81.8717 113.822 81.8914 113.605C81.911 113.387 81.8819 113.168 81.8064 112.963C81.5773 112.227 80.9338 111.584 80.0453 111.197C79.9472 111.158 79.8584 111.1 79.7843 111.027C79.71 110.955 79.6518 110.869 79.6131 110.774C79.5745 110.68 79.556 110.579 79.5589 110.478C79.5619 110.377 79.5861 110.277 79.6301 110.185C79.6741 110.093 79.7373 110.01 79.8155 109.941C79.8936 109.872 79.9857 109.819 80.0859 109.785C80.1859 109.751 80.2923 109.736 80.3987 109.741C80.5049 109.747 80.6089 109.773 80.7047 109.817C82.0156 110.386 82.9738 111.374 83.3344 112.53C83.4758 112.944 83.5227 113.382 83.4715 113.814C83.4203 114.247 83.2722 114.663 83.0376 115.037C82.5921 115.667 81.9713 116.167 81.2446 116.482C80.6903 116.755 80.0775 116.904 79.4536 116.916ZM75.4472 131.022C75.395 131.023 75.3428 131.018 75.2918 131.007C75.0848 130.968 74.9025 130.853 74.7848 130.686C74.6673 130.519 74.6238 130.315 74.6643 130.118C74.7639 129.633 74.8237 129.14 74.8834 128.616C74.9253 128.262 74.9691 127.892 75.0269 127.526C75.2958 125.837 75.8636 124.223 76.4214 122.663C76.9587 121.044 77.5932 119.455 78.322 117.906C78.4122 117.723 78.575 117.583 78.774 117.515C78.9732 117.447 79.1926 117.457 79.3838 117.543C79.5751 117.629 79.7227 117.784 79.794 117.974C79.8654 118.163 79.8546 118.372 79.7643 118.554C79.0352 120.023 78.4754 121.61 77.9315 123.146C77.4036 124.644 76.8557 126.193 76.6087 127.752C76.5549 128.089 76.517 128.429 76.4732 128.785C76.4115 129.316 76.3477 129.864 76.2341 130.41C76.1985 130.583 76.1003 130.739 75.9566 130.851C75.813 130.963 75.6327 131.023 75.4472 131.022ZM72.4669 123.046C72.3511 123.046 72.237 123.022 72.1322 122.976C71.9403 122.891 71.7917 122.737 71.7188 122.549C71.6459 122.36 71.6548 122.151 71.7437 121.969C72.6414 120.122 73.8642 118.436 75.3596 116.982C75.5074 116.838 75.7094 116.756 75.9208 116.754C76.0256 116.753 76.1294 116.772 76.2266 116.809C76.3238 116.846 76.4123 116.901 76.4872 116.971C76.5619 117.04 76.6216 117.123 76.6627 117.215C76.7037 117.307 76.7254 117.405 76.7266 117.505C76.7276 117.605 76.7081 117.703 76.669 117.796C76.6302 117.889 76.5722 117.973 76.4991 118.044C75.1309 119.374 74.0116 120.917 73.19 122.606C73.1261 122.737 73.0241 122.848 72.896 122.926C72.7677 123.004 72.6189 123.046 72.4669 123.046ZM88.9761 114.745C87.927 114.723 86.8813 114.624 85.8484 114.447C85.4499 114.388 85.0674 114.333 84.7128 114.292C84.6066 114.282 84.5034 114.253 84.4094 114.205C84.3154 114.158 84.2323 114.092 84.1653 114.014C84.0982 113.935 84.0484 113.844 84.0189 113.747C83.9892 113.649 83.9807 113.547 83.9932 113.446C84.006 113.345 84.0396 113.248 84.0926 113.16C84.1454 113.072 84.2164 112.995 84.301 112.933C84.3859 112.872 84.4827 112.827 84.5859 112.802C84.6891 112.777 84.7967 112.771 84.9021 112.786C85.2846 112.83 85.677 112.889 86.0974 112.949C87.8904 113.213 89.9344 113.518 91.7971 112.691C92.182 112.525 92.5277 112.286 92.8128 111.988C93.098 111.691 93.317 111.342 93.4566 110.962C93.5829 110.58 93.6236 110.177 93.576 109.78C93.5282 109.382 93.3933 108.998 93.1797 108.653C93.0714 108.48 93.0397 108.273 93.0915 108.078C93.1431 107.883 93.2741 107.716 93.4556 107.613C93.6371 107.51 93.8543 107.479 94.0591 107.529C94.2641 107.578 94.44 107.703 94.5484 107.876C94.8767 108.406 95.0841 108.997 95.1572 109.609C95.2303 110.221 95.1676 110.841 94.9727 111.429C94.7677 112.009 94.4394 112.542 94.0083 112.997C93.5772 113.451 93.0522 113.815 92.4665 114.068C91.3696 114.535 90.1779 114.766 88.9761 114.745Z" fill="white"/>
    <path d="M66.8351 209.412C66.6826 209.412 66.5333 209.369 66.4068 209.288C66.2806 209.208 66.1825 209.093 66.1259 208.959C66.0692 208.824 66.0563 208.678 66.0889 208.537C66.1215 208.395 66.1982 208.266 66.3088 208.167C67.1397 207.46 68.0454 206.834 69.0112 206.302C69.3354 206.109 70.0296 205.745 70.8306 205.321C71.7842 204.819 72.8541 204.253 73.453 203.901C73.538 203.85 73.6328 203.818 73.7318 203.802C73.8306 203.787 73.9317 203.789 74.0293 203.811C74.1269 203.832 74.2191 203.872 74.3005 203.928C74.3819 203.984 74.451 204.053 74.5038 204.134C74.5566 204.215 74.5921 204.303 74.6085 204.397C74.6247 204.491 74.6213 204.586 74.5984 204.678C74.5755 204.77 74.5337 204.859 74.4752 204.935C74.4168 205.012 74.3428 205.077 74.2578 205.128C73.6284 205.488 72.5413 206.073 71.5744 206.58C70.823 206.977 70.1116 207.352 69.8179 207.527C68.9401 208.009 68.116 208.571 67.3577 209.21C67.2171 209.338 67.0303 209.41 66.8351 209.412ZM238.885 207.767C238.74 207.767 238.601 207.727 238.479 207.655L232.399 204.025C232.227 203.923 232.105 203.76 232.062 203.574C232.018 203.387 232.052 203.192 232.161 203.03C232.268 202.867 232.439 202.754 232.638 202.71C232.836 202.669 233.042 202.701 233.213 202.804L239.293 206.435C239.433 206.518 239.54 206.643 239.599 206.789C239.658 206.935 239.663 207.096 239.618 207.245C239.572 207.397 239.475 207.529 239.343 207.622C239.211 207.716 239.051 207.767 238.885 207.767Z" fill="black"/>
    <path d="M212.138 109.896C212.78 110.367 213.344 110.431 214.113 110.431C214.321 110.431 215.218 110.161 215.398 110.057C215.592 109.945 215.821 110.062 216.015 109.95C216.363 109.749 217.117 109.896 217.505 109.896C218.867 109.896 220.208 110.28 221.309 111.156C221.828 111.57 222.398 111.925 222.548 112.624C222.632 113.021 222.85 113.331 222.85 113.771V114.924C222.85 115.921 222.585 116.715 222.285 117.652C222.105 118.213 221.718 119.364 221.052 119.518C220.599 119.623 219.961 119.269 219.561 119.072C218.849 118.721 217.547 118.719 216.797 118.935C215.068 119.435 214.319 121.428 214.319 123.137C214.319 123.918 214.125 124.615 214.839 125.033C215.41 125.367 216.052 125.772 216.5 126.239C216.716 126.463 217.054 126.598 217.243 126.851C217.405 127.069 216.971 127.366 216.849 127.493C216.241 128.125 215.64 128.825 214.993 129.466C214.26 130.193 213.407 129.793 212.469 129.793C211.988 129.793 211.419 129.89 210.978 129.686C210.367 129.403 209.866 128.937 209.282 128.616C208.73 128.313 207.977 128.1 207.484 127.701C206.954 127.273 206.123 127.043 205.456 127.012C204.721 126.977 204.07 126.644 203.372 126.483C201.756 126.109 201.804 124.116 201.779 122.733C201.743 120.751 201.573 118.771 201.573 116.778C201.573 115.968 201.8 115.07 201.984 114.282C202.163 113.516 202.331 112.681 202.624 111.953C203.335 110.189 204.622 107.543 206.764 107.543C207.178 107.543 207.732 107.445 208.129 107.567C208.828 107.782 209.509 108.084 210.207 108.292C210.936 108.509 211.536 109.456 212.138 109.896Z" fill="white"/>
    <path d="M214.894 106.12C214.43 106.758 213.892 107.841 213.892 108.625C214.398 108.391 214.88 108.07 215.396 107.832C216.207 107.456 216.971 107.082 217.824 106.769C218.899 106.376 220.136 106.225 221.255 105.975C221.73 105.869 222.205 105.692 222.692 105.656C222.943 105.637 222.824 104.593 222.809 104.418C222.742 103.642 221.907 103.709 221.433 103.315C220.641 102.655 219.305 103.296 218.492 103.568C216.903 104.099 215.832 104.83 214.894 106.12Z" fill="white"/>
</svg>
