<svg width="243" height="243" viewBox="0 0 243 243" fill="none" xmlns="http://www.w3.org/2000/svg">
    <path d="M102.948 223.591C104.776 224.623 107.242 227.465 110.143 229.433C110.02 229.584 112.447 231.027 113.082 231.266C114.228 231.698 115.987 231.271 116.94 230.604C118.468 229.535 119.068 226.993 119.689 225.345C120.035 224.427 119.887 220.398 120.76 220.106C122.378 219.567 125.289 221.087 126.973 221.316C128.973 221.588 130.682 220.829 132.342 219.865C135.075 218.277 136.908 215.978 139.458 214.218C145.044 210.361 151.697 206.37 158.216 204.504C161.938 203.439 163.997 202.674 167.4 204.075C169.158 204.799 170.615 205.815 171.852 207.235C173.482 209.107 176.039 210.385 178.021 211.809C180.282 213.435 182.458 215.654 184.167 217.848C185.378 219.402 186.408 220.563 188.414 220.723C190.952 220.926 197.483 221.018 199.366 218.824C201.318 216.548 202.442 213.054 203.999 210.489C205.149 208.593 206.782 206.36 205.228 204.252C204.347 203.056 201.936 202.076 200.755 201.095C193.685 195.22 189.966 184.586 189.053 175.779C188.414 169.618 189.392 161.627 194.578 157.534C196.386 156.106 198.207 154.97 199.859 153.342L199.926 153.276C201.093 152.127 203.897 149.365 203.725 147.705C203.683 147.302 202.838 146.184 202.591 145.816C201.76 144.576 201.732 143.219 201.582 141.775C200.949 135.665 201.383 130.629 202.951 124.681C203.505 122.576 204.165 119.212 205.772 117.603C207.026 116.349 208.514 115.354 209.897 114.252C211.224 113.195 211.589 112.462 211.808 110.803C212.142 108.276 213.284 105.556 214.16 103.184C216.18 97.7148 218.758 92.212 219.889 86.4888C220.532 83.2377 221.142 80.4782 220.796 77.1442L219.869 68.2081L219.867 68.1877C219.226 62.0145 218.617 56.1468 214.287 51.4206C211.426 48.2981 207.39 46.7702 203.537 45.3798C199.274 43.8412 196.253 43.8206 194.115 39.3104C192.366 35.6197 191.522 32.9914 188.508 30.0526C186.875 28.4609 183.178 24.7148 180.629 24.9793C179.514 25.095 178.281 26.3815 177.315 26.894L177.184 26.9633C173.532 28.9012 169.843 30.8581 165.964 32.3042C161.925 33.81 157.692 34.0351 153.448 34.4754C146.988 35.1456 140.364 35.0024 133.906 34.3212C131.402 34.0571 127.94 33.7685 125.891 32.1419C124.417 30.972 123.647 29.1858 122.674 27.6322C121.246 25.3517 119.957 24.6923 117.465 23.8965C115.066 23.1308 112.886 22.1179 110.542 21.1021C108.12 20.0521 104.279 21.3916 102.124 22.6082C97.1186 25.4352 93.3716 30.9636 87.5884 32.6468C85.9626 33.12 85.4898 35.1415 84.543 36.519C79.2468 44.2242 69.8233 49.4982 62.2393 54.5414C46.8672 64.7633 55.5285 58.2058 43.3176 66.8895C40.3617 68.9915 37.7885 71.9152 35.8201 74.9543C34.7526 76.6025 33.7507 78.3136 31.9471 79.2615C28.3787 81.1369 23.7343 80.132 20.0892 81.888C17.5549 83.1089 16.0992 87.1528 15.4387 89.6356C13.3898 97.3373 13.0664 105.378 13.6847 113.315C14.123 118.942 14.284 125.454 15.579 130.943C16.561 135.105 18.4184 137.968 21.0782 141.259C23.1228 143.789 24.8464 146.512 24.4467 149.964C23.8514 155.105 25.0194 160.483 24.7685 165.683C24.4595 172.083 23.9992 175.674 24.661 182.054C24.814 183.528 26.5607 185.456 27.7785 185.442C32.836 185.386 38.3585 185.812 43.1688 187.424C46.8849 188.668 49.8183 194.332 49.1594 198.06C48.7459 200.4 46.0685 201.798 46.2762 204.337C46.4748 206.763 46.7124 208.99 47.4767 211.281C49.0804 216.087 55.834 224.825 61.8039 222.361C63.7354 221.564 64.4575 220.07 66.0291 218.716C69.1269 216.047 72.3956 214.499 76.4997 214.073C80.8315 213.624 86.3926 212.494 90.4509 214.589C92.882 215.845 92.4044 219.611 94.5667 221.035C97.0095 222.644 100.334 222.115 102.948 223.591Z" fill="#F4F7FA"/>
    <path d="M63.994 87.3618C65.6197 84.3293 69.163 83.1303 72.5244 84.2911C73.142 84.5041 73.7722 84.8018 74.4194 84.7045C75.6094 84.524 76.196 82.4788 76.1833 81.3194C76.1706 80.16 81.9036 68.6337 82.4267 67.5956C91.5126 49.5658 128.547 52.5857 136.711 61.7791C143.81 69.7749 143.235 80.8397 143.242 83.631C143.242 84.5535 144.063 85.3574 145.015 85.2178C146.485 85.0034 148.485 83.5832 151.722 84.6636C153.273 85.1798 154.463 86.7793 154.414 89.8498C154.375 92.2222 153.731 95.6593 146.714 98.5437C143.189 99.9937 127.283 100.178 111.003 100.518C94.7231 100.858 78.9877 101.122 73.8427 99.531C68.8514 97.9795 66.2359 97.2475 64.2549 93.4661C63.5386 92.0839 62.866 89.4747 63.994 87.3618Z" fill="#FF8D55"/>
    <path d="M111.369 130.033C106.757 130.033 102.181 129.759 97.8645 129.474L95.7859 129.33C91.6058 129.043 87.2827 128.755 83.0276 128.669C80.3683 128.613 77.9682 128.638 75.6884 128.746C74.455 128.805 73.2018 128.89 71.9656 129.009C71.1373 129.086 70.105 129.182 69.6349 127.852C69.0529 126.208 68.7555 124.4 68.4681 122.643C68.3576 121.972 68.2542 121.338 68.1339 120.712C67.6652 118.251 67.2319 115.747 66.8453 113.269C66.0792 108.359 65.4675 103.359 65.0286 98.4104V98.393C64.9702 97.6807 65.1264 96.967 65.4763 96.3468C65.8263 95.7266 66.3537 95.229 66.9883 94.92C69.7765 93.5594 72.9257 92.9497 75.9093 92.442C95.478 89.1188 115.367 88.1758 135.156 89.6331C140.881 90.0559 146.977 90.7061 152.763 92.5858C153.484 92.8202 154.228 93.1034 154.721 93.765C155.429 94.7228 155.255 95.9511 155.03 97.0283L149.66 122.748C149.529 123.378 149.366 124.16 148.874 124.78C148.089 125.774 146.75 125.999 145.872 126.149C135.043 127.99 123.845 129.888 112.647 130.022C112.221 130.029 111.795 130.033 111.369 130.033ZM80.3825 127.495C81.2448 127.495 82.1327 127.505 83.0517 127.524C87.3309 127.614 91.6682 127.905 95.861 128.187L97.9367 128.331C102.631 128.64 107.632 128.938 112.635 128.88C123.746 128.752 134.9 126.856 145.687 125.023C146.63 124.863 147.516 124.669 147.994 124.066C148.315 123.661 148.443 123.06 148.56 122.517L153.93 96.7982C154.102 95.9698 154.251 95.0393 153.825 94.4669C153.532 94.0743 152.975 93.8671 152.424 93.6902C146.752 91.8479 140.737 91.2065 135.081 90.7894C115.382 89.3393 95.5832 90.2778 76.1032 93.5852C73.1962 94.0799 70.1361 94.6697 67.4811 95.9655C67.0543 96.1729 66.6996 96.5068 66.4637 96.9233C66.2278 97.3398 66.1219 97.8192 66.16 98.2981V98.3182C66.5961 103.241 67.205 108.214 67.9668 113.1C68.352 115.565 68.7824 118.056 69.2497 120.504C69.3715 121.144 69.4819 121.815 69.5881 122.464C69.8713 124.166 70.1546 125.926 70.7026 127.472C70.8626 127.924 70.9603 127.958 71.8651 127.873C73.1183 127.757 74.387 127.668 75.6388 127.607C77.1511 127.531 78.7199 127.495 80.3809 127.495H80.3825ZM99.891 86.556C99.3986 86.574 98.9139 86.4286 98.5104 86.1418C97.9057 85.6902 97.716 84.9913 97.6537 84.4822C97.6096 84.4144 97.5802 84.3381 97.5672 84.2581C97.5543 84.178 97.5582 84.096 97.5786 84.0176C97.5928 83.9673 97.607 83.917 97.6225 83.8738C97.6289 83.7434 97.6789 83.6191 97.7641 83.5213C98.0834 82.8836 98.6081 82.3761 99.251 82.0831C99.6453 81.8867 100.077 81.7807 100.517 81.7725C100.956 81.7643 101.391 81.8542 101.793 82.0358C102.341 82.2802 102.776 82.7283 103.009 83.2885C103.106 83.5528 103.147 83.8348 103.131 84.1164C103.114 84.398 103.04 84.6729 102.913 84.9235C102.744 85.2596 102.511 85.5581 102.227 85.8011C101.943 86.0442 101.614 86.2269 101.259 86.3388C100.815 86.4769 100.355 86.55 99.891 86.556ZM98.7582 84.0737C98.7695 84.3916 98.8247 84.9496 99.183 85.2156C99.5412 85.4817 100.126 85.4702 100.937 85.2257C101.351 85.0927 101.696 84.7984 101.896 84.4074C101.954 84.2992 101.989 84.1801 101.999 84.0576C102.009 83.9351 101.993 83.8117 101.954 83.6953C101.825 83.4117 101.595 83.1877 101.311 83.067C101.06 82.9588 100.789 82.9072 100.516 82.9157C100.243 82.9242 99.9752 82.9924 99.731 83.1159C99.3053 83.3082 98.9607 83.6476 98.7582 84.0737ZM123.802 86.0337C122.739 86.0337 121.689 85.5317 121.253 84.7566C120.874 84.0907 120.978 83.3098 121.536 82.6079C122.202 81.3582 123.613 81.0562 124.68 81.4071C125.841 81.7896 126.466 82.8452 126.27 84.1008C126.116 85.0988 125.435 85.7834 124.403 85.9776C124.204 86.0148 124.003 86.0337 123.802 86.0337ZM123.831 82.4224C123.562 82.4131 123.297 82.4799 123.065 82.6157C122.832 82.7515 122.641 82.9505 122.515 83.1904C122.494 83.2305 122.47 83.2681 122.442 83.3024C122.016 83.8087 122.175 84.0893 122.228 84.1813C122.511 84.6717 123.444 84.9895 124.195 84.8472C124.751 84.7422 125.073 84.4301 125.152 83.9224C125.305 82.9344 124.628 82.5993 124.331 82.5015C124.169 82.4486 123.999 82.4218 123.831 82.4224Z" fill="black"/>
    <path d="M76.3263 74.0389C79.5748 69.4 81.1561 63.8087 82.6824 58.3372C83.9977 53.6221 85.313 48.9076 86.6284 44.1937C88.7424 36.6222 89.743 28.2268 96.0835 23.6719C97.0926 22.9463 98.2426 22.3133 99.4814 22.3034C101.099 22.2905 102.555 23.354 103.553 24.6414C105.581 27.2574 106.25 31.2348 107.499 34.3099C108.748 37.3849 111.404 40.44 114.675 40.1136C116.754 39.9083 117.161 39.2782 118.301 37.5104C119.442 35.7426 120.155 32.3981 120.955 30.4479C122.819 25.9016 124.156 23.555 126.338 22.2107C129.015 20.5627 134.701 19.1014 137.763 31.4772C140.699 43.3397 140.596 55.533 143.424 67.4226C144.118 70.3366 144.962 73.2677 146.573 75.7825C148.183 78.2972 150.677 80.3744 153.602 80.8462C147.837 79.9182 141.905 79.5504 136.09 79.1355C130.195 78.7211 124.291 78.4659 118.379 78.3699C112.492 78.2749 106.605 78.3376 100.72 78.5581C94.8151 78.7787 88.918 79.1587 83.029 79.6986C77.1663 80.2375 71.3199 80.9336 65.4901 81.7871C64.801 81.8884 64.0808 82.0566 63.3917 82.0837C63.379 81.7985 65.5817 81.6261 66.0031 81.5248C67.0088 81.2792 67.9866 80.9279 68.9204 80.477C70.8042 79.5519 72.5198 78.3106 73.9939 76.806C74.8481 75.9528 75.6285 75.027 76.3263 74.0389Z" fill="#1B5EC9"/>
    <path d="M39.568 134.753C40.1526 133.623 41.0408 132.283 42.2703 132.494C43.5698 132.718 43.9349 134.45 43.8817 135.797C43.5866 143.348 39.5973 150.265 34.7759 155.976C34.152 156.716 33.4359 157.486 32.4945 157.638C31.8721 157.738 31.2356 157.549 30.644 157.343C29.0564 156.796 26.7918 156.177 25.6728 154.804C24.3986 153.243 25.9526 152.166 27.0422 151.161C30.2887 148.174 33.1977 144.82 35.7144 141.167C37.1312 139.114 38.4183 136.973 39.568 134.753Z" fill="#FBD2B5"/>
    <path d="M91.0334 40.6925C90.9861 41.3141 91.0938 42.1314 91.6544 42.2479C92.215 42.3645 92.5655 41.6724 92.7532 41.0968C94.0661 37.124 95.2477 32.8605 98.1098 30.0287C98.8975 29.2503 100.522 27.9107 99.7692 26.5351C99.2441 25.5638 97.9693 26.1481 97.2892 26.5769C94.7843 28.1525 93.1944 31.8907 92.2412 34.7383C91.5974 36.6549 91.1911 38.6574 91.0334 40.6925Z" fill="white"/>
    <path d="M136.374 35.192C136.348 35.194 136.323 35.194 136.297 35.192C136.149 35.1717 136.015 35.0933 135.925 34.974C135.833 34.8547 135.793 34.7045 135.815 34.5562C135.987 33.1542 135.81 31.731 135.301 30.4139C134.791 29.0967 133.962 27.9264 132.891 27.0077C132.833 26.9602 132.785 26.9019 132.751 26.8359C132.716 26.77 132.695 26.6978 132.688 26.6235C132.681 26.5492 132.689 26.4744 132.712 26.4032C132.733 26.332 132.77 26.266 132.818 26.2088C132.866 26.1517 132.923 26.1045 132.99 26.0702C133.056 26.0358 133.128 26.015 133.203 26.0087C133.276 26.0025 133.351 26.0109 133.423 26.0338C133.494 26.0566 133.559 26.0932 133.617 26.1415C134.832 27.1845 135.772 28.5128 136.351 30.0077C136.93 31.5026 137.129 33.1176 136.933 34.7086C136.913 34.843 136.845 34.9658 136.742 35.0545C136.64 35.1433 136.509 35.192 136.374 35.192ZM133.429 33.2826C133.313 33.2825 133.202 33.2472 133.107 33.1816C133.012 33.1159 132.94 33.023 132.901 32.9152L132.079 30.7222C132.027 30.5822 132.034 30.4276 132.096 30.2921C132.158 30.1566 132.271 30.051 132.411 29.9986C132.551 29.9462 132.705 29.9511 132.84 30.0123C132.977 30.0735 133.083 30.186 133.137 30.3253L133.958 32.5182C134.01 32.6586 134.005 32.8142 133.943 32.9506C133.881 33.0871 133.768 33.1933 133.628 33.246C133.564 33.2698 133.497 33.2822 133.429 33.2826ZM80.3725 66.2384C80.2322 66.2394 80.0966 66.188 79.9922 66.0942C79.8877 66.0005 79.8218 65.8712 79.8074 65.7316C79.7928 65.5918 79.8309 65.4518 79.914 65.3386C79.997 65.2254 80.1192 65.1473 80.2567 65.1195C92.9276 62.4739 105.91 61.6423 118.814 62.6495C118.964 62.6611 119.103 62.7317 119.2 62.8459C119.298 62.9601 119.347 63.1086 119.335 63.2585C119.323 63.4083 119.253 63.5475 119.139 63.6452C119.025 63.743 118.876 63.7915 118.727 63.7799C105.929 62.7801 93.0544 63.604 80.4882 66.2271C80.4501 66.235 80.4113 66.2388 80.3725 66.2384ZM130.156 63.866H130.094C128.03 63.642 125.952 63.5981 123.883 63.7347C123.808 63.7395 123.733 63.7297 123.664 63.7059C123.593 63.6821 123.528 63.6445 123.472 63.5955C123.415 63.5465 123.37 63.487 123.338 63.4203C123.304 63.3536 123.285 63.281 123.28 63.2068C123.276 63.1326 123.285 63.0581 123.308 62.9876C123.332 62.9173 123.37 62.8521 123.42 62.7962C123.468 62.7402 123.527 62.6944 123.595 62.6615C123.661 62.6286 123.733 62.6091 123.808 62.6043C125.942 62.4631 128.087 62.5079 130.214 62.7384C130.364 62.7463 130.504 62.8134 130.604 62.925C130.704 63.0365 130.756 63.1833 130.749 63.3333C130.741 63.4832 130.675 63.6239 130.563 63.7242C130.451 63.8247 130.305 63.8767 130.155 63.8688L130.156 63.866ZM144.13 64.3539C144.1 64.3543 144.069 64.3519 144.041 64.3468C141.089 63.8804 138.095 63.7533 135.116 63.9681C134.966 63.979 134.818 63.9298 134.704 63.8315C134.591 63.7333 134.52 63.5938 134.51 63.4439C134.499 63.294 134.548 63.1459 134.646 63.0323C134.745 62.9185 134.884 62.8486 135.034 62.8377C138.099 62.6169 141.181 62.7477 144.217 63.2277C144.367 63.2393 144.505 63.3101 144.603 63.4243C144.702 63.5384 144.75 63.6868 144.738 63.8367C144.726 63.9866 144.655 64.1258 144.542 64.2236C144.428 64.3214 144.279 64.3697 144.13 64.3581V64.3539ZM51.7707 84.5217C51.6281 84.5231 51.4903 84.4707 51.3849 84.3746C51.2794 84.2787 51.2142 84.1461 51.2022 84.004C51.1902 83.8618 51.2324 83.7204 51.3202 83.6081C51.4082 83.4957 51.5352 83.4208 51.676 83.3984C89.222 76.9033 127.538 76.1786 165.303 81.2492C165.451 81.2691 165.585 81.3471 165.676 81.4662C165.767 81.5853 165.807 81.7357 165.787 81.8843C165.767 82.033 165.69 82.1675 165.571 82.2586C165.451 82.3496 165.302 82.3896 165.153 82.3697C127.502 77.3135 89.301 78.0364 51.8681 84.5133C51.8359 84.5189 51.8033 84.5217 51.7707 84.5217Z" fill="black"/>
    <path d="M46.9004 124.64C48.6096 152.325 49.8595 178.524 51.5673 206.208C51.5772 206.372 51.7082 210.84 55.8284 210.983C71.1791 211.511 127.741 209.968 157.27 211.267C160.699 211.419 166.518 211.389 167.893 205.504C169.468 198.767 174.338 139.716 175.52 115.537C175.637 113.121 175.379 110.499 173.839 108.652C171.972 106.419 168.737 106.095 165.843 105.946C135.323 104.384 104.744 104.476 74.2355 106.22C68.4582 106.549 62.6809 106.94 56.9543 107.732C54.0727 108.128 51.2052 108.627 48.3673 109.268C47.433 109.479 46.5946 109.59 46.4213 110.663C46.2226 111.903 46.3861 113.286 46.4128 114.536C46.4847 117.909 46.6933 121.276 46.9004 124.64Z" fill="#FACBDF"/>
    <path d="M52.6065 116.217C52.5318 116.22 52.4573 116.209 52.3872 116.185C52.317 116.16 52.2527 116.124 52.1976 116.076C52.1426 116.028 52.0981 115.97 52.0666 115.906C52.0352 115.842 52.0173 115.773 52.0142 115.703C52.0109 115.632 52.0226 115.562 52.0482 115.495C52.0739 115.429 52.1129 115.368 52.1635 115.316C52.214 115.264 52.2748 115.222 52.3426 115.192C52.4103 115.162 52.4836 115.146 52.5582 115.143C54.6147 114.976 56.6897 114.8 58.8855 114.614C71.0756 113.58 84.892 112.409 98.7694 112.734C98.9201 112.737 99.0631 112.797 99.1671 112.9C99.2712 113.003 99.3276 113.141 99.3241 113.283C99.3205 113.426 99.2572 113.561 99.1481 113.659C99.039 113.758 98.8931 113.811 98.7425 113.808C84.9289 113.483 71.1466 114.653 58.9877 115.688C56.7892 115.875 54.7141 116.05 52.6547 116.217H52.6065ZM110.171 113.521H106.315C106.165 113.521 106.02 113.464 105.914 113.363C105.807 113.263 105.747 113.126 105.747 112.984C105.747 112.841 105.807 112.704 105.914 112.604C106.02 112.503 106.165 112.446 106.315 112.446H110.171C110.322 112.446 110.466 112.503 110.573 112.604C110.68 112.704 110.739 112.841 110.739 112.984C110.739 113.126 110.68 113.263 110.573 113.363C110.466 113.464 110.322 113.521 110.171 113.521ZM116.385 113.866C116.234 113.867 116.089 113.813 115.981 113.713C115.873 113.614 115.811 113.478 115.809 113.336C115.807 113.193 115.865 113.056 115.97 112.954C116.075 112.852 116.219 112.793 116.369 112.791C124.421 112.576 132.588 112.532 140.642 112.664C140.793 112.665 140.936 112.723 141.041 112.824C141.148 112.926 141.206 113.063 141.205 113.206C141.203 113.348 141.142 113.484 141.036 113.584C140.928 113.684 140.783 113.739 140.632 113.738H140.622C132.586 113.604 124.431 113.651 116.401 113.866H116.385ZM165.571 115.244C165.243 115.247 164.92 115.18 164.625 115.048C163.848 114.692 163.533 113.914 163.759 112.913C163.763 112.893 163.768 112.874 163.776 112.855C163.913 112.461 164.168 112.112 164.508 111.85C164.848 111.587 165.26 111.421 165.696 111.371C166.132 111.321 166.573 111.389 166.97 111.567C167.366 111.746 167.701 112.027 167.936 112.378C168.143 112.675 168.245 113.026 168.23 113.381C168.187 113.988 167.728 114.543 166.974 114.904C166.541 115.119 166.059 115.235 165.571 115.244ZM164.861 113.168C164.706 113.893 165.014 114.034 165.116 114.081C165.605 114.305 166.217 114.061 166.457 113.946C166.752 113.805 167.075 113.564 167.092 113.311C167.09 113.183 167.048 113.057 166.971 112.951C166.852 112.774 166.684 112.633 166.485 112.542C166.285 112.451 166.064 112.415 165.843 112.437C165.623 112.46 165.415 112.541 165.241 112.67C165.067 112.799 164.936 112.972 164.861 113.169V113.168ZM157.877 114.736C157.595 114.737 157.313 114.694 157.045 114.611C156.127 114.32 155.637 113.566 155.798 112.692C155.804 112.655 155.815 112.618 155.831 112.583C156.233 111.643 157.251 110.672 158.565 110.78C158.883 110.816 159.188 110.924 159.455 111.094C159.721 111.264 159.941 111.492 160.096 111.758C160.25 112.024 160.336 112.321 160.346 112.625C160.354 112.929 160.287 113.23 160.15 113.504C159.691 114.345 158.758 114.736 157.877 114.736ZM156.909 112.932C156.884 113.097 156.889 113.428 157.407 113.593C157.989 113.778 158.827 113.593 159.14 113.012C159.197 112.894 159.224 112.766 159.216 112.637C159.209 112.508 159.168 112.382 159.099 112.272C159.038 112.158 158.948 112.06 158.839 111.986C158.728 111.913 158.602 111.866 158.468 111.85C157.791 111.795 157.18 112.345 156.909 112.932ZM149.564 114.417C149.185 114.423 148.813 114.337 148.479 114.169C147.896 113.867 147.572 113.197 147.646 112.45C147.569 111.644 148.214 110.984 148.895 110.739C149.748 110.44 150.51 110.46 151.054 110.797C151.78 111.248 152.124 111.924 151.996 112.65C151.916 113.045 151.722 113.41 151.432 113.705C151.144 114 150.773 114.212 150.364 114.317C150.103 114.382 149.834 114.415 149.564 114.417ZM150.022 111.597C149.772 111.605 149.525 111.653 149.293 111.741C148.982 111.852 148.746 112.144 148.78 112.371C148.786 112.415 148.786 112.461 148.78 112.505C148.745 112.774 148.817 113.111 149.025 113.218C149.374 113.399 149.834 113.327 150.078 113.267C150.276 113.214 150.455 113.111 150.594 112.969C150.735 112.827 150.831 112.651 150.874 112.461C150.926 112.159 150.777 111.897 150.429 111.681C150.303 111.619 150.162 111.591 150.022 111.601V111.597Z" fill="#1B5EC9"/>
    <path d="M186.958 136.873C179.672 140.178 183.934 145.249 185.85 146.512C184.973 147.051 184.28 147.844 183.866 148.787C183.451 149.73 183.333 150.777 183.528 151.789C183.721 152.8 184.219 153.729 184.953 154.45C185.688 155.171 186.625 155.651 187.639 155.826C186.849 156.479 186.271 157.351 185.977 158.334C185.683 159.317 185.688 160.365 185.99 161.345C186.29 162.324 186.875 163.194 187.67 163.84C188.465 164.488 189.433 164.884 190.452 164.98C187.842 165.923 189.348 171.42 197.088 172.446C203.818 173.335 212.544 174.142 217.263 169.093C220.923 165.179 221.085 160.701 221.054 155.339C221.027 150.771 220.685 146.086 218.795 141.928C217.135 138.27 212.905 131.001 195.981 133.987C193.106 134.495 189.625 135.663 186.958 136.873Z" fill="#FBD2B5"/>
    <path d="M205.652 173.92C202.926 173.92 200.134 173.611 197.468 173.257C192.174 172.556 189.487 169.738 189.243 167.417C189.155 166.777 189.305 166.129 189.663 165.593C188.804 165.298 188.024 164.809 187.385 164.16C186.748 163.512 186.269 162.723 185.989 161.857C185.429 160.033 185.881 157.962 187.087 156.501C186.167 156.163 185.351 155.589 184.723 154.834C184.096 154.081 183.677 153.173 183.511 152.206C183.345 151.238 183.436 150.243 183.777 149.322C184.116 148.4 184.692 147.585 185.447 146.959C184.179 145.866 182.707 143.864 182.872 141.755C183.028 139.778 184.502 138.143 187.253 136.894C190.148 135.58 193.631 134.466 196.345 133.988C203.74 132.681 209.582 133.196 213.708 135.519C217.134 137.447 218.701 140.249 219.581 142.188C221.551 146.538 221.842 151.472 221.867 155.728C221.899 161.46 221.639 165.822 217.956 169.761C215.764 172.108 212.617 173.433 208.338 173.81C207.457 173.885 206.558 173.92 205.652 173.92ZM203.716 134.4C201.309 134.421 198.91 134.65 196.544 135.086C193.917 135.551 190.536 136.63 187.723 137.91C185.37 138.978 184.117 140.295 183.997 141.839C183.834 143.903 185.748 145.869 186.7 146.498C186.779 146.55 186.843 146.621 186.887 146.704C186.931 146.788 186.954 146.881 186.952 146.975C186.95 147.07 186.924 147.163 186.878 147.244C186.832 147.327 186.765 147.396 186.685 147.445C185.926 147.933 185.328 148.635 184.964 149.463C184.6 150.289 184.487 151.205 184.639 152.097C184.977 153.856 186.5 155.353 188.262 155.657C188.367 155.675 188.463 155.724 188.542 155.795C188.62 155.868 188.676 155.961 188.704 156.064C188.731 156.167 188.729 156.275 188.697 156.378C188.665 156.479 188.605 156.57 188.523 156.639C187.825 157.216 187.314 157.987 187.055 158.856C186.794 159.725 186.798 160.652 187.064 161.518C187.33 162.385 187.847 163.153 188.55 163.725C189.252 164.296 190.107 164.647 191.009 164.731C191.136 164.743 191.255 164.797 191.348 164.886C191.44 164.974 191.499 165.092 191.514 165.218C191.531 165.346 191.503 165.474 191.437 165.583C191.37 165.693 191.269 165.775 191.149 165.819C190.571 166.028 190.282 166.565 190.361 167.294C190.531 168.879 192.601 171.478 197.618 172.142C202.776 172.825 212.376 174.095 217.147 168.987C220.547 165.349 220.788 161.197 220.755 155.727C220.732 151.589 220.453 146.799 218.568 142.644C217.686 140.697 216.273 138.237 213.169 136.488C210.688 135.098 207.532 134.4 203.716 134.4Z" fill="#FBD2B5"/>
    <path d="M219.432 146.288C219.432 142.821 217.479 139.065 216.357 135.965C213.93 129.239 213.106 121.892 210.944 115.066C210.469 113.565 209.354 111.786 207.908 112.22C206.947 112.509 206.498 113.653 206.224 114.668C204.337 121.661 204.329 129.066 206.2 136.065C206.394 136.78 206.631 137.531 207.181 137.997C207.606 138.359 208.158 138.497 208.691 138.626L217.139 140.66L219.432 146.288Z" fill="#FBD2B5"/>
    <path d="M211.53 53.6346C211.399 53.6347 211.273 53.5938 211.169 53.5183C211.066 53.4427 210.993 53.3367 210.961 53.2171C209.165 46.3985 203.82 40.4245 197.012 37.6317C196.874 37.5699 196.767 37.4598 196.714 37.3248C196.66 37.1898 196.663 37.0402 196.725 36.9078C196.785 36.7753 196.896 36.6702 197.037 36.6147C197.178 36.5592 197.335 36.5577 197.477 36.6103C204.614 39.5325 210.217 45.7946 212.099 52.943C212.121 53.0254 212.123 53.1114 212.105 53.1947C212.088 53.278 212.049 53.3562 211.994 53.4234C211.939 53.4906 211.869 53.5449 211.788 53.5823C211.708 53.6196 211.62 53.6389 211.53 53.6388V53.6346Z" fill="#1B5EC9"/>
    <path d="M77.5745 173.107C75.248 173.107 73.6228 172.883 72.7292 172.439C72.0062 172.077 71.8124 171.601 71.7806 171.264C71.4264 167.524 71.1444 163.367 70.8465 158.965C70.566 154.803 70.2754 150.499 69.9154 146.577C69.8546 145.912 69.8344 144.266 70.955 143.338C71.6172 142.788 72.4732 142.728 73.0979 142.683C74.4094 142.585 75.6601 142.545 76.8704 142.496C78.0806 142.446 79.3068 142.406 80.5966 142.311H80.6819C82.4257 142.182 84.1681 142.131 85.0992 142.636C86.0622 143.158 86.3399 144.928 86.3616 145.506C86.3991 146.507 86.4353 147.484 86.4714 148.446C86.6319 152.661 86.7823 156.642 86.8893 161.052C86.9631 164.101 86.979 167.194 86.9356 170.244C86.9255 171.018 86.8127 171.96 86.0261 172.387C85.669 172.581 82.5153 172.91 80.2785 173.035C79.2923 173.082 78.3911 173.107 77.5745 173.107ZM82.6194 143.313C81.8965 143.313 81.1735 143.368 80.7686 143.397L80.6833 143.404C79.3719 143.501 78.1211 143.542 76.9108 143.59C75.7006 143.638 74.473 143.68 73.1846 143.775C72.5614 143.821 72.0568 143.879 71.7112 144.164C71.2109 144.577 70.9695 145.441 71.0649 146.477C71.4249 150.415 71.717 154.726 71.999 158.895C72.2882 163.289 72.5773 167.44 72.9302 171.165C72.9302 171.231 73.001 171.302 73.121 171.384C75.0456 172.634 84.3213 171.669 85.4868 171.395C85.6704 171.257 85.7673 170.859 85.7759 170.218C85.8193 167.181 85.8034 164.102 85.7297 161.066C85.6227 156.661 85.4723 152.686 85.3132 148.475C85.2771 147.512 85.2395 146.534 85.2034 145.535C85.1759 144.829 84.8419 143.755 84.5223 143.582C84.142 143.374 83.3829 143.313 82.6194 143.313Z" fill="white"/>
    <path d="M213.914 50.3879C213.8 50.3876 213.689 50.3514 213.596 50.2839C213.504 50.2165 213.434 50.1212 213.397 50.0111C211.955 45.8258 209.617 42.0245 206.555 38.8867C206.467 38.7793 206.422 38.6424 206.428 38.503C206.434 38.3635 206.49 38.2312 206.586 38.132C206.682 38.0326 206.81 37.9736 206.947 37.966C207.083 37.9584 207.217 38.0031 207.322 38.0913C210.502 41.3485 212.93 45.295 214.427 49.6403C214.45 49.7098 214.461 49.7836 214.457 49.8574C214.453 49.9312 214.435 50.0034 214.404 50.0699C214.372 50.1365 214.328 50.1961 214.275 50.2453C214.221 50.2946 214.158 50.3324 214.091 50.3569C214.034 50.3768 213.975 50.3872 213.914 50.3879ZM218.884 41.4515C218.751 41.4531 218.622 41.4053 218.522 41.3172C218.42 41.2292 218.354 41.1067 218.335 40.9723C217.375 34.453 213.234 28.5015 207.534 25.4421C207.469 25.4077 207.413 25.3608 207.366 25.3041C207.321 25.2474 207.285 25.1819 207.264 25.1113C207.243 25.0408 207.235 24.9666 207.242 24.8929C207.248 24.8194 207.269 24.7479 207.302 24.6824C207.336 24.6171 207.381 24.559 207.436 24.5117C207.493 24.4644 207.556 24.4287 207.626 24.4067C207.694 24.3848 207.765 24.3769 207.838 24.3835C207.909 24.3902 207.979 24.4113 208.044 24.4456C214.047 27.668 218.407 33.9372 219.425 40.8051C219.446 40.9525 219.41 41.1027 219.324 41.2226C219.238 41.3425 219.109 41.4223 218.965 41.4445C218.937 41.4489 218.91 41.4513 218.884 41.4515Z" fill="#1B5EC9"/>
    <path d="M29.4286 150.332C27.0551 151.436 24.5616 152.739 23.3247 155.054C22.0878 157.369 22.9011 160.919 25.4426 161.533C24.8273 162.332 24.4413 163.284 24.3265 164.287C24.2118 165.291 24.3725 166.306 24.7914 167.225C25.2104 168.142 25.8714 168.928 26.7034 169.497C27.5353 170.066 28.5065 170.396 29.5119 170.453C28.9358 171.336 28.6238 172.367 28.6126 173.425C28.6015 174.481 28.8916 175.517 29.4489 176.415C30.0062 177.311 30.8075 178.029 31.7582 178.484C32.709 178.94 33.7697 179.112 34.8153 178.984C34.0937 181.376 36.2908 183.865 38.7349 184.352C41.179 184.84 43.6669 183.902 45.9359 182.873C51.6826 180.266 57.0819 176.96 62.4559 173.643C64.1262 172.612 65.949 171.363 66.319 169.431C66.6889 167.498 64.29 165.325 62.8173 166.629C64.9353 165.538 67.0772 163.896 67.4217 161.539C67.7662 159.181 65.3546 155.616 63.4047 156.977C64.7686 155.904 66.8711 150.543 62.2003 148.785C59.951 147.935 57.4236 148.785 55.0967 149.388C57.2796 148.979 57.401 145.479 55.6403 144.122C52.6243 141.8 47.8745 143.801 44.6679 144.632C41.8892 145.331 39.1587 146.211 36.4941 147.267C34.1117 148.228 31.7565 149.25 29.4286 150.332Z" fill="#FBD2B5"/>
    <path d="M40.0559 185.298C39.5528 185.299 39.0508 185.252 38.5572 185.154C37.7552 184.984 36.9961 184.652 36.3259 184.178C35.6556 183.705 35.0881 183.101 34.6577 182.4C34.1706 181.615 33.9436 180.696 34.0097 179.775C32.9756 179.774 31.9583 179.51 31.0523 179.01C30.1462 178.51 29.3803 177.79 28.8255 176.913C28.2705 176.038 27.9446 175.036 27.8778 174C27.811 172.965 28.0054 171.929 28.4431 170.99C27.4788 170.798 26.5745 170.377 25.8061 169.761C25.0376 169.146 24.4274 168.354 24.0266 167.454C23.6256 166.554 23.4459 165.57 23.5023 164.585C23.5588 163.599 23.8497 162.643 24.3509 161.795C23.4862 161.354 22.8055 160.619 22.4297 159.722C22.0841 158.922 21.9191 158.055 21.9462 157.185C21.9734 156.314 22.192 155.459 22.5867 154.682C23.9198 152.186 26.4962 150.831 29.0197 149.657C31.3691 148.564 33.7799 147.518 36.1864 146.547C38.9025 145.469 41.6861 144.571 44.5192 143.859C45.0217 143.729 45.5641 143.573 46.1393 143.399C49.3308 142.458 53.3045 141.288 56.1021 143.442C57.2626 144.337 57.8149 146.045 57.4453 147.596C57.405 147.765 57.3529 147.931 57.2897 148.094C59.0296 147.683 60.8752 147.434 62.5865 148.078C64.9046 148.952 65.6154 150.593 65.8023 151.815C66.0336 153.32 65.5825 154.929 64.9574 156.067C65.2757 156.135 65.5791 156.259 65.8537 156.435C67.3824 157.384 68.4929 159.798 68.2288 161.6C67.989 163.236 66.9771 164.708 65.21 165.993L65.3385 166.063C66.409 166.676 67.3924 168.127 67.1098 169.608C66.6959 171.769 64.7418 173.137 62.9434 174.249C57.9149 177.357 52.2169 180.881 46.1835 183.619C44.2223 184.507 42.1456 185.298 40.0559 185.298ZM34.712 178.588C34.801 178.588 34.889 178.608 34.9687 178.648C35.0484 178.688 35.1175 178.747 35.1707 178.818C35.2238 178.891 35.2595 178.974 35.2748 179.062C35.29 179.151 35.2845 179.241 35.2586 179.327C34.9532 180.336 35.2986 181.234 35.6426 181.809C35.9894 182.372 36.4466 182.86 36.9863 183.241C37.526 183.623 38.137 183.891 38.7827 184.03C41.0565 184.483 43.4587 183.6 45.7168 182.572C51.6845 179.864 57.3496 176.362 62.3482 173.271C64.0139 172.241 65.6668 171.094 65.9922 169.39C66.1692 168.466 65.5126 167.476 64.7761 167.055C64.5063 166.882 64.1843 166.809 63.8669 166.852C63.6765 166.961 63.4791 167.067 63.2745 167.171C63.1509 167.233 63.0089 167.249 62.875 167.214C62.741 167.18 62.6242 167.097 62.5462 166.982C62.4682 166.868 62.4344 166.729 62.4509 166.591C62.4675 166.452 62.5334 166.326 62.6365 166.233C62.8656 166.027 63.1364 165.874 63.4301 165.782C65.6325 164.509 66.8672 163.048 67.1027 161.431C67.3011 160.075 66.4047 158.118 65.2571 157.407C64.5292 156.954 64.081 157.263 63.934 157.369C63.8122 157.459 63.6596 157.498 63.5099 157.475C63.3602 157.452 63.2254 157.372 63.1354 157.249C63.0451 157.127 63.0072 156.974 63.0294 156.824C63.0519 156.673 63.1328 156.539 63.2545 156.448C63.8926 155.947 64.9745 153.916 64.6819 151.987C64.4778 150.648 63.6399 149.695 62.1926 149.148C60.3371 148.449 58.2032 149.019 56.1378 149.571L55.6654 149.697C55.551 149.733 55.4348 149.763 55.3171 149.786C55.1701 149.816 55.0169 149.787 54.8909 149.705C54.7648 149.624 54.6759 149.495 54.6435 149.349C54.611 149.201 54.6375 149.047 54.7175 148.919C54.7973 148.792 54.924 148.701 55.0702 148.667L55.3314 148.6C55.9979 148.363 56.2506 147.716 56.3434 147.325C56.6031 146.238 56.2006 144.959 55.4141 144.35C53.0776 142.55 49.4193 143.634 46.469 144.494C45.8852 144.665 45.3271 144.829 44.8133 144.963C42.0275 145.664 39.2907 146.547 36.6203 147.607C34.2324 148.57 31.8401 149.612 29.5093 150.692C27.1784 151.772 24.7691 153.034 23.6015 155.219C22.9749 156.391 22.9264 158.009 23.4802 159.25C23.7657 159.883 24.3209 160.692 25.3729 160.946C25.4654 160.967 25.5509 161.013 25.6215 161.077C25.6922 161.14 25.7457 161.222 25.7774 161.312C25.8091 161.402 25.8178 161.498 25.8026 161.593C25.7875 161.687 25.7492 161.776 25.6912 161.852C25.1319 162.578 24.7811 163.443 24.6765 164.354C24.5718 165.265 24.7176 166.189 25.0977 167.022C25.4779 167.857 26.0781 168.572 26.8335 169.088C27.589 169.605 28.4708 169.906 29.3837 169.956C29.4839 169.961 29.5811 169.993 29.6652 170.047C29.7492 170.103 29.8173 170.179 29.8627 170.269C29.908 170.36 29.9289 170.46 29.9232 170.56C29.9175 170.66 29.8855 170.758 29.8304 170.842C29.3076 171.646 29.0246 172.581 29.0144 173.54C29.0044 174.5 29.2678 175.442 29.7736 176.256C30.2794 177.071 31.0064 177.723 31.8693 178.135C32.7321 178.549 33.6946 178.707 34.6434 178.589C34.6661 178.586 34.6891 178.586 34.712 178.588Z" fill="#FBD2B5"/>
    <path d="M26.1663 151.115L26.1381 151.14L26.1377 151.14C25.41 151.782 24.4262 152.651 24.3828 153.739C24.7092 152.874 26.1927 152.235 26.8936 152.024C27.014 151.919 27.133 151.812 27.2477 151.708C32.5081 146.906 36.8963 141.197 40.2108 134.841V134.835C40.972 133.372 41.6817 132.717 42.3785 132.838C43.3834 133.009 43.5885 134.657 43.5512 135.604C43.4256 138.793 42.6211 142.048 41.1475 145.346L42.589 144.898C43.8696 141.78 44.5738 138.694 44.6938 135.657C44.7583 134.006 44.2393 131.983 42.5634 131.691C40.7135 131.369 39.5697 133.568 39.1935 134.292L39.1929 134.293C35.9425 140.526 31.6386 146.127 26.4793 150.837C26.3778 150.928 26.2728 151.021 26.1663 151.115Z" fill="#FBD2B5"/>
    <path d="M41.5558 155.296C41.4321 155.296 41.3121 155.253 41.2145 155.175C41.1171 155.097 41.048 154.988 41.0183 154.864C40.9885 154.741 40.9998 154.612 41.0505 154.496C41.1011 154.379 41.188 154.284 41.2974 154.226C45.4424 151.982 48.3439 151.022 51.7068 149.909C53.4035 149.341 55.161 148.766 57.2929 147.956C57.3615 147.926 57.4352 147.912 57.5094 147.913C57.5834 147.915 57.6567 147.93 57.7246 147.961C57.7925 147.991 57.8538 148.037 57.9047 148.092C57.9555 148.147 57.9949 148.212 58.0206 148.283C58.0463 148.356 58.0578 148.431 58.0542 148.507C58.0507 148.584 58.0323 148.658 58.0001 148.727C57.9678 148.795 57.9225 148.856 57.8668 148.906C57.811 148.957 57.7461 148.995 57.6756 149.019C55.5202 149.838 53.7544 150.422 52.0467 150.988C48.7307 152.084 45.8735 153.032 41.8128 155.23C41.7335 155.273 41.6453 155.296 41.5558 155.296ZM46.7327 163.648C46.6073 163.648 46.4855 163.604 46.3874 163.523C46.2892 163.444 46.2207 163.332 46.1929 163.206C46.165 163.081 46.1796 162.949 46.2344 162.833C46.2891 162.718 46.3805 162.624 46.4937 162.569C51.516 160.109 55.8296 158.637 61.7997 156.598L63.8115 155.91C63.8803 155.886 63.953 155.876 64.0254 155.881C64.0978 155.887 64.1686 155.907 64.2334 155.939C64.2983 155.974 64.3562 156.019 64.4037 156.076C64.4514 156.132 64.4876 156.198 64.5105 156.269C64.5334 156.338 64.5427 156.413 64.5376 156.487C64.5323 156.562 64.513 156.634 64.4805 156.701C64.4481 156.768 64.4032 156.827 64.3484 156.876C64.2936 156.925 64.2299 156.962 64.161 156.986L62.1494 157.674C56.2166 159.701 51.925 161.165 46.969 163.593C46.8955 163.628 46.8147 163.648 46.7327 163.648ZM48.9283 171.842C48.7998 171.842 48.6752 171.796 48.5759 171.713C48.4765 171.629 48.4085 171.513 48.3839 171.384C48.3592 171.253 48.3792 171.12 48.4405 171.004C48.5018 170.887 48.6004 170.798 48.7197 170.748C54.2187 168.456 60.9363 166.279 64.349 165.685C64.4218 165.669 64.4971 165.668 64.5702 165.682C64.6433 165.698 64.7128 165.727 64.7744 165.77C64.8362 165.813 64.8887 165.868 64.929 165.933C64.9692 165.997 64.9964 166.069 65.009 166.144C65.0215 166.22 65.019 166.298 65.0017 166.371C64.9843 166.445 64.9525 166.516 64.9082 166.577C64.8638 166.638 64.8078 166.69 64.7436 166.729C64.6792 166.767 64.6081 166.793 64.5341 166.803C61.6907 167.299 55.3268 169.214 49.1356 171.799C49.0698 171.826 48.9993 171.84 48.9283 171.842ZM31.4158 161.617C31.3025 161.617 31.192 161.582 31.099 161.515C31.0061 161.448 30.9353 161.355 30.8963 161.245L30.1087 159.039C30.0817 158.968 30.0687 158.892 30.0705 158.817C30.0721 158.741 30.0886 158.667 30.1188 158.597C30.149 158.529 30.1923 158.467 30.2464 158.414C30.3002 158.363 30.3637 158.324 30.4329 158.298C30.5021 158.271 30.5756 158.26 30.6493 158.264C30.7229 158.267 30.795 158.285 30.8616 158.318C30.9281 158.351 30.9875 158.397 31.0364 158.454C31.0853 158.511 31.1226 158.576 31.1464 158.649L31.9339 160.855C31.9842 160.996 31.9779 161.152 31.9162 161.288C31.8545 161.426 31.7426 161.531 31.6051 161.583C31.5443 161.604 31.4803 161.617 31.4158 161.617ZM39.312 178.796C37.7922 178.796 37.6042 177.476 37.5048 176.765C37.4853 176.579 37.4496 176.396 37.3984 176.217C37.3478 176.076 37.354 175.92 37.4156 175.782C37.4773 175.646 37.5895 175.539 37.7272 175.488C37.865 175.436 38.0172 175.443 38.1503 175.505C38.2835 175.569 38.3868 175.684 38.4374 175.826C38.5163 176.078 38.5704 176.338 38.599 176.602C38.7262 177.502 38.8325 177.661 39.312 177.661C39.4586 177.661 39.5991 177.721 39.7027 177.827C39.8063 177.934 39.8646 178.078 39.8646 178.229C39.8646 178.379 39.8063 178.522 39.7027 178.629C39.5991 178.735 39.4586 178.796 39.312 178.796ZM35.218 170.967C35.1072 170.967 34.9989 170.933 34.9071 170.869C34.4396 170.537 34.055 170.096 33.7851 169.582C33.5152 169.069 33.3675 168.496 33.3541 167.913C33.3519 167.763 33.4079 167.618 33.5097 167.51C33.6115 167.401 33.7508 167.34 33.8973 167.337H33.9068C34.0517 167.337 34.1909 167.395 34.2942 167.499C34.3977 167.604 34.457 167.746 34.4595 167.895C34.469 168.296 34.5707 168.69 34.7565 169.045C34.9423 169.398 35.2071 169.702 35.5289 169.931C35.6261 169.999 35.6996 170.097 35.7385 170.212C35.7773 170.327 35.7795 170.45 35.7447 170.567C35.71 170.682 35.6402 170.784 35.5454 170.855C35.4507 170.927 35.336 170.967 35.218 170.967Z" fill="black"/>
    <path d="M146.135 173.92C142.698 173.92 139.011 173.593 135.706 173.298C135.282 173.26 134.638 173.203 134.153 172.774C133.447 172.145 133.486 171.104 133.507 170.548L134.267 150.795L134.292 150.14C134.336 149.083 134.381 147.991 134.357 146.922C134.357 146.751 134.346 146.577 134.34 146.403C134.312 145.673 134.284 144.916 134.439 144.169C134.953 141.702 137.53 141.805 139.24 141.864L139.746 141.881C142.74 141.951 145.727 142.246 148.678 142.762C149.144 142.842 149.846 142.965 150.372 143.439C151.245 144.231 151.183 145.556 151.147 146.269C151.051 148.288 150.965 150.362 150.883 152.367C150.614 158.884 150.334 165.622 149.639 172.12C149.601 172.479 149.536 173.078 149.099 173.479C148.661 173.879 148.11 173.882 147.778 173.896C147.235 173.911 146.693 173.92 146.135 173.92ZM138.307 142.959C136.828 142.959 135.798 143.193 135.548 144.396C135.419 145.011 135.445 145.7 135.47 146.366C135.477 146.545 135.484 146.723 135.488 146.9C135.512 148.003 135.467 149.113 135.423 150.187C135.414 150.404 135.405 150.623 135.397 150.84L134.638 170.592C134.616 171.149 134.638 171.705 134.911 171.947C135.1 172.114 135.428 172.156 135.805 172.189C139.617 172.529 143.924 172.911 147.732 172.78C147.975 172.772 148.22 172.757 148.323 172.662C148.45 172.547 148.487 172.206 148.508 172.003C149.2 165.544 149.478 158.824 149.747 152.325C149.83 150.318 149.916 148.242 150.012 146.218C150.05 145.43 150.026 144.647 149.6 144.26C149.341 144.026 148.939 143.94 148.47 143.859C145.578 143.353 142.651 143.065 139.716 142.997C139.548 142.997 139.373 142.986 139.192 142.979C138.883 142.968 138.588 142.959 138.307 142.959ZM125.157 173.315C125.054 173.315 124.949 173.315 124.846 173.315C123.664 173.288 122.456 173.294 121.288 173.299C119.144 173.309 116.927 173.319 114.749 173.137C114.264 173.096 113.534 173.036 112.998 172.563C112.252 171.907 112.282 170.832 112.292 170.253C112.309 169.62 112.278 167.208 112.237 164.155C112.183 160.089 112.115 155.029 112.114 150.814C112.114 143.164 112.313 142.97 112.568 142.73C113.061 142.265 113.818 141.977 114.816 141.876C118.023 141.55 121.656 141.18 125.151 141.597C126.563 141.767 127.552 142.273 128.081 143.1C128.527 143.795 128.519 144.528 128.515 144.882C128.515 144.935 128.515 144.978 128.515 145.01C129.099 152.243 128.831 157.9 128.515 164.45C128.455 165.713 128.393 167.016 128.335 168.382C128.231 170.811 127.851 172.291 127.206 172.782C126.617 173.241 125.883 173.315 125.157 173.315ZM122.756 172.178C123.462 172.178 124.168 172.178 124.874 172.198C125.523 172.212 126.135 172.198 126.529 171.9C126.754 171.73 127.122 170.64 127.221 168.335C127.28 166.967 127.341 165.661 127.402 164.397C127.722 157.617 127.975 152.263 127.402 145.096C127.402 145.028 127.402 144.957 127.402 144.869C127.402 144.211 127.423 142.988 125.031 142.7C121.663 142.296 118.096 142.659 114.949 142.979C114.291 143.045 113.766 143.214 113.451 143.457C113.129 144.953 113.294 157.39 113.383 164.135C113.426 167.322 113.455 169.624 113.438 170.278C113.423 170.834 113.438 171.441 113.762 171.73C113.997 171.937 114.413 171.988 114.854 172.024C116.984 172.202 119.175 172.192 121.293 172.182C121.768 172.181 122.265 172.178 122.755 172.178H122.756ZM99.4044 173.255C97.5689 173.255 95.7446 173.171 93.9273 173.003C93.5376 172.967 92.8133 172.899 92.3586 172.373C91.9759 171.931 91.935 171.348 91.9181 170.962L91.3434 161.342C91.2149 159.187 91.061 156.993 90.9198 154.872C90.7066 151.735 90.4849 148.491 90.3267 145.3C90.194 142.642 92.1101 142.101 93.9979 141.919C96.8711 141.645 99.7608 141.582 102.644 141.728C103.208 141.756 103.763 141.805 104.276 142.083C105.475 142.737 105.722 144.169 105.804 145.495C106.306 153.495 106.597 161.615 106.666 169.628C106.673 170.342 106.686 171.826 105.651 172.582C105.086 172.999 104.369 173.049 103.896 173.085C102.409 173.199 100.907 173.255 99.4044 173.255ZM93.0505 170.89C93.066 171.142 93.0858 171.485 93.2241 171.644C93.3625 171.803 93.7212 171.858 94.0389 171.887C97.2908 172.188 100.563 172.214 103.82 171.968C104.291 171.932 104.705 171.886 104.989 171.68C105.492 171.313 105.554 170.478 105.547 169.631C105.477 161.637 105.188 153.537 104.687 145.556C104.623 144.538 104.459 143.443 103.739 143.052C103.439 142.89 103.043 142.858 102.596 142.835C99.7707 142.692 96.9391 142.755 94.1236 143.022C92.0395 143.221 91.3942 143.76 91.469 145.247C91.6272 148.429 91.8475 151.667 92.0607 154.8C92.2019 156.923 92.3544 159.119 92.4843 161.278L93.0505 170.89ZM78.7117 162.252C78.5687 162.252 78.4308 162.199 78.3261 162.103C78.2213 162.007 78.1572 161.876 78.1469 161.736C77.976 159.419 77.9784 157.095 78.1539 154.78C78.1651 154.633 78.2354 154.495 78.3492 154.399C78.4632 154.302 78.6113 154.255 78.7611 154.266C78.9109 154.277 79.0501 154.345 79.148 154.458C79.246 154.57 79.2947 154.716 79.2835 154.864C79.1155 157.123 79.1155 159.392 79.2835 161.651C79.2889 161.723 79.2797 161.797 79.2563 161.866C79.233 161.934 79.196 162 79.1474 162.054C79.099 162.11 79.0398 162.156 78.9736 162.188C78.9072 162.221 78.8351 162.241 78.7611 162.246L78.7117 162.252Z" fill="white"/>
    <path d="M98.1002 162.097C97.9477 162.097 97.8014 162.031 97.6937 161.915C97.5859 161.799 97.5254 161.643 97.5254 161.479V153.853C97.5254 153.689 97.5859 153.532 97.6937 153.416C97.8014 153.3 97.9477 153.235 98.1002 153.235C98.2526 153.235 98.3988 153.3 98.5066 153.416C98.6143 153.532 98.675 153.689 98.675 153.853V161.479C98.675 161.643 98.6143 161.799 98.5066 161.915C98.3988 162.031 98.2526 162.097 98.1002 162.097ZM120.575 162.542C120.43 162.542 120.291 162.485 120.184 162.38C120.078 162.275 120.012 162.131 120 161.977C119.77 159.116 119.725 156.242 119.866 153.376C119.87 153.294 119.889 153.215 119.921 153.141C119.954 153.068 120 153.002 120.056 152.948C120.112 152.894 120.178 152.852 120.249 152.824C120.32 152.798 120.396 152.786 120.471 152.79C120.547 152.795 120.621 152.815 120.689 152.849C120.757 152.884 120.818 152.934 120.869 152.994C120.919 153.054 120.958 153.125 120.984 153.201C121.009 153.278 121.02 153.359 121.016 153.44C120.878 156.25 120.922 159.067 121.147 161.87C121.16 162.034 121.112 162.196 121.014 162.321C120.916 162.446 120.775 162.525 120.623 162.539L120.575 162.542ZM142.271 162.458C142.125 162.458 141.986 162.4 141.88 162.295C141.772 162.19 141.707 162.045 141.696 161.89C141.497 159.186 141.85 156.469 142.729 153.927C142.752 153.847 142.791 153.774 142.843 153.711C142.893 153.649 142.955 153.596 143.025 153.561C143.095 153.524 143.17 153.504 143.248 153.501C143.325 153.496 143.403 153.508 143.476 153.538C143.548 153.567 143.616 153.612 143.672 153.669C143.728 153.726 143.772 153.796 143.802 153.873C143.834 153.949 143.85 154.03 143.85 154.114C143.85 154.197 143.835 154.281 143.805 154.358C142.985 156.73 142.656 159.268 142.843 161.791C142.854 161.953 142.805 162.116 142.706 162.239C142.607 162.364 142.466 162.441 142.315 162.455L142.271 162.458Z" fill="white"/>
    <path d="M83.3275 208.053C79.0555 208.053 74.8391 207.99 70.9032 207.931C67.2777 207.874 63.853 207.823 60.7102 207.823C60.5591 207.823 60.4143 207.759 60.3074 207.645C60.2006 207.532 60.1406 207.377 60.1406 207.216C60.1406 207.055 60.2006 206.901 60.3074 206.787C60.4143 206.673 60.5591 206.609 60.7102 206.609C63.8615 206.609 67.2891 206.662 70.9188 206.717C78.3236 206.828 86.7024 206.955 94.5913 206.644C94.7424 206.638 94.8893 206.696 95.0001 206.806C95.1108 206.916 95.176 207.067 95.1815 207.228C95.1869 207.389 95.1323 207.547 95.0293 207.664C94.9264 207.782 94.7837 207.852 94.6326 207.858C90.9202 208.003 87.1011 208.053 83.3275 208.053ZM104.985 207.823H100.571C100.42 207.823 100.275 207.759 100.168 207.645C100.061 207.532 100.001 207.377 100.001 207.216C100.001 207.055 100.061 206.901 100.168 206.787C100.275 206.673 100.42 206.609 100.571 206.609H104.985C105.136 206.609 105.281 206.673 105.388 206.787C105.495 206.901 105.555 207.055 105.555 207.216C105.555 207.377 105.495 207.532 105.388 207.645C105.281 207.759 105.136 207.823 104.985 207.823ZM157.166 207.557C156.731 207.557 156.302 207.557 155.885 207.548C155.529 207.548 155.188 207.548 154.871 207.548C154.72 207.548 154.575 207.485 154.468 207.371C154.361 207.257 154.301 207.102 154.301 206.942C154.301 206.781 154.361 206.626 154.468 206.512C154.575 206.398 154.72 206.335 154.871 206.335C155.191 206.335 155.536 206.335 155.896 206.335C158.424 206.36 162.243 206.4 163.204 205.095C164.486 203.354 164.937 199.432 165.411 195.28L165.471 194.769C165.48 194.69 165.504 194.613 165.541 194.544C165.578 194.475 165.628 194.414 165.686 194.365C165.746 194.315 165.813 194.28 165.885 194.259C165.958 194.238 166.033 194.232 166.107 194.243C166.182 194.252 166.253 194.277 166.318 194.317C166.382 194.356 166.441 194.409 166.486 194.472C166.532 194.535 166.566 194.607 166.586 194.684C166.604 194.761 166.61 194.842 166.602 194.921L166.543 195.432C166.026 199.943 165.581 203.841 164.1 205.849C162.97 207.378 159.952 207.557 157.166 207.557Z" fill="#1B5EC9"/>
    <path d="M186.122 147.466C185.972 147.466 185.827 147.403 185.721 147.294C185.614 147.185 185.555 147.039 185.555 146.885C185.555 146.731 185.614 146.582 185.721 146.473C185.827 146.364 185.972 146.303 186.122 146.303C187.135 146.303 188.947 146.03 190.401 145.812C191.991 145.573 192.839 145.449 193.22 145.5C193.294 145.509 193.365 145.533 193.43 145.571C193.494 145.609 193.552 145.66 193.597 145.719C193.643 145.78 193.677 145.849 193.697 145.923C193.715 145.997 193.721 146.072 193.712 146.149C193.702 146.225 193.678 146.298 193.641 146.364C193.605 146.43 193.556 146.488 193.497 146.536C193.439 146.582 193.371 146.617 193.298 146.638C193.227 146.657 193.152 146.662 193.079 146.654C192.826 146.622 191.575 146.811 190.57 146.962C188.999 147.201 187.22 147.466 186.122 147.466ZM187.236 157.272C187.086 157.278 186.94 157.222 186.829 157.116C186.72 157.011 186.655 156.864 186.65 156.71C186.646 156.556 186.702 156.406 186.804 156.295C186.907 156.181 187.05 156.116 187.2 156.11C187.555 156.087 188.069 156.045 188.668 155.995C190.395 155.85 192.761 155.657 194.404 155.657C194.554 155.657 194.697 155.718 194.804 155.827C194.91 155.936 194.971 156.082 194.971 156.238C194.971 156.392 194.91 156.539 194.804 156.648C194.697 156.757 194.554 156.819 194.404 156.819C192.808 156.819 190.468 157.014 188.758 157.155C188.156 157.204 187.636 157.248 187.273 157.272H187.236ZM190.19 166.72C190.04 166.72 189.895 166.659 189.789 166.55C189.682 166.441 189.623 166.293 189.623 166.139C189.623 165.985 189.682 165.837 189.789 165.728C189.895 165.619 190.04 165.558 190.19 165.558C191.04 165.558 192.123 165.401 193.167 165.248C194.249 165.091 195.369 164.928 196.303 164.928C196.454 164.928 196.598 164.99 196.705 165.098C196.811 165.207 196.87 165.356 196.87 165.51C196.87 165.664 196.811 165.812 196.705 165.921C196.598 166.03 196.454 166.091 196.303 166.091C195.453 166.091 194.37 166.248 193.327 166.399C192.244 166.557 191.123 166.72 190.19 166.72ZM207.049 149.199C206.957 149.198 206.868 149.176 206.787 149.133C205.836 148.624 205.153 147.604 204.958 146.407C204.764 145.209 205.087 144.018 205.824 143.219C205.928 143.107 206.07 143.041 206.221 143.037C206.372 143.033 206.518 143.091 206.627 143.197C206.736 143.303 206.8 143.448 206.803 143.602C206.807 143.758 206.751 143.907 206.648 144.019C206.153 144.554 205.939 145.375 206.081 146.215C206.223 147.055 206.679 147.761 207.317 148.104C207.429 148.163 207.518 148.261 207.569 148.38C207.622 148.498 207.633 148.631 207.603 148.756C207.572 148.883 207.503 148.994 207.402 149.074C207.303 149.156 207.18 149.199 207.053 149.199H207.049ZM207.796 159.083C207.708 159.083 207.623 159.061 207.545 159.022C206.747 158.619 206.206 157.736 206.128 156.719C206.05 155.702 206.465 154.746 207.198 154.227C207.321 154.138 207.474 154.105 207.622 154.132C207.771 154.16 207.901 154.247 207.988 154.375C208.073 154.501 208.105 154.658 208.078 154.81C208.051 154.962 207.966 155.096 207.843 155.184C207.439 155.475 207.215 156.024 207.259 156.637C207.303 157.251 207.602 157.762 208.041 157.984C208.156 158.043 208.248 158.138 208.304 158.256C208.357 158.375 208.372 158.51 208.343 158.638C208.314 158.766 208.244 158.879 208.143 158.961C208.043 159.042 207.918 159.087 207.79 159.087L207.796 159.083ZM209.114 169.043C209.022 169.043 208.933 169.02 208.852 168.978C208.495 168.789 208.064 168.252 207.907 167.493C207.776 166.86 207.799 165.874 208.652 164.786C208.696 164.722 208.754 164.667 208.82 164.626C208.886 164.586 208.96 164.559 209.035 164.549C209.112 164.538 209.19 164.543 209.263 164.564C209.338 164.586 209.408 164.622 209.467 164.671C209.527 164.721 209.576 164.782 209.613 164.851C209.649 164.921 209.671 164.998 209.677 165.077C209.684 165.155 209.674 165.235 209.65 165.309C209.626 165.385 209.586 165.453 209.535 165.513C209.1 166.069 208.916 166.647 209.004 167.187C209.038 167.477 209.171 167.746 209.379 167.948C209.49 168.009 209.579 168.106 209.63 168.224C209.681 168.343 209.693 168.475 209.663 168.6C209.632 168.727 209.562 168.839 209.462 168.919C209.362 168.998 209.241 169.042 209.114 169.042V169.043ZM33.0796 148.875C32.952 148.875 32.8278 148.832 32.7272 148.752C32.6265 148.672 32.5554 148.559 32.5251 148.432C32.4947 148.304 32.5071 148.171 32.5601 148.051C32.6131 147.932 32.7038 147.836 32.8173 147.775C34.6402 146.809 38.7707 144.772 40.8331 143.904C40.9699 143.858 41.1191 143.867 41.2502 143.928C41.3815 143.99 41.4847 144.101 41.539 144.237C41.5931 144.375 41.5942 144.528 41.5422 144.666C41.4901 144.804 41.3884 144.917 41.2583 144.981C39.22 145.837 35.1391 147.851 33.3347 148.808C33.2558 148.851 33.1683 148.874 33.0796 148.875Z" fill="black"/>
    <path d="M82.1119 161.983C82.1768 162.009 82.2461 162.022 82.316 162.022C82.4484 162.022 82.5767 161.974 82.6786 161.889C82.7805 161.802 82.8495 161.681 82.8741 161.547C82.8984 161.415 82.8766 161.277 82.8121 161.158C82.7478 161.04 82.645 160.947 82.5215 160.899C81.0701 160.325 79.8128 159.39 78.4818 158.399L78.4335 158.363C77.3387 157.548 76.2109 156.71 74.9537 156.093C74.8865 156.059 74.8138 156.04 74.7394 156.036C74.6651 156.032 74.5905 156.042 74.5204 156.068C74.4501 156.093 74.3853 156.132 74.3297 156.183C74.2743 156.234 74.2291 156.295 74.1968 156.364C74.1645 156.433 74.1457 156.507 74.1415 156.584C74.1374 156.659 74.1479 156.736 74.1725 156.807C74.1972 156.88 74.2353 156.947 74.2849 157.004C74.3347 157.06 74.3948 157.107 74.4618 157.14C75.6376 157.719 76.7376 158.537 77.8021 159.329L77.8156 159.339C79.1466 160.33 80.5229 161.354 82.1119 161.983Z" fill="white"/>
    <path d="M75.3369 161.729C75.264 161.728 75.192 161.712 75.1243 161.684C75.0551 161.654 74.9921 161.609 74.9391 161.552C74.8859 161.495 74.8436 161.427 74.8145 161.353C74.7854 161.279 74.7701 161.199 74.7696 161.117C74.7688 161.036 74.783 160.956 74.811 160.882C75.1498 159.967 75.9068 159.363 76.4583 158.921C78.0362 157.66 79.6452 156.394 81.2429 155.157C81.3654 155.069 81.5145 155.037 81.6587 155.066C81.8029 155.095 81.9311 155.183 82.0163 155.314C82.1013 155.443 82.1369 155.604 82.1154 155.762C82.0938 155.92 82.0168 156.061 81.9007 156.16C80.3087 157.392 78.7025 158.657 77.1303 159.914C76.5632 160.376 76.0656 160.797 75.8629 161.342C75.8206 161.456 75.748 161.553 75.6543 161.623C75.5606 161.692 75.45 161.729 75.3369 161.729ZM95.5118 160.991C95.4018 160.99 95.2942 160.956 95.2023 160.889C95.1103 160.823 95.0379 160.731 94.9938 160.621C94.9498 160.512 94.9361 160.39 94.9542 160.272C94.9725 160.155 95.0218 160.045 95.0964 159.957C96.9743 157.75 99.1743 155.895 101.608 154.467C101.738 154.405 101.884 154.397 102.019 154.448C102.153 154.498 102.265 154.601 102.333 154.736C102.4 154.872 102.419 155.031 102.385 155.18C102.351 155.329 102.266 155.459 102.148 155.545C99.8242 156.907 97.7231 158.677 95.9286 160.783C95.8763 160.846 95.8122 160.899 95.7405 160.934C95.6686 160.97 95.5908 160.99 95.5118 160.991Z" fill="white"/>
    <path d="M102.297 161.499C102.175 161.499 102.056 161.458 101.958 161.38C99.5727 159.478 97.0928 157.72 94.5289 156.111C94.408 156.024 94.3224 155.892 94.2894 155.74C94.2563 155.589 94.2784 155.429 94.3512 155.294C94.424 155.158 94.5418 155.058 94.6808 155.014C94.82 154.969 94.9696 154.981 95.0996 155.052C97.6991 156.683 100.214 158.466 102.633 160.394C102.729 160.47 102.8 160.578 102.836 160.7C102.872 160.825 102.872 160.956 102.834 161.079C102.796 161.202 102.723 161.307 102.626 161.383C102.528 161.458 102.411 161.499 102.291 161.499H102.297ZM116.46 161.729C116.367 161.729 116.275 161.703 116.193 161.657C116.059 161.58 115.959 161.452 115.914 161.295C115.87 161.14 115.884 160.973 115.954 160.829C116.535 159.649 117.506 158.795 118.37 158.088C119.999 156.754 121.715 155.55 123.508 154.486C123.639 154.411 123.793 154.394 123.937 154.44C124.08 154.486 124.201 154.59 124.274 154.732C124.345 154.873 124.364 155.038 124.324 155.191C124.284 155.346 124.188 155.478 124.06 155.559C122.315 156.596 120.644 157.767 119.058 159.064C118.292 159.691 117.433 160.444 116.962 161.401C116.914 161.499 116.842 161.582 116.753 161.64C116.665 161.697 116.563 161.728 116.46 161.729Z" fill="white"/>
    <path d="M124.579 161.701C124.498 161.7 124.419 161.681 124.346 161.646C124.272 161.609 124.207 161.556 124.155 161.492C122.547 159.489 120.189 158.213 118.107 157.083C117.651 156.808 117.165 156.595 116.662 156.447C116.515 156.412 116.388 156.315 116.307 156.176C116.226 156.039 116.199 155.871 116.231 155.712C116.263 155.552 116.352 155.412 116.479 155.324C116.605 155.236 116.758 155.207 116.905 155.242C117.5 155.41 118.073 155.657 118.612 155.98C120.785 157.159 123.249 158.496 125.006 160.678C125.076 160.766 125.123 160.875 125.14 160.993C125.155 161.11 125.14 161.23 125.096 161.338C125.051 161.446 124.979 161.538 124.887 161.601C124.797 161.666 124.691 161.7 124.582 161.701H124.579ZM138.492 161.729C138.378 161.728 138.266 161.687 138.173 161.617C138.079 161.544 138.007 161.444 137.968 161.327C137.928 161.21 137.923 161.083 137.949 160.962C137.978 160.842 138.038 160.732 138.125 160.65C140.364 158.567 142.824 156.783 145.453 155.338C145.52 155.298 145.592 155.273 145.668 155.265C145.743 155.258 145.819 155.265 145.891 155.29C145.964 155.315 146.031 155.356 146.088 155.409C146.146 155.462 146.194 155.527 146.228 155.601C146.262 155.675 146.281 155.755 146.287 155.838C146.291 155.92 146.281 156.003 146.257 156.08C146.232 156.159 146.194 156.23 146.143 156.291C146.092 156.353 146.03 156.402 145.962 156.438C143.417 157.838 141.035 159.566 138.865 161.581C138.76 161.678 138.628 161.731 138.492 161.729Z" fill="white"/>
    <path d="M212.366 135.231C212.287 135.231 212.21 135.214 212.139 135.182C210.047 134.237 208.852 133.904 206.58 133.631C206.431 133.613 206.294 133.535 206.201 133.414C206.107 133.293 206.065 133.138 206.082 132.985C206.1 132.832 206.175 132.692 206.293 132.597C206.411 132.501 206.562 132.458 206.711 132.475C209.086 132.764 210.404 133.13 212.594 134.117C212.712 134.171 212.808 134.265 212.867 134.382C212.926 134.5 212.944 134.636 212.918 134.766C212.891 134.894 212.82 135.011 212.721 135.095C212.621 135.179 212.495 135.224 212.366 135.224V135.231Z" fill="black"/>
    <path d="M199.182 210.492C195.848 210.492 192.659 210.177 189.044 209.525C188.966 209.514 188.892 209.487 188.827 209.448C188.76 209.408 188.702 209.356 188.657 209.295C188.611 209.233 188.579 209.163 188.563 209.089C188.546 209.014 188.544 208.938 188.559 208.863C188.573 208.789 188.602 208.718 188.646 208.655C188.688 208.591 188.744 208.537 188.809 208.495C188.875 208.453 188.947 208.425 189.024 208.412C189.101 208.398 189.179 208.399 189.256 208.416C194.804 209.416 199.36 209.606 204.977 209.067C205.052 209.06 205.129 209.067 205.203 209.088C205.275 209.109 205.343 209.144 205.403 209.192C205.462 209.239 205.512 209.298 205.548 209.363C205.584 209.429 205.606 209.501 205.613 209.575C205.62 209.649 205.613 209.724 205.591 209.795C205.57 209.867 205.532 209.933 205.484 209.991C205.435 210.047 205.375 210.095 205.309 210.13C205.24 210.166 205.167 210.188 205.091 210.195C203.013 210.391 201.076 210.492 199.182 210.492ZM199.576 206.333C196.867 206.333 194.472 205.95 191.408 205.1C191.333 205.08 191.263 205.047 191.203 205.001C191.142 204.955 191.091 204.898 191.052 204.834C191.014 204.767 190.989 204.695 190.981 204.622C190.972 204.547 190.978 204.471 191 204.399C191.02 204.327 191.056 204.259 191.104 204.201C191.153 204.142 191.213 204.094 191.279 204.058C191.347 204.022 191.423 204 191.498 203.993C191.575 203.986 191.653 203.993 191.727 204.015C195.963 205.189 198.87 205.437 203.25 205.003C203.404 204.987 203.558 205.033 203.678 205.127C203.797 205.222 203.874 205.36 203.89 205.509C203.906 205.659 203.859 205.809 203.761 205.926C203.663 206.041 203.523 206.116 203.369 206.132C202.108 206.261 200.843 206.329 199.576 206.333Z" fill="black"/>
    <path d="M145.663 162.48C145.742 162.52 145.829 162.542 145.918 162.542H145.922C146.026 162.542 146.127 162.511 146.216 162.455C146.305 162.399 146.376 162.319 146.423 162.224C146.471 162.129 146.49 162.022 146.482 161.915C146.473 161.81 146.437 161.707 146.375 161.622C145.177 159.954 143.69 158.53 141.986 157.422C141.723 157.251 141.451 157.085 141.189 156.925L141.173 156.915C140.413 156.451 139.694 156.012 139.109 155.42C139.002 155.316 138.858 155.26 138.712 155.264C138.565 155.267 138.425 155.328 138.322 155.436C138.219 155.543 138.162 155.687 138.16 155.839C138.16 155.989 138.216 156.135 138.319 156.243C138.998 156.93 139.806 157.424 140.586 157.902L140.597 157.909C140.858 158.068 141.128 158.231 141.384 158.398C142.968 159.429 144.353 160.755 145.464 162.308C145.517 162.38 145.585 162.439 145.663 162.48Z" fill="white"/>
</svg>
