<svg width="24" height="24" viewBox="0 0 24 24" fill="none" xmlns="http://www.w3.org/2000/svg">
    <path fill-rule="evenodd" clip-rule="evenodd" d="M2.72826 7.56303L11.2283 2.46303C11.7033 2.17801 12.2967 2.17801 12.7717 2.46303L21.2717 7.56303C21.371 7.62261 21.4619 7.69268 21.5432 7.77134L13.7618 13.4309C12.912 14.049 12.6465 14.2265 12.3868 14.2947C12.132 14.3617 11.868 14.3617 11.6132 14.2947C11.3535 14.2265 11.088 14.049 10.2382 13.4309L2.45685 7.77134C2.53813 7.69268 2.62896 7.62261 2.72826 7.56303ZM2 9.29385V18.9123L7.53425 13.319L2 9.29385ZM2.45957 20.5805C2.72927 20.8403 3.09598 21 3.5 21H20.5C20.904 21 21.2707 20.8403 21.5404 20.5805L15.2387 14.2115L14.644 14.644L14.5322 14.7254L14.5322 14.7254C13.845 15.226 13.3368 15.5961 12.7678 15.7455C12.2632 15.8781 11.7368 15.8781 11.2322 15.7455C10.6632 15.5961 10.1551 15.226 9.46779 14.7254L9.35595 14.644L8.76134 14.2115L2.45957 20.5805ZM22 18.9123V9.29386L16.4657 13.319L22 18.9123Z" fill="#2D3C52"/>
</svg>
